<svg width="40" height="40" viewBox="0 0 40 40" fill="none" xmlns="http://www.w3.org/2000/svg">
<path d="M13.8558 36.7833C9.82457 37.4941 5.98042 34.8024 5.26961 30.7712L2.28693 13.8556C1.57612 9.82439 4.26782 5.98024 8.29902 5.26944L25.2146 2.28676C29.2458 1.57595 33.09 4.26765 33.8008 8.29884L36.7835 25.2145C37.4943 29.2456 34.8026 33.0898 30.7714 33.8006L13.8558 36.7833Z" fill="#E23A2B"/>
<path d="M15.4231 31.6731C12.6588 32.1605 10.0228 30.3148 9.53543 27.5506L7.39707 15.4233C6.90966 12.6591 8.7554 10.0231 11.5196 9.53567L23.6469 7.3973C26.4111 6.90989 29.0471 8.75563 29.5345 11.5199L31.6729 23.6471C32.1603 26.4114 30.3146 29.0474 27.5503 29.5348L15.4231 31.6731Z" fill="url(#paint0_linear_2574_22276)"/>
<path d="M24.6614 14.0612L17.9694 23.6185L13.6252 20.5767" stroke="white" stroke-width="2" stroke-linecap="round" stroke-linejoin="round"/>
<defs>
<linearGradient id="paint0_linear_2574_22276" x1="15.287" y1="28.8824" x2="24.7549" y2="-4.08919" gradientUnits="userSpaceOnUse">
<stop stop-color="#FF6F5C"/>
<stop offset="1" stop-color="#FF5546"/>
</linearGradient>
</defs>
</svg>
