<svg width="86" height="86" viewBox="0 0 86 86" fill="none" xmlns="http://www.w3.org/2000/svg">
<path d="M29.6419 82.5047C20.3473 84.1436 11.4839 77.9374 9.84502 68.6428L2.96794 29.6409C1.32905 20.3463 7.53524 11.4829 16.8299 9.84404L55.8317 2.96695C65.1264 1.32806 73.9897 7.53425 75.6286 16.8289L82.5057 55.8307C84.1446 65.1254 77.9384 73.9887 68.6438 75.6276L29.6419 82.5047Z" fill="#E23A2B"/>
<path d="M33.2511 70.7264C26.8776 71.8502 20.7999 67.5946 19.6761 61.2211L14.7457 33.2596C13.6219 26.8862 17.8776 20.8084 24.251 19.6846L52.2125 14.7543C58.586 13.6304 64.6637 17.8861 65.7875 24.2596L70.7179 52.2211C71.8417 58.5945 67.586 64.6722 61.2126 65.796L33.2511 70.7264Z" fill="url(#paint0_linear_1682_24445)"/>
<path d="M54.5524 30.1169L39.1227 52.1528L29.1064 45.1393" stroke="white" stroke-width="4.61135" stroke-linecap="round" stroke-linejoin="round"/>
<defs>
<linearGradient id="paint0_linear_1682_24445" x1="32.9373" y1="64.2919" x2="54.7672" y2="-11.7299" gradientUnits="userSpaceOnUse">
<stop stop-color="#FF6F5C"/>
<stop offset="1" stop-color="#FF5546"/>
</linearGradient>
</defs>
</svg>
