<svg width="153" height="120" viewBox="0 0 153 120" fill="none" xmlns="http://www.w3.org/2000/svg">
<g filter="url(#filter0_f_1894_21759)">
<ellipse cx="76.5" cy="91.5" rx="56.5" ry="8.5" fill="#AFAFAF" fill-opacity="0.3"/>
</g>
<rect x="19.6875" y="80.6143" width="61.5822" height="114.991" rx="13.6244" transform="rotate(-100 19.6875 80.6143)" fill="#E23A2B"/>
<rect x="26.4648" y="71.0361" width="45.0739" height="97.9165" rx="9.34243" transform="rotate(-100 26.4648 71.0361)" fill="url(#paint0_linear_1894_21759)"/>
<mask id="path-4-inside-1_1894_21759" fill="white">
<path d="M65.0713 41.3464L65.5274 43.9331L61.3261 44.6738L61.6602 46.5685L65.3672 45.9149L65.8001 48.3698L62.0931 49.0234L62.462 51.1158L66.6633 50.375L67.1194 52.9617L59.6889 54.2719L57.6408 42.6566L65.0713 41.3464ZM81.3024 50.4608L80.428 45.5017C80.2508 44.4967 79.5424 44.044 78.6198 44.2067C77.6807 44.3723 77.1863 45.037 77.3635 46.042L78.238 51.0012L75.0088 51.5706L74.1343 46.6114C73.9571 45.6064 73.2652 45.1508 72.3426 45.3135C71.387 45.482 70.8927 46.1467 71.0699 47.1518L71.9443 52.1109L68.7151 52.6803L67.0853 43.4375L70.3146 42.8681L70.5295 44.0873C70.926 43.2529 71.7334 42.533 72.9855 42.3122C74.3695 42.0682 75.5673 42.5025 76.3657 43.4659C76.8262 42.4164 77.7799 41.4668 79.1474 41.2257C81.4869 40.8132 83.1546 42.082 83.5817 44.5039L84.5316 49.8914L81.3024 50.4608ZM88.1269 41.0524C88.4594 40.1443 89.2969 39.4021 90.582 39.1755C92.7897 38.7862 94.8334 40.2606 95.3534 43.2097C95.8734 46.1588 94.4601 48.2597 92.2524 48.649C90.9508 48.8785 89.9401 48.4451 89.3035 47.725L90.3086 53.4255L87.0794 53.9949L84.6711 40.3367L87.9003 39.7673L88.1269 41.0524ZM92.0747 43.7878C91.854 42.5356 90.9634 42.0132 90.0572 42.1729C89.1511 42.3327 88.4958 43.1448 88.7137 44.3804C88.9345 45.6326 89.828 46.1715 90.7341 46.0118C91.6403 45.852 92.2926 45.0235 92.0747 43.7878ZM97.391 44.0056L96.8536 40.9576L95.7168 41.158L95.2433 38.4725L96.3801 38.2721L95.985 36.0314L99.2307 35.4591L99.6258 37.6998L101.306 37.4034L101.78 40.089L100.099 40.3853L100.645 43.4827C100.733 43.9769 100.985 44.1534 101.528 44.0575L102.467 43.8919L102.952 46.6433L101.552 46.8903C99.5091 47.2505 97.8588 46.6581 97.391 44.0056ZM108.258 41.5797L109.213 36.0093L112.755 35.3847L109.295 50.0607L105.786 50.6795L107.148 45.4958L101.799 37.3166L105.391 36.6833L108.258 41.5797Z"/>
</mask>
<path d="M65.0713 41.3464L65.5274 43.9331L61.3261 44.6738L61.6602 46.5685L65.3672 45.9149L65.8001 48.3698L62.0931 49.0234L62.462 51.1158L66.6633 50.375L67.1194 52.9617L59.6889 54.2719L57.6408 42.6566L65.0713 41.3464ZM81.3024 50.4608L80.428 45.5017C80.2508 44.4967 79.5424 44.044 78.6198 44.2067C77.6807 44.3723 77.1863 45.037 77.3635 46.042L78.238 51.0012L75.0088 51.5706L74.1343 46.6114C73.9571 45.6064 73.2652 45.1508 72.3426 45.3135C71.387 45.482 70.8927 46.1467 71.0699 47.1518L71.9443 52.1109L68.7151 52.6803L67.0853 43.4375L70.3146 42.8681L70.5295 44.0873C70.926 43.2529 71.7334 42.533 72.9855 42.3122C74.3695 42.0682 75.5673 42.5025 76.3657 43.4659C76.8262 42.4164 77.7799 41.4668 79.1474 41.2257C81.4869 40.8132 83.1546 42.082 83.5817 44.5039L84.5316 49.8914L81.3024 50.4608ZM88.1269 41.0524C88.4594 40.1443 89.2969 39.4021 90.582 39.1755C92.7897 38.7862 94.8334 40.2606 95.3534 43.2097C95.8734 46.1588 94.4601 48.2597 92.2524 48.649C90.9508 48.8785 89.9401 48.4451 89.3035 47.725L90.3086 53.4255L87.0794 53.9949L84.6711 40.3367L87.9003 39.7673L88.1269 41.0524ZM92.0747 43.7878C91.854 42.5356 90.9634 42.0132 90.0572 42.1729C89.1511 42.3327 88.4958 43.1448 88.7137 44.3804C88.9345 45.6326 89.828 46.1715 90.7341 46.0118C91.6403 45.852 92.2926 45.0235 92.0747 43.7878ZM97.391 44.0056L96.8536 40.9576L95.7168 41.158L95.2433 38.4725L96.3801 38.2721L95.985 36.0314L99.2307 35.4591L99.6258 37.6998L101.306 37.4034L101.78 40.089L100.099 40.3853L100.645 43.4827C100.733 43.9769 100.985 44.1534 101.528 44.0575L102.467 43.8919L102.952 46.6433L101.552 46.8903C99.5091 47.2505 97.8588 46.6581 97.391 44.0056ZM108.258 41.5797L109.213 36.0093L112.755 35.3847L109.295 50.0607L105.786 50.6795L107.148 45.4958L101.799 37.3166L105.391 36.6833L108.258 41.5797Z" fill="url(#paint1_linear_1894_21759)"/>
<path d="M65.0713 41.3464L65.5495 41.2621L65.4652 40.7839L64.987 40.8682L65.0713 41.3464ZM65.5274 43.9331L65.6117 44.4112L66.0899 44.3269L66.0056 43.8487L65.5274 43.9331ZM61.3261 44.6738L61.2418 44.1957L60.7637 44.28L60.848 44.7582L61.3261 44.6738ZM61.6602 46.5685L61.1821 46.6529L61.2664 47.131L61.7445 47.0467L61.6602 46.5685ZM65.3672 45.9149L65.8454 45.8306L65.7611 45.3524L65.2829 45.4367L65.3672 45.9149ZM65.8001 48.3698L65.8844 48.8479L66.3626 48.7636L66.2783 48.2854L65.8001 48.3698ZM62.0931 49.0234L62.0088 48.5452L61.5306 48.6296L61.6149 49.1077L62.0931 49.0234ZM62.462 51.1158L61.9839 51.2001L62.0682 51.6783L62.5464 51.594L62.462 51.1158ZM66.6633 50.375L67.1415 50.2907L67.0572 49.8125L66.579 49.8968L66.6633 50.375ZM67.1194 52.9617L67.2037 53.4398L67.6819 53.3555L67.5976 52.8774L67.1194 52.9617ZM59.6889 54.2719L59.2108 54.3562L59.2951 54.8343L59.7732 54.75L59.6889 54.2719ZM57.6408 42.6566L57.5565 42.1784L57.0784 42.2627L57.1627 42.7409L57.6408 42.6566ZM65.0713 41.3464L64.5932 41.4307L65.0493 44.0174L65.5274 43.9331L66.0056 43.8487L65.5495 41.2621L65.0713 41.3464ZM65.5274 43.9331L65.4431 43.4549L61.2418 44.1957L61.3261 44.6738L61.4105 45.152L65.6117 44.4112L65.5274 43.9331ZM61.3261 44.6738L60.848 44.7582L61.1821 46.6529L61.6602 46.5685L62.1384 46.4842L61.8043 44.5895L61.3261 44.6738ZM61.6602 46.5685L61.7445 47.0467L65.4516 46.3931L65.3672 45.9149L65.2829 45.4367L61.5759 46.0904L61.6602 46.5685ZM65.3672 45.9149L64.8891 45.9992L65.3219 48.4541L65.8001 48.3698L66.2783 48.2854L65.8454 45.8306L65.3672 45.9149ZM65.8001 48.3698L65.7158 47.8916L62.0088 48.5452L62.0931 49.0234L62.1774 49.5016L65.8844 48.8479L65.8001 48.3698ZM62.0931 49.0234L61.6149 49.1077L61.9839 51.2001L62.462 51.1158L62.9402 51.0315L62.5713 48.9391L62.0931 49.0234ZM62.462 51.1158L62.5464 51.594L66.7476 50.8532L66.6633 50.375L66.579 49.8968L62.3777 50.6376L62.462 51.1158ZM66.6633 50.375L66.1851 50.4593L66.6412 53.046L67.1194 52.9617L67.5976 52.8774L67.1415 50.2907L66.6633 50.375ZM67.1194 52.9617L67.0351 52.4835L59.6046 53.7937L59.6889 54.2719L59.7732 54.75L67.2037 53.4398L67.1194 52.9617ZM59.6889 54.2719L60.1671 54.1875L58.119 42.5723L57.6408 42.6566L57.1627 42.7409L59.2108 54.3562L59.6889 54.2719ZM57.6408 42.6566L57.7251 43.1347L65.1556 41.8245L65.0713 41.3464L64.987 40.8682L57.5565 42.1784L57.6408 42.6566ZM81.3024 50.4608L80.8243 50.5451L80.9086 51.0233L81.3867 50.939L81.3024 50.4608ZM78.238 51.0012L78.3223 51.4793L78.8004 51.395L78.7161 50.9169L78.238 51.0012ZM75.0088 51.5706L74.5306 51.6549L74.6149 52.133L75.0931 52.0487L75.0088 51.5706ZM71.9443 52.1109L72.0286 52.5891L72.5068 52.5048L72.4225 52.0266L71.9443 52.1109ZM68.7151 52.6803L68.2369 52.7646L68.3212 53.2428L68.7994 53.1585L68.7151 52.6803ZM67.0853 43.4375L67.001 42.9593L66.5229 43.0437L66.6072 43.5218L67.0853 43.4375ZM70.3146 42.8681L70.7927 42.7838L70.7084 42.3056L70.2302 42.39L70.3146 42.8681ZM70.5295 44.0873L70.0514 44.1716L70.3154 45.6691L70.9681 44.2957L70.5295 44.0873ZM76.3657 43.4659L75.9919 43.7758L76.4941 44.3818L76.8103 43.661L76.3657 43.4659ZM84.5316 49.8914L84.616 50.3696L85.0941 50.2853L85.0098 49.8071L84.5316 49.8914ZM81.3024 50.4608L81.7806 50.3765L80.9062 45.4174L80.428 45.5017L79.9498 45.586L80.8243 50.5451L81.3024 50.4608ZM80.428 45.5017L80.9062 45.4174C80.8003 44.8171 80.5237 44.3253 80.0804 44.0175C79.6383 43.7105 79.0935 43.6301 78.5355 43.7285L78.6198 44.2067L78.7041 44.6848C79.0687 44.6205 79.3394 44.6852 79.5265 44.8151C79.7123 44.9441 79.8785 45.1813 79.9498 45.586L80.428 45.5017ZM78.6198 44.2067L78.5355 43.7285C77.9711 43.828 77.4848 44.0891 77.1753 44.5311C76.8656 44.9734 76.7802 45.5297 76.8854 46.1263L77.3635 46.042L77.8417 45.9577C77.7697 45.5494 77.8429 45.2707 77.9708 45.088C78.099 44.9049 78.3294 44.7509 78.7041 44.6848L78.6198 44.2067ZM77.3635 46.042L76.8854 46.1263L77.7598 51.0855L78.238 51.0012L78.7161 50.9169L77.8417 45.9577L77.3635 46.042ZM78.238 51.0012L78.1537 50.523L74.9244 51.0924L75.0088 51.5706L75.0931 52.0487L78.3223 51.4793L78.238 51.0012ZM75.0088 51.5706L75.4869 51.4862L74.6125 46.5271L74.1343 46.6114L73.6562 46.6957L74.5306 51.6549L75.0088 51.5706ZM74.1343 46.6114L74.6125 46.5271C74.5073 45.9305 74.237 45.4379 73.798 45.1279C73.359 44.818 72.8166 44.7369 72.2583 44.8353L72.3426 45.3135L72.4269 45.7917C72.7912 45.7274 73.0561 45.7928 73.238 45.9212C73.4199 46.0497 73.5842 46.2874 73.6562 46.6957L74.1343 46.6114ZM72.3426 45.3135L72.2583 44.8353C71.6878 44.9359 71.1971 45.1965 70.8848 45.6389C70.5718 46.0822 70.4865 46.6394 70.5917 47.2361L71.0699 47.1518L71.548 47.0674C71.476 46.6592 71.5493 46.3814 71.6781 46.199C71.8075 46.0156 72.0418 45.8596 72.4269 45.7917L72.3426 45.3135ZM71.0699 47.1518L70.5917 47.2361L71.4661 52.1952L71.9443 52.1109L72.4225 52.0266L71.548 47.0674L71.0699 47.1518ZM71.9443 52.1109L71.86 51.6327L68.6308 52.2021L68.7151 52.6803L68.7994 53.1585L72.0286 52.5891L71.9443 52.1109ZM68.7151 52.6803L69.1933 52.596L67.5635 43.3532L67.0853 43.4375L66.6072 43.5218L68.2369 52.7646L68.7151 52.6803ZM67.0853 43.4375L67.1697 43.9157L70.3989 43.3463L70.3146 42.8681L70.2302 42.39L67.001 42.9593L67.0853 43.4375ZM70.3146 42.8681L69.8364 42.9524L70.0514 44.1716L70.5295 44.0873L71.0077 44.003L70.7927 42.7838L70.3146 42.8681ZM70.5295 44.0873L70.9681 44.2957C71.2977 43.602 71.9738 42.9836 73.0699 42.7904L72.9855 42.3122L72.9012 41.834C71.493 42.0824 70.5543 42.9038 70.091 43.8789L70.5295 44.0873ZM72.9855 42.3122L73.0699 42.7904C74.2956 42.5742 75.3134 42.957 75.9919 43.7758L76.3657 43.4659L76.7395 43.1561C75.8212 42.048 74.4434 41.5621 72.9012 41.834L72.9855 42.3122ZM76.3657 43.4659L76.8103 43.661C77.2181 42.7317 78.0525 41.9118 79.2317 41.7039L79.1474 41.2257L79.0631 40.7475C77.5073 41.0219 76.4343 42.1012 75.9211 43.2709L76.3657 43.4659ZM79.1474 41.2257L79.2317 41.7039C80.2949 41.5164 81.155 41.7168 81.7916 42.1912C82.4322 42.6686 82.906 43.4679 83.1035 44.5882L83.5817 44.5039L84.0598 44.4196C83.8303 43.118 83.2567 42.0719 82.3718 41.4126C81.483 40.7502 80.3394 40.5225 79.0631 40.7475L79.1474 41.2257ZM83.5817 44.5039L83.1035 44.5882L84.0535 49.9757L84.5316 49.8914L85.0098 49.8071L84.0598 44.4196L83.5817 44.5039ZM84.5316 49.8914L84.4473 49.4133L81.2181 49.9827L81.3024 50.4608L81.3867 50.939L84.616 50.3696L84.5316 49.8914ZM88.1269 41.0524L87.6487 41.1367L87.9621 42.9141L88.5828 41.2193L88.1269 41.0524ZM89.3035 47.725L89.6672 47.4034L88.5261 46.1125L88.8253 47.8093L89.3035 47.725ZM90.3086 53.4255L90.3929 53.9037L90.8711 53.8194L90.7868 53.3412L90.3086 53.4255ZM87.0794 53.9949L86.6012 54.0792L86.6856 54.5574L87.1637 54.4731L87.0794 53.9949ZM84.6711 40.3367L84.5868 39.8585L84.1086 39.9428L84.1929 40.421L84.6711 40.3367ZM87.9003 39.7673L88.3785 39.683L88.2941 39.2048L87.816 39.2891L87.9003 39.7673ZM88.1269 41.0524L88.5828 41.2193C88.8495 40.4911 89.5327 39.8535 90.6663 39.6537L90.582 39.1755L90.4976 38.6973C89.061 38.9507 88.0694 39.7975 87.671 40.8854L88.1269 41.0524ZM90.582 39.1755L90.6663 39.6537C91.6346 39.4829 92.5548 39.7197 93.2953 40.3183C94.0395 40.9198 94.6315 41.9121 94.8752 43.294L95.3534 43.2097L95.8315 43.1254C95.5552 41.5582 94.8653 40.3387 93.9058 39.5631C92.9425 38.7845 91.737 38.4788 90.4976 38.6973L90.582 39.1755ZM95.3534 43.2097L94.8752 43.294C95.1189 44.676 94.9027 45.8155 94.4092 46.6399C93.9182 47.46 93.135 48.0003 92.1681 48.1708L92.2524 48.649L92.3367 49.1271C93.5775 48.9083 94.6048 48.2035 95.2424 47.1387C95.8774 46.078 96.1079 44.6925 95.8315 43.1254L95.3534 43.2097ZM92.2524 48.649L92.1681 48.1708C91.0286 48.3717 90.189 47.9936 89.6672 47.4034L89.3035 47.725L88.9397 48.0465C89.6911 48.8966 90.8731 49.3852 92.3367 49.1271L92.2524 48.649ZM89.3035 47.725L88.8253 47.8093L89.8305 53.5098L90.3086 53.4255L90.7868 53.3412L89.7816 47.6407L89.3035 47.725ZM90.3086 53.4255L90.2243 52.9474L86.9951 53.5168L87.0794 53.9949L87.1637 54.4731L90.3929 53.9037L90.3086 53.4255ZM87.0794 53.9949L87.5576 53.9106L85.1492 40.2524L84.6711 40.3367L84.1929 40.421L86.6012 54.0792L87.0794 53.9949ZM84.6711 40.3367L84.7554 40.8148L87.9846 40.2454L87.9003 39.7673L87.816 39.2891L84.5868 39.8585L84.6711 40.3367ZM87.9003 39.7673L87.4221 39.8516L87.6487 41.1367L88.1269 41.0524L88.6051 40.9681L88.3785 39.683L87.9003 39.7673ZM92.0747 43.7878L92.5529 43.7035C92.4248 42.9769 92.0917 42.4133 91.6105 42.0597C91.1302 41.7066 90.5439 41.5941 89.9729 41.6948L90.0572 42.1729L90.1415 42.6511C90.4767 42.592 90.7888 42.6608 91.0355 42.8421C91.2813 43.0228 91.5039 43.3466 91.5966 43.8721L92.0747 43.7878ZM90.0572 42.1729L89.9729 41.6948C89.3986 41.7961 88.8878 42.1086 88.5591 42.6052C88.2299 43.1025 88.1086 43.7449 88.2356 44.4647L88.7137 44.3804L89.1919 44.2961C89.1009 43.7803 89.1983 43.3988 89.3688 43.1412C89.5398 42.8829 89.8098 42.7096 90.1415 42.6511L90.0572 42.1729ZM88.7137 44.3804L88.2356 44.4647C88.3636 45.1911 88.697 45.7575 89.1769 46.115C89.6564 46.4721 90.2439 46.5912 90.8184 46.4899L90.7341 46.0118L90.6498 45.5336C90.3182 45.5921 90.0059 45.5216 89.7569 45.3362C89.5084 45.151 89.2846 44.8219 89.1919 44.2961L88.7137 44.3804ZM90.7341 46.0118L90.8184 46.4899C91.3963 46.388 91.906 46.0688 92.2325 45.5687C92.5592 45.0682 92.6798 44.423 92.5529 43.7035L92.0747 43.7878L91.5966 43.8721C91.6876 44.3882 91.5909 44.7751 91.4194 45.0378C91.2477 45.3008 90.9781 45.4757 90.6498 45.5336L90.7341 46.0118ZM96.8536 40.9576L97.3318 40.8733L97.2474 40.3951L96.7693 40.4794L96.8536 40.9576ZM95.7168 41.158L95.2386 41.2423L95.3229 41.7205L95.8011 41.6362L95.7168 41.158ZM95.2433 38.4725L95.1589 37.9943L94.6808 38.0787L94.7651 38.5568L95.2433 38.4725ZM96.3801 38.2721L96.4644 38.7502L96.9425 38.6659L96.8582 38.1877L96.3801 38.2721ZM95.985 36.0314L95.9007 35.5532L95.4225 35.6375L95.5068 36.1157L95.985 36.0314ZM99.2307 35.4591L99.7088 35.3748L99.6245 34.8966L99.1464 34.9809L99.2307 35.4591ZM99.6258 37.6998L99.1476 37.7841L99.2319 38.2622L99.7101 38.1779L99.6258 37.6998ZM101.306 37.4034L101.784 37.3191L101.7 36.841L101.222 36.9253L101.306 37.4034ZM101.78 40.089L101.864 40.5671L102.342 40.4828L102.258 40.0046L101.78 40.089ZM100.099 40.3853L100.015 39.9071L99.5368 39.9914L99.6211 40.4696L100.099 40.3853ZM102.467 43.8919L102.946 43.8076L102.861 43.3294L102.383 43.4137L102.467 43.8919ZM102.952 46.6433L103.037 47.1215L103.515 47.0372L103.431 46.559L102.952 46.6433ZM97.391 44.0056L97.8692 43.9212L97.3318 40.8733L96.8536 40.9576L96.3754 41.0419L96.9129 44.0899L97.391 44.0056ZM96.8536 40.9576L96.7693 40.4794L95.6325 40.6799L95.7168 41.158L95.8011 41.6362L96.9379 41.4357L96.8536 40.9576ZM95.7168 41.158L96.1949 41.0737L95.7214 38.3882L95.2433 38.4725L94.7651 38.5568L95.2386 41.2423L95.7168 41.158ZM95.2433 38.4725L95.3276 38.9507L96.4644 38.7502L96.3801 38.2721L96.2958 37.7939L95.1589 37.9943L95.2433 38.4725ZM96.3801 38.2721L96.8582 38.1877L96.4631 35.9471L95.985 36.0314L95.5068 36.1157L95.9019 38.3564L96.3801 38.2721ZM95.985 36.0314L96.0693 36.5095L99.315 35.9372L99.2307 35.4591L99.1464 34.9809L95.9007 35.5532L95.985 36.0314ZM99.2307 35.4591L98.7525 35.5434L99.1476 37.7841L99.6258 37.6998L100.104 37.6154L99.7088 35.3748L99.2307 35.4591ZM99.6258 37.6998L99.7101 38.1779L101.391 37.8816L101.306 37.4034L101.222 36.9253L99.5414 37.2216L99.6258 37.6998ZM101.306 37.4034L100.828 37.4877L101.302 40.1733L101.78 40.089L102.258 40.0046L101.784 37.3191L101.306 37.4034ZM101.78 40.089L101.695 39.6108L100.015 39.9071L100.099 40.3853L100.184 40.8634L101.864 40.5671L101.78 40.089ZM100.099 40.3853L99.6211 40.4696L100.167 43.567L100.645 43.4827L101.124 43.3984L100.577 40.301L100.099 40.3853ZM100.645 43.4827L100.167 43.567C100.221 43.8705 100.344 44.1954 100.648 44.3962C100.944 44.5922 101.295 44.5917 101.613 44.5357L101.528 44.0575L101.444 43.5793C101.218 43.6192 101.171 43.5784 101.184 43.5865C101.203 43.5995 101.157 43.5891 101.124 43.3984L100.645 43.4827ZM101.528 44.0575L101.613 44.5357L102.552 44.3701L102.467 43.8919L102.383 43.4137L101.444 43.5793L101.528 44.0575ZM102.467 43.8919L101.989 43.9762L102.474 46.7276L102.952 46.6433L103.431 46.559L102.946 43.8076L102.467 43.8919ZM102.952 46.6433L102.868 46.1652L101.468 46.4121L101.552 46.8903L101.636 47.3684L103.037 47.1215L102.952 46.6433ZM101.552 46.8903L101.468 46.4121C100.501 46.5825 99.7143 46.5106 99.1301 46.1611C98.5614 45.8208 98.0872 45.1575 97.8692 43.9212L97.391 44.0056L96.9129 44.0899C97.1626 45.5061 97.7474 46.4654 98.6315 46.9944C99.5003 47.5141 100.56 47.5583 101.636 47.3684L101.552 46.8903ZM108.258 41.5797L107.84 41.8251L108.512 42.9737L108.737 41.6617L108.258 41.5797ZM109.213 36.0093L109.129 35.5311L108.792 35.5905L108.734 35.9273L109.213 36.0093ZM112.755 35.3847L113.228 35.4961L113.397 34.7785L112.671 34.9065L112.755 35.3847ZM109.295 50.0607L109.38 50.5388L109.694 50.4833L109.768 50.1721L109.295 50.0607ZM105.786 50.6795L105.316 50.556L105.124 51.2893L105.87 51.1576L105.786 50.6795ZM107.148 45.4958L107.618 45.6192L107.673 45.4106L107.555 45.23L107.148 45.4958ZM101.799 37.3166L101.715 36.8384L100.99 36.9662L101.393 37.5823L101.799 37.3166ZM105.391 36.6833L105.809 36.4379L105.639 36.1465L105.306 36.2051L105.391 36.6833ZM108.258 41.5797L108.737 41.6617L109.691 36.0913L109.213 36.0093L108.734 35.9273L107.78 41.4977L108.258 41.5797ZM109.213 36.0093L109.297 36.4874L112.839 35.8629L112.755 35.3847L112.671 34.9065L109.129 35.5311L109.213 36.0093ZM112.755 35.3847L112.283 35.2733L108.823 49.9493L109.295 50.0607L109.768 50.1721L113.228 35.4961L112.755 35.3847ZM109.295 50.0607L109.211 49.5825L105.702 50.2013L105.786 50.6795L105.87 51.1576L109.38 50.5388L109.295 50.0607ZM105.786 50.6795L106.256 50.8029L107.618 45.6192L107.148 45.4958L106.679 45.3724L105.316 50.556L105.786 50.6795ZM107.148 45.4958L107.555 45.23L102.205 37.0508L101.799 37.3166L101.393 37.5823L106.742 45.7616L107.148 45.4958ZM101.799 37.3166L101.883 37.7947L105.475 37.1614L105.391 36.6833L105.306 36.2051L101.715 36.8384L101.799 37.3166ZM105.391 36.6833L104.972 36.9287L107.84 41.8251L108.258 41.5797L108.677 41.3343L105.809 36.4379L105.391 36.6833Z" fill="white" fill-opacity="0.8" mask="url(#path-4-inside-1_1894_21759)"/>
<path d="M30.9394 37.706C30.9061 37.5171 30.8013 37.3488 30.6481 37.2381C30.4949 37.1274 30.3058 37.0834 30.1225 37.1157L28.0906 37.474C27.9396 37.5331 27.7728 37.5364 27.6186 37.4835C27.4643 37.4305 27.3321 37.3245 27.2443 37.1835C27.1564 37.0424 27.1185 36.875 27.1368 36.7095C27.1551 36.5441 27.2285 36.3908 27.3447 36.2757L31.2124 30.5746C31.2758 30.4811 31.3566 30.4016 31.4503 30.3405C31.5439 30.2795 31.6485 30.2381 31.7581 30.2188C31.8676 30.1994 31.9801 30.2025 32.0889 30.2279C32.1978 30.2532 32.301 30.3003 32.3925 30.3665L37.9762 34.4011C38.1247 34.4695 38.2461 34.5884 38.3199 34.7376C38.3937 34.8868 38.4153 35.0572 38.381 35.2198C38.3468 35.3824 38.2587 35.5272 38.1319 35.6297C38.0051 35.7322 37.8472 35.7861 37.6851 35.7822L35.6532 36.1405C35.4699 36.1729 35.3073 36.2789 35.2012 36.4353C35.0951 36.5917 35.0542 36.7857 35.0875 36.9746L35.8409 41.2477C35.8742 41.4366 35.8333 41.6306 35.7272 41.787C35.6211 41.9434 35.4585 42.0494 35.2752 42.0818L32.5098 42.5694C32.3264 42.6017 32.1373 42.5577 31.9841 42.447C31.8309 42.3363 31.7261 42.168 31.6928 41.9791L30.9394 37.706Z" stroke="url(#paint2_linear_1894_21759)" stroke-width="0.878109" stroke-linecap="round" stroke-linejoin="round"/>
<defs>
<filter id="filter0_f_1894_21759" x="0" y="63" width="153" height="57" filterUnits="userSpaceOnUse" color-interpolation-filters="sRGB">
<feFlood flood-opacity="0" result="BackgroundImageFix"/>
<feBlend mode="normal" in="SourceGraphic" in2="BackgroundImageFix" result="shape"/>
<feGaussianBlur stdDeviation="10" result="effect1_foregroundBlur_1894_21759"/>
</filter>
<linearGradient id="paint0_linear_1894_21759" x1="32.0231" y1="82.2616" x2="94.5358" y2="111.879" gradientUnits="userSpaceOnUse">
<stop stop-color="#FF6F5C"/>
<stop offset="1" stop-color="#FF5546"/>
</linearGradient>
<linearGradient id="paint1_linear_1894_21759" x1="61.1432" y1="43.1897" x2="101.708" y2="70.5777" gradientUnits="userSpaceOnUse">
<stop stop-color="white"/>
<stop offset="1" stop-color="white" stop-opacity="0.7"/>
</linearGradient>
<linearGradient id="paint2_linear_1894_21759" x1="23.5635" y1="35.3281" x2="39.3051" y2="40.6479" gradientUnits="userSpaceOnUse">
<stop stop-color="white"/>
<stop offset="1" stop-color="white" stop-opacity="0.7"/>
</linearGradient>
</defs>
</svg>
