<svg width="24" height="24" viewBox="0 0 24 24" fill="none" xmlns="http://www.w3.org/2000/svg">
<path d="M10.8598 5.7684C12.9561 5.51856 15.0766 5.96174 16.8974 7.03024C18.7183 8.09875 20.1394 9.73387 20.9437 11.6859C21.0188 11.888 21.0188 12.1102 20.9437 12.3123C20.613 13.1142 20.1759 13.868 19.6442 14.5533M13.8755 13.9422C13.3663 14.434 12.6843 14.7062 11.9764 14.7C11.2685 14.6939 10.5914 14.4099 10.0908 13.9093C9.59021 13.4087 9.30627 12.7315 9.30012 12.0236C9.29397 11.3157 9.5661 10.6336 10.0579 10.1244M16.9309 16.9491C15.737 17.6563 14.4051 18.0984 13.0254 18.2455C11.6457 18.3925 10.2504 18.241 8.93442 17.8013C7.6184 17.3616 6.41236 16.6439 5.39812 15.697C4.38389 14.75 3.5852 13.596 3.05625 12.3132C2.98125 12.1111 2.98125 11.8889 3.05625 11.6868C3.85418 9.75167 5.25815 8.12752 7.05745 7.0581M3.00045 3L20.9995 21" stroke="currentColor" stroke-width="1.5" stroke-linecap="round" stroke-linejoin="round"/>
</svg>
