<svg width="143" height="154" viewBox="0 0 143 154" fill="none" xmlns="http://www.w3.org/2000/svg">
<path d="M126.102 83.8902C127.237 90.3251 122.94 96.4615 116.505 97.5962L36.4981 111.704C30.0632 112.838 23.9268 108.541 22.7922 102.107L16.7657 67.9288C15.6311 61.4939 19.9278 55.3575 26.3628 54.2229L58.8465 48.4951C60.9914 48.1169 62.4237 46.0714 62.0455 43.9265L58.2789 22.5654L58.0735 21.4003C56.9388 14.9653 61.2356 8.82896 67.6705 7.6943L99.6583 2.05398C106.093 0.919328 112.23 5.21606 113.364 11.651L126.102 83.8902Z" fill="#E23A2B"/>
<path d="M117.79 82.1513C118.546 86.4412 115.682 90.5321 111.392 91.2886L39.1526 104.026C34.8626 104.783 30.7717 101.918 30.0153 97.6283L25.2215 70.4415C24.4651 66.1515 27.3296 62.0606 31.6196 61.3042L66.0211 55.2383C69.024 54.7088 71.0292 51.8451 70.4997 48.8421L66.1168 23.9856C65.3604 19.6957 68.2248 15.6048 72.5148 14.8483L97.1475 10.5049C101.437 9.7485 105.528 12.613 106.285 16.9029L117.79 82.1513Z" fill="url(#paint0_linear_1894_21760)"/>
<mask id="path-3-inside-1_1894_21760" fill="white">
<path d="M37.3981 83.1155L40.2987 82.604L41.747 90.8174L44.9879 90.246L45.3794 92.4658L39.2378 93.5487L37.3981 83.1155ZM54.0022 86.6576C54.4693 89.3066 52.8594 91.2537 50.388 91.6895C47.9166 92.1252 45.7675 90.8409 45.3004 88.1919C44.8359 85.5577 46.4309 83.6132 48.9024 83.1775C51.3738 82.7417 53.5377 84.0234 54.0022 86.6576ZM48.2602 87.67C48.4715 88.8688 49.1896 89.3067 49.9444 89.1736C50.6843 89.0432 51.2685 88.3756 51.0572 87.1769C50.8484 85.9929 50.0859 85.5628 49.346 85.6933C48.606 85.8237 48.0514 86.4861 48.2602 87.67ZM54.7087 86.533C54.2416 83.884 55.5285 82.0091 57.4967 81.662C58.6658 81.4559 59.6007 81.8251 60.1604 82.4894L59.9568 81.3351L62.8574 80.8236L64.3057 89.037C64.6971 91.2569 63.828 93.4243 60.8386 93.9514C58.2488 94.4081 56.4209 93.3876 55.851 91.3671L58.7072 90.8634C58.9195 91.3753 59.4775 91.5974 60.2174 91.4669C61.0314 91.3234 61.6321 90.836 61.4051 89.5485L61.2172 88.483C60.9185 89.2986 60.1663 89.9653 58.9972 90.1714C57.0289 90.5185 55.1758 89.182 54.7087 86.533ZM60.6875 85.4788C60.4918 84.3689 59.6892 83.8847 58.8753 84.0283C58.0465 84.1744 57.4702 84.8864 57.6685 86.0111C57.8642 87.121 58.6545 87.6225 59.4833 87.4764C60.2972 87.3329 60.8858 86.6035 60.6875 85.4788ZM65.9742 88.8344L64.5103 80.5322L67.4109 80.0207L68.8748 88.3229L65.9742 88.8344ZM65.8397 79.5043C64.8038 79.6869 64.023 79.1532 63.8769 78.3245C63.7281 77.4809 64.2766 76.6976 65.3126 76.5149C66.3337 76.3348 67.1171 76.8834 67.2658 77.7269C67.4119 78.5557 66.8608 79.3242 65.8397 79.5043ZM76.1798 87.0349L75.3943 82.5804C75.2247 81.6184 74.5928 81.15 73.7641 81.2961C72.9057 81.4475 72.4721 82.1038 72.6417 83.0657L73.4272 87.5202L70.5266 88.0317L69.0627 79.7295L71.9633 79.218L72.172 80.4019C72.5351 79.6055 73.3117 78.9039 74.4809 78.6978C76.4047 78.3586 77.8435 79.5087 78.2271 81.6841L79.0804 86.5234L76.1798 87.0349Z"/>
</mask>
<path d="M37.3981 83.1155L40.2987 82.604L41.747 90.8174L44.9879 90.246L45.3794 92.4658L39.2378 93.5487L37.3981 83.1155ZM54.0022 86.6576C54.4693 89.3066 52.8594 91.2537 50.388 91.6895C47.9166 92.1252 45.7675 90.8409 45.3004 88.1919C44.8359 85.5577 46.4309 83.6132 48.9024 83.1775C51.3738 82.7417 53.5377 84.0234 54.0022 86.6576ZM48.2602 87.67C48.4715 88.8688 49.1896 89.3067 49.9444 89.1736C50.6843 89.0432 51.2685 88.3756 51.0572 87.1769C50.8484 85.9929 50.0859 85.5628 49.346 85.6933C48.606 85.8237 48.0514 86.4861 48.2602 87.67ZM54.7087 86.533C54.2416 83.884 55.5285 82.0091 57.4967 81.662C58.6658 81.4559 59.6007 81.8251 60.1604 82.4894L59.9568 81.3351L62.8574 80.8236L64.3057 89.037C64.6971 91.2569 63.828 93.4243 60.8386 93.9514C58.2488 94.4081 56.4209 93.3876 55.851 91.3671L58.7072 90.8634C58.9195 91.3753 59.4775 91.5974 60.2174 91.4669C61.0314 91.3234 61.6321 90.836 61.4051 89.5485L61.2172 88.483C60.9185 89.2986 60.1663 89.9653 58.9972 90.1714C57.0289 90.5185 55.1758 89.182 54.7087 86.533ZM60.6875 85.4788C60.4918 84.3689 59.6892 83.8847 58.8753 84.0283C58.0465 84.1744 57.4702 84.8864 57.6685 86.0111C57.8642 87.121 58.6545 87.6225 59.4833 87.4764C60.2972 87.3329 60.8858 86.6035 60.6875 85.4788ZM65.9742 88.8344L64.5103 80.5322L67.4109 80.0207L68.8748 88.3229L65.9742 88.8344ZM65.8397 79.5043C64.8038 79.6869 64.023 79.1532 63.8769 78.3245C63.7281 77.4809 64.2766 76.6976 65.3126 76.5149C66.3337 76.3348 67.1171 76.8834 67.2658 77.7269C67.4119 78.5557 66.8608 79.3242 65.8397 79.5043ZM76.1798 87.0349L75.3943 82.5804C75.2247 81.6184 74.5928 81.15 73.7641 81.2961C72.9057 81.4475 72.4721 82.1038 72.6417 83.0657L73.4272 87.5202L70.5266 88.0317L69.0627 79.7295L71.9633 79.218L72.172 80.4019C72.5351 79.6055 73.3117 78.9039 74.4809 78.6978C76.4047 78.3586 77.8435 79.5087 78.2271 81.6841L79.0804 86.5234L76.1798 87.0349Z" fill="url(#paint1_linear_1894_21760)"/>
<path d="M37.3981 83.1155L37.3224 82.686L36.8929 82.7617L36.9686 83.1912L37.3981 83.1155ZM40.2987 82.604L40.7282 82.5283L40.6525 82.0988L40.223 82.1745L40.2987 82.604ZM41.747 90.8174L41.3175 90.8932L41.3932 91.3227L41.8227 91.2469L41.747 90.8174ZM44.9879 90.246L45.4174 90.1702L45.3417 89.7407L44.9122 89.8165L44.9879 90.246ZM45.3794 92.4658L45.4551 92.8953L45.8846 92.8196L45.8089 92.3901L45.3794 92.4658ZM39.2378 93.5487L38.8083 93.6245L38.884 94.054L39.3135 93.9782L39.2378 93.5487ZM37.3981 83.1155L37.4739 83.545L40.3745 83.0335L40.2987 82.604L40.223 82.1745L37.3224 82.686L37.3981 83.1155ZM40.2987 82.604L39.8692 82.6797L41.3175 90.8932L41.747 90.8174L42.1765 90.7417L40.7282 82.5283L40.2987 82.604ZM41.747 90.8174L41.8227 91.2469L45.0637 90.6755L44.9879 90.246L44.9122 89.8165L41.6712 90.3879L41.747 90.8174ZM44.9879 90.246L44.5584 90.3217L44.9499 92.5415L45.3794 92.4658L45.8089 92.3901L45.4174 90.1702L44.9879 90.246ZM45.3794 92.4658L45.3036 92.0363L39.1621 93.1192L39.2378 93.5487L39.3135 93.9782L45.4551 92.8953L45.3794 92.4658ZM39.2378 93.5487L39.6673 93.473L37.8276 83.0397L37.3981 83.1155L36.9686 83.1912L38.8083 93.6245L39.2378 93.5487ZM54.0022 86.6576L53.5727 86.7333C53.7872 87.95 53.5223 88.9747 52.9479 89.7421C52.3705 90.5135 51.4548 91.0585 50.3123 91.26L50.388 91.6895L50.4637 92.119C51.7926 91.8846 52.9175 91.2382 53.6462 90.2648C54.3777 89.2875 54.6842 88.0141 54.4317 86.5818L54.0022 86.6576ZM50.388 91.6895L50.3123 91.26C49.1699 91.4614 48.1314 91.2612 47.333 90.7336C46.5382 90.2085 45.9448 89.335 45.7299 88.1162L45.3004 88.1919L44.8709 88.2677C45.1231 89.6979 45.8377 90.7911 46.8521 91.4614C47.8629 92.1293 49.1346 92.3533 50.4637 92.119L50.388 91.6895ZM45.3004 88.1919L45.7299 88.1162C45.5166 86.9065 45.7786 85.8861 46.3498 85.1212C46.9238 84.3527 47.8356 83.8084 48.9781 83.607L48.9024 83.1775L48.8266 82.748C47.4977 82.9823 46.3762 83.6282 45.651 84.5993C44.9229 85.5742 44.6197 86.8431 44.8709 88.2677L45.3004 88.1919ZM48.9024 83.1775L48.9781 83.607C50.1206 83.4055 51.1635 83.6051 51.9658 84.131C52.7641 84.6544 53.3594 85.5236 53.5727 86.7333L54.0022 86.6576L54.4317 86.5818C54.1805 85.1573 53.4616 84.0686 52.444 83.4015C51.4303 82.737 50.1556 82.5136 48.8266 82.748L48.9024 83.1775ZM48.2602 87.67L47.8307 87.7458C47.9489 88.4163 48.2197 88.9334 48.6244 89.2605C49.0345 89.5919 49.5342 89.6888 50.0201 89.6031L49.9444 89.1736L49.8687 88.7441C49.5998 88.7915 49.3631 88.736 49.1726 88.5821C48.9767 88.4237 48.7828 88.1225 48.6897 87.5943L48.2602 87.67ZM49.9444 89.1736L50.0201 89.6031C50.4983 89.5188 50.9411 89.2564 51.2254 88.8101C51.509 88.3648 51.6067 87.7817 51.4867 87.1011L51.0572 87.1769L50.6277 87.2526C50.719 87.7708 50.6303 88.1207 50.4897 88.3415C50.3496 88.5614 50.1305 88.698 49.8687 88.7441L49.9444 89.1736ZM51.0572 87.1769L51.4867 87.1011C51.3682 86.4291 51.082 85.9178 50.6676 85.5972C50.2517 85.2755 49.7488 85.1794 49.2702 85.2638L49.346 85.6933L49.4217 86.1228C49.683 86.0767 49.9314 86.1304 50.1339 86.2871C50.338 86.445 50.5374 86.7407 50.6277 87.2526L51.0572 87.1769ZM49.346 85.6933L49.2702 85.2638C48.7909 85.3483 48.3539 85.6107 48.0769 86.0564C47.8016 86.4992 47.7126 87.0763 47.8307 87.7458L48.2602 87.67L48.6897 87.5943C48.599 87.0799 48.6829 86.7338 48.8177 86.5168C48.9508 86.3028 49.161 86.1687 49.4217 86.1228L49.346 85.6933ZM60.1604 82.4894L59.8268 82.7704L60.8714 84.0102L60.5899 82.4137L60.1604 82.4894ZM59.9568 81.3351L59.8811 80.9056L59.4516 80.9813L59.5273 81.4108L59.9568 81.3351ZM62.8574 80.8236L63.2869 80.7479L63.2112 80.3184L62.7817 80.3941L62.8574 80.8236ZM55.851 91.3671L55.7753 90.9376L55.3003 91.0213L55.4312 91.4855L55.851 91.3671ZM58.7072 90.8634L59.11 90.6963L58.976 90.3732L58.6315 90.4339L58.7072 90.8634ZM61.2172 88.483L61.6467 88.4072L61.3652 86.8107L60.8077 88.333L61.2172 88.483ZM54.7087 86.533L55.1382 86.4573C54.9195 85.217 55.1174 84.197 55.5628 83.4598C56.0062 82.7257 56.7107 82.2435 57.5725 82.0915L57.4967 81.662L57.421 81.2325C56.3145 81.4276 55.3915 82.0564 54.8161 83.0088C54.2427 83.958 54.0308 85.2 54.2792 86.6087L54.7087 86.533ZM57.4967 81.662L57.5725 82.0915C58.6067 81.9092 59.3788 82.2386 59.8268 82.7704L60.1604 82.4894L60.4939 82.2084C59.8226 81.4116 58.725 81.0026 57.421 81.2325L57.4967 81.662ZM60.1604 82.4894L60.5899 82.4137L60.3863 81.2593L59.9568 81.3351L59.5273 81.4108L59.7309 82.5651L60.1604 82.4894ZM59.9568 81.3351L60.0326 81.7646L62.9331 81.2531L62.8574 80.8236L62.7817 80.3941L59.8811 80.9056L59.9568 81.3351ZM62.8574 80.8236L62.4279 80.8993L63.8762 89.1128L64.3057 89.037L64.7352 88.9613L63.2869 80.7479L62.8574 80.8236ZM64.3057 89.037L63.8762 89.1128C64.059 90.1496 63.9397 91.1309 63.468 91.9013C63.0028 92.661 62.1582 93.2759 60.7629 93.5219L60.8386 93.9514L60.9144 94.3809C62.5085 94.0998 63.593 93.3675 64.2119 92.3567C64.8242 91.3566 64.9438 90.1443 64.7352 88.9613L64.3057 89.037ZM60.8386 93.9514L60.7629 93.5219C59.5374 93.738 58.5366 93.5969 57.7912 93.2027C57.053 92.8122 56.5259 92.1534 56.2707 91.2487L55.851 91.3671L55.4312 91.4855C55.746 92.6012 56.4178 93.463 57.3834 93.9737C58.3419 94.4807 59.5501 94.6215 60.9144 94.3809L60.8386 93.9514ZM55.851 91.3671L55.9267 91.7966L58.7829 91.2929L58.7072 90.8634L58.6315 90.4339L55.7753 90.9376L55.851 91.3671ZM58.7072 90.8634L58.3043 91.0305C58.6271 91.8085 59.4479 92.0455 60.2932 91.8964L60.2174 91.4669L60.1417 91.0374C59.5071 91.1493 59.212 90.9421 59.11 90.6963L58.7072 90.8634ZM60.2174 91.4669L60.2932 91.8964C60.757 91.8146 61.2354 91.6223 61.5516 91.1969C61.8715 90.7665 61.9604 90.1863 61.8346 89.4727L61.4051 89.5485L60.9756 89.6242C61.0768 90.1982 60.9788 90.5054 60.8516 90.6765C60.7208 90.8525 60.4918 90.9757 60.1417 91.0374L60.2174 91.4669ZM61.4051 89.5485L61.8346 89.4727L61.6467 88.4072L61.2172 88.483L60.7877 88.5587L60.9756 89.6242L61.4051 89.5485ZM61.2172 88.483L60.8077 88.333C60.5685 88.9859 59.9557 89.5596 58.9214 89.7419L58.9972 90.1714L59.0729 90.6009C60.3769 90.371 61.2684 89.6112 61.6267 88.6329L61.2172 88.483ZM58.9972 90.1714L58.9214 89.7419C58.0609 89.8937 57.2335 89.6788 56.5645 89.1368C55.8926 88.5926 55.3569 87.6976 55.1382 86.4573L54.7087 86.533L54.2792 86.6087C54.5276 88.0174 55.152 89.1152 56.0155 89.8146C56.8819 90.5164 57.9651 90.7963 59.0729 90.6009L58.9972 90.1714ZM60.6875 85.4788L61.117 85.403C61.003 84.7565 60.7033 84.2515 60.2726 83.9329C59.8426 83.6147 59.3155 83.5078 58.7995 83.5988L58.8753 84.0283L58.951 84.4578C59.249 84.4052 59.5301 84.4686 59.7538 84.6341C59.9768 84.7991 60.1763 85.0911 60.258 85.5545L60.6875 85.4788ZM58.8753 84.0283L58.7995 83.5988C58.2807 83.6902 57.8191 83.9646 57.523 84.412C57.2271 84.8593 57.1244 85.4367 57.239 86.0868L57.6685 86.0111L58.098 85.9354C58.0143 85.4608 58.1006 85.1198 58.2504 84.8934C58.4002 84.6671 58.6411 84.5124 58.951 84.4578L58.8753 84.0283ZM57.6685 86.0111L57.239 86.0868C57.3525 86.7306 57.6473 87.2394 58.0757 87.5628C58.5048 87.8868 59.034 87.9985 59.559 87.9059L59.4833 87.4764L59.4075 87.0469C59.1038 87.1005 58.8235 87.0345 58.6013 86.8667C58.3784 86.6985 58.1802 86.4015 58.098 85.9354L57.6685 86.0111ZM59.4833 87.4764L59.559 87.9059C60.0751 87.8149 60.5344 87.5339 60.8294 87.0851C61.1247 86.636 61.232 86.0555 61.117 85.403L60.6875 85.4788L60.258 85.5545C60.3412 86.0268 60.2535 86.3733 60.1005 86.606C59.9474 86.839 59.7054 86.9944 59.4075 87.0469L59.4833 87.4764ZM65.9742 88.8344L65.5447 88.9101L65.6204 89.3396L66.0499 89.2639L65.9742 88.8344ZM64.5103 80.5322L64.4345 80.1027L64.005 80.1784L64.0808 80.6079L64.5103 80.5322ZM67.4109 80.0207L67.8404 79.945L67.7646 79.5155L67.3351 79.5912L67.4109 80.0207ZM68.8748 88.3229L68.9505 88.7524L69.38 88.6767L69.3043 88.2472L68.8748 88.3229ZM65.9742 88.8344L66.4037 88.7586L64.9398 80.4564L64.5103 80.5322L64.0808 80.6079L65.5447 88.9101L65.9742 88.8344ZM64.5103 80.5322L64.586 80.9617L67.4866 80.4502L67.4109 80.0207L67.3351 79.5912L64.4345 80.1027L64.5103 80.5322ZM67.4109 80.0207L66.9814 80.0964L68.4453 88.3987L68.8748 88.3229L69.3043 88.2472L67.8404 79.945L67.4109 80.0207ZM68.8748 88.3229L68.799 87.8934L65.8984 88.4049L65.9742 88.8344L66.0499 89.2639L68.9505 88.7524L68.8748 88.3229ZM65.8397 79.5043L65.7639 79.0748C64.9215 79.2233 64.4034 78.7988 64.3064 78.2487L63.8769 78.3245L63.4474 78.4002C63.6426 79.5076 64.686 80.1506 65.9154 79.9338L65.8397 79.5043ZM63.8769 78.3245L64.3064 78.2487C64.2054 77.676 64.5546 77.0914 65.3883 76.9444L65.3126 76.5149L65.2368 76.0854C63.9987 76.3037 63.2509 77.2859 63.4474 78.4002L63.8769 78.3245ZM65.3126 76.5149L65.3883 76.9444C66.2046 76.8005 66.7349 77.2274 66.8363 77.8026L67.2658 77.7269L67.6953 77.6512C67.4993 76.5393 66.4628 75.8692 65.2368 76.0854L65.3126 76.5149ZM67.2658 77.7269L66.8363 77.8026C66.9337 78.3551 66.5889 78.9293 65.7639 79.0748L65.8397 79.5043L65.9154 79.9338C67.1327 79.7191 67.8902 78.7562 67.6953 77.6512L67.2658 77.7269ZM76.1798 87.0349L75.7503 87.1106L75.826 87.5401L76.2555 87.4644L76.1798 87.0349ZM73.4272 87.5202L73.5029 87.9497L73.9324 87.874L73.8567 87.4445L73.4272 87.5202ZM70.5266 88.0317L70.0971 88.1074L70.1728 88.5369L70.6023 88.4612L70.5266 88.0317ZM69.0627 79.7295L68.987 79.3L68.5575 79.3757L68.6332 79.8052L69.0627 79.7295ZM71.9633 79.218L72.3928 79.1423L72.317 78.7128L71.8875 78.7885L71.9633 79.218ZM72.172 80.4019L71.7425 80.4777L71.9864 81.8605L72.5689 80.5828L72.172 80.4019ZM79.0804 86.5234L79.1561 86.9529L79.5856 86.8772L79.5099 86.4477L79.0804 86.5234ZM76.1798 87.0349L76.6093 86.9591L75.8238 82.5046L75.3943 82.5804L74.9648 82.6561L75.7503 87.1106L76.1798 87.0349ZM75.3943 82.5804L75.8238 82.5046C75.7255 81.9466 75.4831 81.4798 75.0935 81.178C74.6987 80.8722 74.2042 80.7757 73.6883 80.8666L73.7641 81.2961L73.8398 81.7256C74.1527 81.6705 74.3885 81.7352 74.5593 81.8675C74.7352 82.0038 74.8936 82.2522 74.9648 82.6561L75.3943 82.5804ZM73.7641 81.2961L73.6883 80.8666C73.162 80.9595 72.7221 81.2178 72.4503 81.6415C72.1817 82.0603 72.1139 82.5835 72.2122 83.1415L72.6417 83.0657L73.0712 82.99C73 82.5861 73.0642 82.3001 73.1845 82.1124C73.3017 81.9297 73.5078 81.7842 73.8398 81.7256L73.7641 81.2961ZM72.6417 83.0657L72.2122 83.1415L72.9977 87.5959L73.4272 87.5202L73.8567 87.4445L73.0712 82.99L72.6417 83.0657ZM73.4272 87.5202L73.3515 87.0907L70.4509 87.6022L70.5266 88.0317L70.6023 88.4612L73.5029 87.9497L73.4272 87.5202ZM70.5266 88.0317L70.9561 87.9559L69.4922 79.6537L69.0627 79.7295L68.6332 79.8052L70.0971 88.1074L70.5266 88.0317ZM69.0627 79.7295L69.1384 80.159L72.039 79.6475L71.9633 79.218L71.8875 78.7885L68.987 79.3L69.0627 79.7295ZM71.9633 79.218L71.5338 79.2937L71.7425 80.4777L72.172 80.4019L72.6015 80.3262L72.3928 79.1423L71.9633 79.218ZM72.172 80.4019L72.5689 80.5828C72.8733 79.915 73.5311 79.3081 74.5566 79.1273L74.4809 78.6978L74.4051 78.2683C73.0924 78.4998 72.197 79.2959 71.7752 80.221L72.172 80.4019ZM74.4809 78.6978L74.5566 79.1273C75.4111 78.9766 76.1212 79.1594 76.6596 79.5889C77.2045 80.0236 77.6192 80.7483 77.7976 81.7599L78.2271 81.6841L78.6566 81.6084C78.4514 80.4446 77.9549 79.5064 77.2036 78.907C76.4457 78.3024 75.4745 78.0797 74.4051 78.2683L74.4809 78.6978ZM78.2271 81.6841L77.7976 81.7599L78.6509 86.5991L79.0804 86.5234L79.5099 86.4477L78.6566 81.6084L78.2271 81.6841ZM79.0804 86.5234L79.0047 86.0939L76.1041 86.6054L76.1798 87.0349L76.2555 87.4644L79.1561 86.9529L79.0804 86.5234Z" fill="white" fill-opacity="0.8" mask="url(#path-3-inside-1_1894_21760)"/>
<path d="M102.612 64.0583C102.531 63.6016 102.823 63.1681 103.263 63.0904C103.703 63.0128 104.126 63.3203 104.206 63.7771L106.652 77.6439C106.727 78.0729 106.441 78.482 106.012 78.5576L93.7309 80.7231C93.3019 80.7987 93.0155 81.2078 93.0911 81.6368L93.4087 83.4376C93.5151 84.0411 92.9227 84.5301 92.3502 84.3113L86.0659 81.9087C85.5092 81.6959 85.3806 80.9664 85.8309 80.576L90.9145 76.1689C91.3776 75.7675 92.1015 76.0244 92.2079 76.628L92.5255 78.4287C92.6011 78.8577 93.0102 79.1442 93.4392 79.0685L104.125 77.1843C104.554 77.1086 104.841 76.6995 104.765 76.2706L102.612 64.0583Z" fill="url(#paint2_linear_1894_21760)"/>
<g filter="url(#filter0_f_1894_21760)">
<ellipse cx="71.5" cy="125.499" rx="51.5" ry="8.5" fill="#AFAFAF" fill-opacity="0.3"/>
</g>
<defs>
<filter id="filter0_f_1894_21760" x="0" y="96.999" width="143" height="57" filterUnits="userSpaceOnUse" color-interpolation-filters="sRGB">
<feFlood flood-opacity="0" result="BackgroundImageFix"/>
<feBlend mode="normal" in="SourceGraphic" in2="BackgroundImageFix" result="shape"/>
<feGaussianBlur stdDeviation="10" result="effect1_foregroundBlur_1894_21760"/>
</filter>
<linearGradient id="paint0_linear_1894_21760" x1="69.6358" y1="14.9779" x2="130.826" y2="30.5489" gradientUnits="userSpaceOnUse">
<stop stop-color="#FF6F5C"/>
<stop offset="1" stop-color="#FF5546"/>
</linearGradient>
<linearGradient id="paint1_linear_1894_21760" x1="40.5064" y1="83.3511" x2="79.4688" y2="107.352" gradientUnits="userSpaceOnUse">
<stop stop-color="white"/>
<stop offset="1" stop-color="white" stop-opacity="0.7"/>
</linearGradient>
<linearGradient id="paint2_linear_1894_21760" x1="77.0521" y1="73.5898" x2="105.157" y2="85.7972" gradientUnits="userSpaceOnUse">
<stop stop-color="white"/>
<stop offset="1" stop-color="white" stop-opacity="0.7"/>
</linearGradient>
</defs>
</svg>
