<svg width="24" height="24" viewBox="0 0 24 24" fill="none" xmlns="http://www.w3.org/2000/svg">
<path d="M19.8638 9.67131C20.4435 9.7264 20.9818 9.99564 21.3736 10.4264C21.7653 10.8572 21.9824 11.4185 21.9824 12.0008C21.9824 12.5831 21.7653 13.1444 21.3736 13.5752C20.9818 14.006 20.4435 14.2752 19.8638 14.3303C19.4894 14.3634 19.1284 14.4863 18.8115 14.6884C18.4946 14.8906 18.231 15.1662 18.0432 15.4918C17.8553 15.8174 17.7486 16.1834 17.7322 16.559C17.7158 16.9346 17.7901 17.3085 17.9488 17.6493C18.1891 18.1784 18.2238 18.778 18.0464 19.3313C17.8689 19.8846 17.4919 20.3521 16.9887 20.6428C16.4856 20.9335 15.8923 21.0266 15.3243 20.9039C14.7563 20.7813 14.2542 20.4517 13.9158 19.9793C13.7 19.6717 13.4132 19.4206 13.0798 19.2472C12.7464 19.0739 12.3761 18.9834 12.0003 18.9834C11.6246 18.9834 11.2543 19.0739 10.9209 19.2472C10.5875 19.4206 10.3007 19.6717 10.0848 19.9793C9.74646 20.4517 9.24442 20.7813 8.67642 20.9039C8.10842 21.0266 7.51511 20.9335 7.01195 20.6428C6.5088 20.3521 6.1318 19.8846 5.95433 19.3313C5.77687 18.778 5.81163 18.1784 6.05185 17.6493C6.21058 17.3085 6.28489 16.9346 6.26847 16.559C6.25205 16.1834 6.1454 15.8174 5.95753 15.4918C5.76966 15.1662 5.50611 14.8906 5.18919 14.6884C4.87227 14.4863 4.5113 14.3634 4.13685 14.3303C3.55719 14.2752 3.01889 14.006 2.62713 13.5752C2.23536 13.1444 2.01828 12.5831 2.01828 12.0008C2.01828 11.4185 2.23536 10.8572 2.62713 10.4264C3.01889 9.99564 3.55719 9.7264 4.13685 9.6713C4.51144 9.63825 4.87254 9.5154 5.18958 9.31317C5.50661 9.11094 5.77024 8.83528 5.95813 8.50954C6.14602 8.1838 6.25263 7.81757 6.26895 7.44188C6.28526 7.06619 6.21079 6.69211 6.05185 6.3513C5.81163 5.82219 5.77687 5.22263 5.95434 4.6693C6.1318 4.11598 6.5088 3.64848 7.01195 3.35779C7.51511 3.0671 8.10842 2.97402 8.67642 3.09666C9.24442 3.21931 9.74647 3.54891 10.0848 4.0213C10.3007 4.32892 10.5875 4.58004 10.9209 4.75339C11.2543 4.92675 11.6246 5.01726 12.0003 5.01726C12.3761 5.01726 12.7464 4.92675 13.0798 4.75339C13.4132 4.58004 13.7 4.32893 13.9158 4.02131C14.2544 3.54957 14.7563 3.22056 15.3239 3.09821C15.8915 2.97586 16.4843 3.06891 16.9871 3.35929C17.49 3.64967 17.8669 4.11662 18.0446 4.6694C18.2223 5.22217 18.1882 5.82129 17.9488 6.35031C17.7901 6.69106 17.7158 7.06505 17.7322 7.44061C17.7486 7.81616 17.8553 8.18224 18.0432 8.50784C18.231 8.83345 18.4946 9.109 18.8115 9.31117C19.1284 9.51334 19.4894 9.63619 19.8638 9.66931M11.9998 15.0003C10.343 15.0003 8.99985 13.6572 8.99985 12.0003C8.99985 10.3435 10.343 9.0003 11.9998 9.0003C13.6567 9.0003 14.9998 10.3435 14.9998 12.0003C14.9998 13.6572 13.6567 15.0003 11.9998 15.0003Z" stroke="black" stroke-width="1.5" stroke-linecap="round" stroke-linejoin="round"/>
</svg>
