<svg width="85" height="56" viewBox="0 0 85 56" fill="none" xmlns="http://www.w3.org/2000/svg">
<path d="M46.3154 39.5038C53.9939 36.9004 65.9336 35.9766 73.7665 37.0453C77.4169 37.5434 82.1222 38.9014 84.0809 42.8682C86.1313 47.0209 84.4809 51.9725 81.1875 56L74.319 51.0863C75.4721 49.6761 75.9648 48.5618 76.1608 47.7582C76.3961 46.793 75.7953 45.851 74.7936 45.5312C74.2505 45.3578 73.513 45.1843 72.5185 45.0486C66.5526 44.2346 56.1102 44.7857 49.2622 47.1076L46.3154 39.5038Z" fill="black"/>
<path d="M13.7883 0.818819C21.766 -0.235915 29.0409 -0.104199 34.3122 0.287128C36.9529 0.483198 38.8789 0.741637 40.3838 0.95725C41.1363 1.06507 41.7286 1.16122 42.1394 1.23203C42.3445 1.2674 42.5054 1.29674 42.6181 1.31767C42.6741 1.32809 42.7192 1.33643 42.7514 1.34261C42.767 1.34562 42.7802 1.34818 42.7901 1.3501C42.7949 1.35105 42.7996 1.35233 42.803 1.35301L42.8096 1.35425C42.8087 1.362 42.774 1.51799 42.0549 4.68574C41.3427 7.82372 41.3021 8.00617 41.3003 8.01682C41.2976 8.0163 41.292 8.0153 41.2847 8.01391C41.268 8.0107 41.2391 8.0055 41.1994 7.99811C41.1187 7.98313 40.991 7.95944 40.8198 7.92993C40.4768 7.87082 39.9569 7.78607 39.2811 7.68924C37.9283 7.49541 36.1794 7.25789 33.7362 7.07648C28.838 6.71285 22.1194 6.59573 14.8074 7.56245C13.6489 7.71563 12.6263 7.86524 11.7265 8.00933V9.79065H41.7647V16.6016H11.7265V18.3044H41.7647V25.1153H29.021V26.8185H42.6745V35.3322H3.5344V26.8185H17.1879V25.1153H4.44508L4.44463 11.1741C3.94338 11.1839 3.59412 11.1047 3.58329 11.1022L3.57929 11.1014C3.5767 11.1006 3.57363 11.0997 3.57084 11.0989C3.56507 11.0972 3.5583 11.095 3.55173 11.0931C3.53848 11.0891 3.52322 11.0844 3.50684 11.0793C3.47376 11.0691 3.43375 11.0565 3.38862 11.0415C3.29902 11.0118 3.18193 10.9707 3.04817 10.9185C2.80395 10.8231 2.39769 10.6496 1.97304 10.3797C1.62045 10.1556 0.827223 9.60223 0.35524 8.6117C-0.261486 7.31707 -0.0441837 5.90347 0.767246 4.82209C1.40339 3.97478 2.2813 3.4824 2.89839 3.19293C3.58589 2.87054 4.40424 2.59415 5.33087 2.34364C7.19063 1.84093 9.89844 1.33314 13.7883 0.818819Z" fill="black"/>
<path d="M84.0902 15.3246H54.9627V18.3044H84.0902V25.1153H71.8016V26.8185H85V35.3322H46.7701V26.8185H59.9685V25.1153H47.6808V8.51359H84.0902V15.3246Z" fill="black"/>
</svg>
