<svg width="38" height="38" viewBox="0 0 38 38" fill="none" xmlns="http://www.w3.org/2000/svg">
<path d="M12.8538 35.7834C8.82261 36.4942 4.97846 33.8025 4.26766 29.7713L1.28498 12.8557C0.574169 8.8245 3.26587 4.98034 7.29706 4.26954L24.2127 1.28686C28.2439 0.576049 32.088 3.26775 32.7988 7.29894L35.7815 24.2146C36.4923 28.2457 33.8006 32.0899 29.7694 32.8007L12.8538 35.7834Z" fill="#E23A2B"/>
<path d="M14.4231 30.6723C11.6588 31.1597 9.02284 29.3139 8.53543 26.5497L6.39707 14.4224C5.90966 11.6582 7.7554 9.0222 10.5196 8.53479L22.6469 6.39643C25.4111 5.90902 28.0471 7.75476 28.5345 10.519L30.6729 22.6462C31.1603 25.4105 29.3146 28.0465 26.5503 28.5339L14.4231 30.6723Z" fill="url(#paint0_linear_1766_22823)"/>
<path d="M12.125 14.0548L24.7118 22.869" stroke="white" stroke-width="1.5" stroke-linecap="round"/>
<path d="M22.8242 12.1583L14.01 24.7451" stroke="white" stroke-width="1.5" stroke-linecap="round"/>
<defs>
<linearGradient id="paint0_linear_1766_22823" x1="14.287" y1="27.8815" x2="23.7549" y2="-5.09007" gradientUnits="userSpaceOnUse">
<stop stop-color="#FF6F5C"/>
<stop offset="1" stop-color="#FF5546"/>
</linearGradient>
</defs>
</svg>
