<svg width="38" height="55" viewBox="0 0 38 55" fill="none" xmlns="http://www.w3.org/2000/svg">
<path d="M19 0.5C29.2328 0.5 37.5 8.86728 37.5 19.2002C37.5 22.7127 36.3447 26.6053 34.6445 30.4424C32.9415 34.2859 30.6753 38.1103 28.416 41.4961C26.1557 44.8834 23.896 47.8409 22.2021 49.9512C21.3551 51.0064 20.6492 51.8508 20.1543 52.4316C19.9068 52.7221 19.7122 52.9472 19.5791 53.0996C19.5128 53.1755 19.4614 53.2332 19.4268 53.2725C19.4094 53.2921 19.3957 53.3073 19.3867 53.3174C19.3823 53.3224 19.3793 53.3265 19.377 53.3291L19.373 53.333L19 53.751L18.627 53.333L18.623 53.3291C18.6207 53.3265 18.6177 53.3224 18.6133 53.3174C18.6043 53.3073 18.5906 53.2921 18.5732 53.2725C18.5386 53.2332 18.4872 53.1755 18.4209 53.0996C18.2878 52.9472 18.0932 52.7221 17.8457 52.4316C17.3508 51.8508 16.6449 51.0064 15.7979 49.9512C14.104 47.8409 11.8443 44.8834 9.58398 41.4961C7.32469 38.1103 5.05846 34.2859 3.35547 30.4424C1.65534 26.6053 0.500043 22.7127 0.5 19.2002C0.5 8.86728 8.76724 0.5 19 0.5ZM19 13.2002C15.7328 13.2002 13.0713 15.8831 13.0713 19.2002C13.0714 22.5172 15.7328 25.2002 19 25.2002C22.2672 25.2002 24.9286 22.5172 24.9287 19.2002C24.9287 15.8831 22.2672 13.2002 19 13.2002Z" fill="currentColor" stroke="white"/>
</svg>
