<svg width="24" height="24" viewBox="0 0 24 24" fill="none" xmlns="http://www.w3.org/2000/svg">
<path d="M11.7598 2.24891C11.7936 1.91703 12.2064 1.91703 12.2402 2.24891L12.5233 5.03314C12.889 8.62832 15.3186 11.4629 18.4001 11.8894L20.7866 12.2198C21.0711 12.2592 21.0711 12.7408 20.7866 12.7802L18.4001 13.1106C15.3186 13.5372 12.889 16.3717 12.5233 19.9668L12.2402 22.7511C12.2064 23.083 11.7936 23.083 11.7598 22.7511L11.4767 19.9668C11.111 16.3717 8.68142 13.5372 5.59983 13.1106L3.21336 12.7802C2.92888 12.7408 2.92888 12.2592 3.21336 12.2198L5.59983 11.8894C8.68142 11.4629 11.111 8.62832 11.4767 5.03314L11.7598 2.24891Z" fill="url(#paint0_linear_2098_4463)" fill-opacity="0.7"/>
<path d="M12.2744 5.05859C12.6492 8.74275 15.1468 11.6911 18.3662 12.1367L20.7422 12.4658C20.745 12.4721 20.75 12.4833 20.75 12.5C20.75 12.516 20.7449 12.5268 20.7422 12.5332L18.3662 12.8633C15.1468 13.3089 12.6491 16.2573 12.2744 19.9414L12 22.6387L11.7256 19.9414C11.3509 16.2573 8.85324 13.3089 5.63379 12.8633L3.25684 12.5332C3.25412 12.5267 3.25 12.5157 3.25 12.5C3.25 12.4836 3.25406 12.4722 3.25684 12.4658L5.63379 12.1367C8.85323 11.6911 11.3508 8.74275 11.7256 5.05859L12 2.36035L12.2744 5.05859Z" stroke="black" stroke-opacity="0.08" stroke-width="0.5"/>
<defs>
<linearGradient id="paint0_linear_2098_4463" x1="15" y1="9.5" x2="8.85538" y2="16.8796" gradientUnits="userSpaceOnUse">
<stop offset="0.0144231" stop-color="#FF5546"/>
<stop offset="0.5" stop-color="#9747FF"/>
<stop offset="1" stop-color="#FF5546"/>
</linearGradient>
</defs>
</svg>
