<svg width="24" height="24" viewBox="0 0 24 24" fill="none" xmlns="http://www.w3.org/2000/svg">
<path d="M11.5186 3.00001C11.9127 3.00089 11.8363 3.49559 11.6594 3.99353C11.4275 4.6465 10.7702 5.00372 10.0937 5.15362C8.8944 5.41935 7.78459 6.02214 6.90242 6.9043C5.68369 8.12325 4.9991 9.77629 4.9991 11.5C4.9991 13.2239 5.68344 14.8777 6.90242 16.0967C8.1214 17.3156 9.77523 18 11.4991 18C13.2228 18 14.8759 17.3154 16.0948 16.0967C17.0546 15.1369 17.6824 13.9075 17.906 12.5866C17.9911 12.0837 18.3737 11.6623 18.8812 11.6116L19.085 11.5912C19.5739 11.5424 20.0032 11.9275 19.9503 12.416C19.7783 14.0025 19.1628 15.5084 18.1749 16.7617L21.8272 20.4141C22.0092 20.6026 22.1097 20.8552 22.1075 21.1172C22.1052 21.3794 21.9999 21.63 21.8145 21.8154C21.6291 22.0008 21.3785 22.1061 21.1163 22.1084C20.8542 22.1107 20.6017 22.0102 20.4132 21.8281L16.7608 18.1758C15.6964 19.0147 14.4468 19.587 13.1163 19.8447C11.7856 20.1025 10.4122 20.0381 9.11141 19.6572C7.81066 19.2764 6.61933 18.5899 5.63777 17.6553C4.6564 16.7207 3.91279 15.5646 3.46883 14.2842C3.02489 13.0037 2.89373 11.6355 3.08602 10.294C3.27833 8.95231 3.78847 7.67559 4.5743 6.5713C5.36012 5.46713 6.39912 4.56658 7.60359 3.94532C8.80808 3.32415 10.1439 3.00012 11.4991 3.00001C11.5056 3.00001 11.5121 2.99999 11.5186 3.00001Z" fill="#404040"/>
<path d="M15.0122 1.14224C15.0347 0.952588 15.3099 0.952588 15.3324 1.14224L15.5212 2.73322C15.765 4.78761 17.2101 7.05845 19.2645 7.30221L20.8555 7.49098C21.0452 7.51351 21.0452 7.7887 20.8555 7.81122L19.2645 8C17.2101 8.24376 15.7873 9.94563 15.5436 12L15.3548 13.591C15.3323 13.7807 15.0571 13.7807 15.0346 13.591L14.8458 12C14.602 9.94563 12.7854 8.24376 10.731 8L9.71255 7.81122C9.5229 7.7887 9.5229 7.51351 9.71255 7.49098L10.731 7.30221C12.7854 7.05845 14.5797 4.78761 14.8234 2.73322L15.0122 1.14224Z" fill="#404040"/>
</svg>
