<svg width="143" height="115" viewBox="0 0 143 115" fill="none" xmlns="http://www.w3.org/2000/svg">
<rect x="6" y="92.1304" width="70.1305" height="130.953" rx="15.5156" transform="rotate(-90 6 92.1304)" fill="#E0E0E0"/>
<rect x="6.5" y="91.6304" width="69.1305" height="129.953" rx="15.0156" transform="rotate(-90 6.5 91.6304)" stroke="url(#paint0_linear_1313_16223)" stroke-opacity="0.5"/>
<rect x="15.4922" y="82.73" width="51.3307" height="111.508" rx="8" transform="rotate(-90 15.4922 82.73)" fill="url(#paint1_linear_1313_16223)"/>
<rect x="15.9922" y="82.23" width="50.3307" height="110.508" rx="7.5" transform="rotate(-90 15.9922 82.23)" stroke="url(#paint2_linear_1313_16223)" stroke-opacity="0.5"/>
<mask id="path-6-inside-1_1313_16223" fill="white">
<path d="M25.9962 42.1723C25.9962 43.2313 25.1763 44.0598 23.7501 44.0598C22.4092 44.0598 21.3672 43.4192 21.2989 42.1296H23.0839C23.1181 42.5823 23.3828 42.736 23.6903 42.736C23.9892 42.736 24.2198 42.5823 24.2198 42.3004C24.2113 41.3353 21.2904 41.788 21.316 39.6956C21.316 38.517 22.2982 37.885 23.5707 37.885C24.9543 37.885 25.8596 38.5597 25.9194 39.7553H24.1002C24.0831 39.3796 23.8525 39.2087 23.5451 39.2087C23.2974 39.2002 23.101 39.3454 23.101 39.6358C23.101 40.5325 25.9962 40.2422 25.9962 42.1723ZM26.7744 44V37.68H28.4484V39.892C28.7302 39.482 29.2341 39.166 29.9259 39.166C31.0191 39.166 31.7109 39.9518 31.7109 41.2072V44H30.0369V41.4293C30.0369 40.8742 29.7295 40.5496 29.2512 40.5496C28.7558 40.5496 28.4484 40.8742 28.4484 41.4293V44H26.7744ZM32.6294 44V39.2087H34.3033V44H32.6294ZM33.4749 38.7646C32.877 38.7646 32.4927 38.3889 32.4927 37.9106C32.4927 37.4238 32.877 37.0394 33.4749 37.0394C34.0642 37.0394 34.4485 37.4238 34.4485 37.9106C34.4485 38.3889 34.0642 38.7646 33.4749 38.7646ZM35.4103 44V40.6009H34.8894V39.2087H35.4103V39.166C35.4103 37.8423 36.2729 37.159 37.8273 37.27V38.6963C37.3234 38.6451 37.1184 38.7817 37.0928 39.2087H37.8444V40.6009H37.0928V44H35.4103ZM38.7074 42.1809V40.6009H38.1181V39.2087H38.7074V38.0472H40.3899V39.2087H41.261V40.6009H40.3899V42.2065C40.3899 42.4627 40.5009 42.5737 40.7827 42.5737H41.2695V44H40.5436C39.4846 44 38.7074 43.5559 38.7074 42.1809Z"/>
</mask>
<path d="M25.9962 42.1723C25.9962 43.2313 25.1763 44.0598 23.7501 44.0598C22.4092 44.0598 21.3672 43.4192 21.2989 42.1296H23.0839C23.1181 42.5823 23.3828 42.736 23.6903 42.736C23.9892 42.736 24.2198 42.5823 24.2198 42.3004C24.2113 41.3353 21.2904 41.788 21.316 39.6956C21.316 38.517 22.2982 37.885 23.5707 37.885C24.9543 37.885 25.8596 38.5597 25.9194 39.7553H24.1002C24.0831 39.3796 23.8525 39.2087 23.5451 39.2087C23.2974 39.2002 23.101 39.3454 23.101 39.6358C23.101 40.5325 25.9962 40.2422 25.9962 42.1723ZM26.7744 44V37.68H28.4484V39.892C28.7302 39.482 29.2341 39.166 29.9259 39.166C31.0191 39.166 31.7109 39.9518 31.7109 41.2072V44H30.0369V41.4293C30.0369 40.8742 29.7295 40.5496 29.2512 40.5496C28.7558 40.5496 28.4484 40.8742 28.4484 41.4293V44H26.7744ZM32.6294 44V39.2087H34.3033V44H32.6294ZM33.4749 38.7646C32.877 38.7646 32.4927 38.3889 32.4927 37.9106C32.4927 37.4238 32.877 37.0394 33.4749 37.0394C34.0642 37.0394 34.4485 37.4238 34.4485 37.9106C34.4485 38.3889 34.0642 38.7646 33.4749 38.7646ZM35.4103 44V40.6009H34.8894V39.2087H35.4103V39.166C35.4103 37.8423 36.2729 37.159 37.8273 37.27V38.6963C37.3234 38.6451 37.1184 38.7817 37.0928 39.2087H37.8444V40.6009H37.0928V44H35.4103ZM38.7074 42.1809V40.6009H38.1181V39.2087H38.7074V38.0472H40.3899V39.2087H41.261V40.6009H40.3899V42.2065C40.3899 42.4627 40.5009 42.5737 40.7827 42.5737H41.2695V44H40.5436C39.4846 44 38.7074 43.5559 38.7074 42.1809Z" fill="url(#paint3_linear_1313_16223)"/>
<path d="M21.2989 42.1296V42.0296H21.1935L21.1991 42.1349L21.2989 42.1296ZM23.0839 42.1296L23.1836 42.1221L23.1766 42.0296H23.0839V42.1296ZM24.2198 42.3004H24.3198L24.3198 42.2995L24.2198 42.3004ZM21.316 39.6956L21.416 39.6968V39.6956H21.316ZM25.9194 39.7553V39.8553H26.0245L26.0192 39.7503L25.9194 39.7553ZM24.1002 39.7553L24.0003 39.7599L24.0047 39.8553H24.1002V39.7553ZM23.5451 39.2087L23.5416 39.3087H23.5451V39.2087ZM25.9962 42.1723H25.8962C25.8962 42.6748 25.7024 43.1188 25.3417 43.4383C24.9803 43.7585 24.444 43.9598 23.7501 43.9598V44.0598V44.1598C24.4824 44.1598 25.0692 43.9469 25.4743 43.588C25.8801 43.2286 26.0962 42.7289 26.0962 42.1723H25.9962ZM23.7501 44.0598V43.9598C23.0942 43.9598 22.5213 43.803 22.1066 43.4978C21.6948 43.1947 21.4314 42.7402 21.3988 42.1243L21.2989 42.1296L21.1991 42.1349C21.2348 42.8087 21.5265 43.3192 21.988 43.6588C22.4466 43.9963 23.065 44.1598 23.7501 44.1598V44.0598ZM21.2989 42.1296V42.2296H23.0839V42.1296V42.0296H21.2989V42.1296ZM23.0839 42.1296L22.9842 42.1371C23.0027 42.3822 23.0852 42.5613 23.2189 42.6779C23.3514 42.7936 23.5208 42.836 23.6903 42.836V42.736V42.636C23.5523 42.636 23.4355 42.6015 23.3503 42.5272C23.2662 42.4538 23.1993 42.3297 23.1836 42.1221L23.0839 42.1296ZM23.6903 42.736V42.836C23.8556 42.836 24.0114 42.7936 24.1284 42.7029C24.2482 42.6101 24.3198 42.4718 24.3198 42.3004H24.2198H24.1198C24.1198 42.4109 24.0761 42.4904 24.0059 42.5449C23.9328 42.6015 23.8239 42.636 23.6903 42.636V42.736ZM24.2198 42.3004L24.3198 42.2995C24.3171 41.9942 24.0793 41.8175 23.8006 41.6896C23.6579 41.6242 23.4935 41.5664 23.3223 41.509C23.1495 41.4511 22.9699 41.3935 22.7897 41.327C22.429 41.1937 22.0827 41.0299 21.828 40.7784C21.5772 40.5309 21.4099 40.1931 21.416 39.6968L21.316 39.6956L21.216 39.6943C21.2093 40.2443 21.3975 40.6345 21.6875 40.9208C21.9735 41.2031 22.3531 41.3788 22.7204 41.5146C22.9043 41.5825 23.0893 41.6418 23.2587 41.6987C23.4298 41.756 23.5852 41.8109 23.7172 41.8714C23.9877 41.9955 24.1182 42.1241 24.1198 42.3013L24.2198 42.3004ZM21.316 39.6956H21.416C21.416 39.1376 21.6469 38.7145 22.0264 38.4281C22.409 38.1394 22.9496 37.985 23.5707 37.985V37.885V37.785C22.9193 37.785 22.3325 37.9466 21.9059 38.2685C21.4762 38.5927 21.216 39.075 21.216 39.6956H21.316ZM23.5707 37.885V37.985C24.2473 37.985 24.7956 38.15 25.1798 38.4505C25.5617 38.7492 25.7909 39.1888 25.8195 39.7603L25.9194 39.7553L26.0192 39.7503C25.988 39.1262 25.7347 38.6306 25.3031 38.293C24.8738 37.9573 24.2777 37.785 23.5707 37.785V37.885ZM25.9194 39.7553V39.6553H24.1002V39.7553V39.8553H25.9194V39.7553ZM24.1002 39.7553L24.2001 39.7508C24.1907 39.5427 24.121 39.3787 23.999 39.2673C23.8778 39.1566 23.7168 39.1087 23.5451 39.1087V39.2087V39.3087C23.6808 39.3087 23.7889 39.3463 23.8641 39.415C23.9385 39.4829 23.9927 39.5922 24.0003 39.7599L24.1002 39.7553ZM23.5451 39.2087L23.5485 39.1088C23.4048 39.1039 23.2668 39.1433 23.1635 39.2356C23.0589 39.329 23.001 39.4669 23.001 39.6358H23.101H23.201C23.201 39.5143 23.2413 39.4343 23.2968 39.3847C23.3536 39.3339 23.4377 39.3051 23.5416 39.3087L23.5451 39.2087ZM23.101 39.6358H23.001C23.001 39.9256 23.2381 40.0999 23.5104 40.2293C23.6511 40.2962 23.8136 40.3569 23.9834 40.4177C24.1546 40.4789 24.3331 40.5402 24.5124 40.6098C24.8716 40.7491 25.2182 40.916 25.4749 41.1603C25.7278 41.4008 25.8962 41.7189 25.8962 42.1723H25.9962H26.0962C26.0962 41.6606 25.9027 41.2912 25.6128 41.0154C25.3266 40.7431 24.9495 40.5648 24.5848 40.4233C24.4022 40.3525 24.2188 40.2895 24.0507 40.2294C23.8812 40.1687 23.7271 40.1109 23.5963 40.0487C23.3257 39.9201 23.201 39.7943 23.201 39.6358H23.101ZM26.7744 44H26.6744V44.1H26.7744V44ZM26.7744 37.68V37.58H26.6744V37.68H26.7744ZM28.4484 37.68H28.5484V37.58H28.4484V37.68ZM28.4484 39.892H28.3484V40.214L28.5308 39.9486L28.4484 39.892ZM31.7109 44V44.1H31.8109V44H31.7109ZM30.0369 44H29.9369V44.1H30.0369V44ZM28.4484 44V44.1H28.5484V44H28.4484ZM26.7744 44H26.8744V37.68H26.7744H26.6744V44H26.7744ZM26.7744 37.68V37.78H28.4484V37.68V37.58H26.7744V37.68ZM28.4484 37.68H28.3484V39.892H28.4484H28.5484V37.68H28.4484ZM28.4484 39.892L28.5308 39.9486C28.7939 39.5658 29.267 39.266 29.9259 39.266V39.166V39.066C29.2012 39.066 28.6665 39.3982 28.366 39.8353L28.4484 39.892ZM29.9259 39.166V39.266C30.447 39.266 30.8646 39.4524 31.1531 39.7817C31.4429 40.1125 31.6109 40.5972 31.6109 41.2072H31.7109H31.8109C31.8109 40.5618 31.6329 40.0259 31.3035 39.6499C30.9729 39.2725 30.4979 39.066 29.9259 39.066V39.166ZM31.7109 41.2072H31.6109V44H31.7109H31.8109V41.2072H31.7109ZM31.7109 44V43.9H30.0369V44V44.1H31.7109V44ZM30.0369 44H30.1369V41.4293H30.0369H29.9369V44H30.0369ZM30.0369 41.4293H30.1369C30.1369 41.1338 30.0549 40.8875 29.8974 40.7141C29.739 40.5395 29.5139 40.4496 29.2512 40.4496V40.5496V40.6496C29.4667 40.6496 29.6345 40.722 29.7494 40.8485C29.8652 40.9761 29.9369 41.1697 29.9369 41.4293H30.0369ZM29.2512 40.5496V40.4496C28.9809 40.4496 28.7515 40.5388 28.5905 40.7135C28.4304 40.8872 28.3484 41.1338 28.3484 41.4293H28.4484H28.5484C28.5484 41.1697 28.6201 40.9764 28.7375 40.8491C28.8541 40.7227 29.0261 40.6496 29.2512 40.6496V40.5496ZM28.4484 41.4293H28.3484V44H28.4484H28.5484V41.4293H28.4484ZM28.4484 44V43.9H26.7744V44V44.1H28.4484V44ZM32.6294 44H32.5294V44.1H32.6294V44ZM32.6294 39.2087V39.1087H32.5294V39.2087H32.6294ZM34.3033 39.2087H34.4033V39.1087H34.3033V39.2087ZM34.3033 44V44.1H34.4033V44H34.3033ZM32.6294 44H32.7294V39.2087H32.6294H32.5294V44H32.6294ZM32.6294 39.2087V39.3087H34.3033V39.2087V39.1087H32.6294V39.2087ZM34.3033 39.2087H34.2033V44H34.3033H34.4033V39.2087H34.3033ZM34.3033 44V43.9H32.6294V44V44.1H34.3033V44ZM33.4749 38.7646V38.6646C32.9221 38.6646 32.5927 38.324 32.5927 37.9106H32.4927H32.3927C32.3927 38.4537 32.832 38.8646 33.4749 38.8646V38.7646ZM32.4927 37.9106H32.5927C32.5927 37.4868 32.9241 37.1394 33.4749 37.1394V37.0394V36.9394C32.83 36.9394 32.3927 37.3607 32.3927 37.9106H32.4927ZM33.4749 37.0394V37.1394C34.0165 37.1394 34.3485 37.4862 34.3485 37.9106H34.4485H34.5485C34.5485 37.3613 34.1119 36.9394 33.4749 36.9394V37.0394ZM34.4485 37.9106H34.3485C34.3485 38.3245 34.0185 38.6646 33.4749 38.6646V38.7646V38.8646C34.1099 38.8646 34.5485 38.4532 34.5485 37.9106H34.4485ZM35.4103 44H35.3103V44.1H35.4103V44ZM35.4103 40.6009H35.5103V40.5009H35.4103V40.6009ZM34.8894 40.6009H34.7894V40.7009H34.8894V40.6009ZM34.8894 39.2087V39.1087H34.7894V39.2087H34.8894ZM35.4103 39.2087V39.3087H35.5103V39.2087H35.4103ZM37.8273 37.27H37.9273V37.1769L37.8344 37.1703L37.8273 37.27ZM37.8273 38.6963L37.8172 38.7958L37.9273 38.807V38.6963H37.8273ZM37.0928 39.2087L36.993 39.2028L36.9866 39.3087H37.0928V39.2087ZM37.8444 39.2087H37.9444V39.1087H37.8444V39.2087ZM37.8444 40.6009V40.7009H37.9444V40.6009H37.8444ZM37.0928 40.6009V40.5009H36.9928V40.6009H37.0928ZM37.0928 44V44.1H37.1928V44H37.0928ZM35.4103 44H35.5103V40.6009H35.4103H35.3103V44H35.4103ZM35.4103 40.6009V40.5009H34.8894V40.6009V40.7009H35.4103V40.6009ZM34.8894 40.6009H34.9894V39.2087H34.8894H34.7894V40.6009H34.8894ZM34.8894 39.2087V39.3087H35.4103V39.2087V39.1087H34.8894V39.2087ZM35.4103 39.2087H35.5103V39.166H35.4103H35.3103V39.2087H35.4103ZM35.4103 39.166H35.5103C35.5103 38.5267 35.7176 38.0575 36.0977 37.7586C36.4809 37.4572 37.0568 37.3153 37.8202 37.3698L37.8273 37.27L37.8344 37.1703C37.0434 37.1138 36.4108 37.2579 35.9741 37.6014C35.5343 37.9472 35.3103 38.4816 35.3103 39.166H35.4103ZM37.8273 37.27H37.7273V38.6963H37.8273H37.9273V37.27H37.8273ZM37.8273 38.6963L37.8374 38.5968C37.5809 38.5707 37.3723 38.5883 37.2239 38.6909C37.0692 38.7977 37.0066 38.9767 36.993 39.2028L37.0928 39.2087L37.1926 39.2147C37.2047 39.0137 37.2573 38.9109 37.3376 38.8555C37.424 38.7957 37.5698 38.7706 37.8172 38.7958L37.8273 38.6963ZM37.0928 39.2087V39.3087H37.8444V39.2087V39.1087H37.0928V39.2087ZM37.8444 39.2087H37.7444V40.6009H37.8444H37.9444V39.2087H37.8444ZM37.8444 40.6009V40.5009H37.0928V40.6009V40.7009H37.8444V40.6009ZM37.0928 40.6009H36.9928V44H37.0928H37.1928V40.6009H37.0928ZM37.0928 44V43.9H35.4103V44V44.1H37.0928V44ZM38.7074 40.6009H38.8074V40.5009H38.7074V40.6009ZM38.1181 40.6009H38.0181V40.7009H38.1181V40.6009ZM38.1181 39.2087V39.1087H38.0181V39.2087H38.1181ZM38.7074 39.2087V39.3087H38.8074V39.2087H38.7074ZM38.7074 38.0472V37.9472H38.6074V38.0472H38.7074ZM40.3899 38.0472H40.4899V37.9472H40.3899V38.0472ZM40.3899 39.2087H40.2899V39.3087H40.3899V39.2087ZM41.261 39.2087H41.361V39.1087H41.261V39.2087ZM41.261 40.6009V40.7009H41.361V40.6009H41.261ZM40.3899 40.6009V40.5009H40.2899V40.6009H40.3899ZM41.2695 42.5737H41.3695V42.4737H41.2695V42.5737ZM41.2695 44V44.1H41.3695V44H41.2695ZM38.7074 42.1809H38.8074V40.6009H38.7074H38.6074V42.1809H38.7074ZM38.7074 40.6009V40.5009H38.1181V40.6009V40.7009H38.7074V40.6009ZM38.1181 40.6009H38.2181V39.2087H38.1181H38.0181V40.6009H38.1181ZM38.1181 39.2087V39.3087H38.7074V39.2087V39.1087H38.1181V39.2087ZM38.7074 39.2087H38.8074V38.0472H38.7074H38.6074V39.2087H38.7074ZM38.7074 38.0472V38.1472H40.3899V38.0472V37.9472H38.7074V38.0472ZM40.3899 38.0472H40.2899V39.2087H40.3899H40.4899V38.0472H40.3899ZM40.3899 39.2087V39.3087H41.261V39.2087V39.1087H40.3899V39.2087ZM41.261 39.2087H41.161V40.6009H41.261H41.361V39.2087H41.261ZM41.261 40.6009V40.5009H40.3899V40.6009V40.7009H41.261V40.6009ZM40.3899 40.6009H40.2899V42.2065H40.3899H40.4899V40.6009H40.3899ZM40.3899 42.2065H40.2899C40.2899 42.3464 40.3199 42.4715 40.4118 42.5587C40.5024 42.6447 40.6322 42.6737 40.7827 42.6737V42.5737V42.4737C40.6514 42.4737 40.5848 42.4472 40.5495 42.4137C40.5154 42.3813 40.4899 42.3228 40.4899 42.2065H40.3899ZM40.7827 42.5737V42.6737H41.2695V42.5737V42.4737H40.7827V42.5737ZM41.2695 42.5737H41.1695V44H41.2695H41.3695V42.5737H41.2695ZM41.2695 44V43.9H40.5436V44V44.1H41.2695V44ZM40.5436 44V43.9C40.0256 43.9 39.5947 43.791 39.2938 43.5305C38.9958 43.2724 38.8074 42.8496 38.8074 42.1809H38.7074H38.6074C38.6074 42.8872 38.8076 43.374 39.1629 43.6817C39.5154 43.9869 40.0026 44.1 40.5436 44.1V44Z" fill="white" fill-opacity="0.8" mask="url(#path-6-inside-1_1313_16223)"/>
<path d="M63.75 59.25H80.25V60.625H66.5V63.375H78.875V64.75H66.5V67.5H80.25V68.875H65.125V67.5H63.75V59.25ZM62.375 73H70.625V68.875H73.375V73H81.625V74.375H62.375V73ZM85.75 57.875H102.25V59.25H88.5V63.375H102.25V64.75H87.125V63.375H85.75V57.875ZM84.375 66.125H92.625V63.375H95.375V66.125H103.625V67.5H84.375V66.125ZM85.75 68.875H102.25V74.375H100.875V75.75H99.5V70.25H85.75V68.875ZM109.125 70.25H111.875V73H109.125V70.25ZM120.125 70.25H122.875V73H120.125V70.25Z" fill="#0C0C0C"/>
<mask id="path-9-inside-2_1313_16223" fill="white">
<path d="M48.9216 100.509V104.788C49.5707 104.771 50.16 104.72 50.792 104.592L50.9628 105.736C50.049 105.924 49.1949 105.958 48.153 105.958H47.5637V100.509H48.9216ZM51.2447 102.234V99.9113H52.5257V107.478H51.2447V103.336H49.7928V102.234H51.2447ZM52.9442 99.7918H54.2509V107.803H52.9442V99.7918ZM57.1114 102.405C57.1114 103.174 57.7861 103.584 58.7853 103.584C59.7931 103.584 60.4593 103.174 60.4593 102.405C60.4593 101.645 59.7931 101.227 58.7853 101.227C57.7861 101.227 57.1114 101.645 57.1114 102.405ZM59.4771 105.821H62.4236V106.923H55.1556V105.821H58.0935V104.634C56.7185 104.421 55.7449 103.592 55.7449 102.405C55.7449 101.039 57.0601 100.142 58.7853 100.142C60.5105 100.142 61.8257 101.039 61.8257 102.405C61.8257 103.592 60.8436 104.421 59.4771 104.634V105.821ZM71.1121 101.85V102.926H65.5095V100.125H71.078V101.201H66.8846V101.85H71.1121ZM69.6602 106.334C69.6602 106.001 69.2247 105.873 68.2596 105.873C67.286 105.873 66.8504 106.001 66.8504 106.334C66.8504 106.667 67.286 106.786 68.2596 106.786C69.2247 106.786 69.6602 106.667 69.6602 106.334ZM71.9235 104.429H68.9685V104.865C70.2837 105.002 71.0609 105.514 71.0609 106.334C71.0609 107.282 69.9933 107.828 68.2596 107.828C66.5173 107.828 65.4497 107.282 65.4497 106.334C65.4497 105.505 66.244 104.993 67.5849 104.865V104.429H64.6555V103.345H71.9235V104.429ZM74.7668 104.933V106.607H79.1823V107.692H73.3918V104.933H74.7668ZM78.798 103.268H79.7631V104.352H72.5036V103.268H77.4144C77.5681 102.499 77.5937 101.884 77.6023 101.303H73.3747V100.219H78.9688V100.945C78.9688 101.619 78.9688 102.354 78.798 103.268ZM82.4356 101.432V103.293H85.5187V101.432H82.4356ZM84.6817 105.821H87.6197V106.923H80.3688V105.821H83.2982V104.37H81.0776V100.355H86.8767V104.37H84.6817V105.821ZM92.2139 102.764V99.9028H93.4949V107.47H92.2139V105.215L91.5135 106.18C90.8644 105.856 90.4374 105.318 90.1556 104.651C89.8994 105.386 89.4638 106.001 88.7976 106.377L88.029 105.343C89.2076 104.66 89.4894 103.396 89.4894 102.209V102.166H88.3791V101.064H89.4894V100.048H90.7961V101.064H91.8979V102.166H90.7961V102.209C90.7961 103.37 91.078 104.523 92.2139 105.147V103.866H91.4794V102.764H92.2139ZM93.8366 99.7918H95.1433V107.803H93.8366V99.7918Z"/>
</mask>
<path d="M48.9216 100.509V104.788C49.5707 104.771 50.16 104.72 50.792 104.592L50.9628 105.736C50.049 105.924 49.1949 105.958 48.153 105.958H47.5637V100.509H48.9216ZM51.2447 102.234V99.9113H52.5257V107.478H51.2447V103.336H49.7928V102.234H51.2447ZM52.9442 99.7918H54.2509V107.803H52.9442V99.7918ZM57.1114 102.405C57.1114 103.174 57.7861 103.584 58.7853 103.584C59.7931 103.584 60.4593 103.174 60.4593 102.405C60.4593 101.645 59.7931 101.227 58.7853 101.227C57.7861 101.227 57.1114 101.645 57.1114 102.405ZM59.4771 105.821H62.4236V106.923H55.1556V105.821H58.0935V104.634C56.7185 104.421 55.7449 103.592 55.7449 102.405C55.7449 101.039 57.0601 100.142 58.7853 100.142C60.5105 100.142 61.8257 101.039 61.8257 102.405C61.8257 103.592 60.8436 104.421 59.4771 104.634V105.821ZM71.1121 101.85V102.926H65.5095V100.125H71.078V101.201H66.8846V101.85H71.1121ZM69.6602 106.334C69.6602 106.001 69.2247 105.873 68.2596 105.873C67.286 105.873 66.8504 106.001 66.8504 106.334C66.8504 106.667 67.286 106.786 68.2596 106.786C69.2247 106.786 69.6602 106.667 69.6602 106.334ZM71.9235 104.429H68.9685V104.865C70.2837 105.002 71.0609 105.514 71.0609 106.334C71.0609 107.282 69.9933 107.828 68.2596 107.828C66.5173 107.828 65.4497 107.282 65.4497 106.334C65.4497 105.505 66.244 104.993 67.5849 104.865V104.429H64.6555V103.345H71.9235V104.429ZM74.7668 104.933V106.607H79.1823V107.692H73.3918V104.933H74.7668ZM78.798 103.268H79.7631V104.352H72.5036V103.268H77.4144C77.5681 102.499 77.5937 101.884 77.6023 101.303H73.3747V100.219H78.9688V100.945C78.9688 101.619 78.9688 102.354 78.798 103.268ZM82.4356 101.432V103.293H85.5187V101.432H82.4356ZM84.6817 105.821H87.6197V106.923H80.3688V105.821H83.2982V104.37H81.0776V100.355H86.8767V104.37H84.6817V105.821ZM92.2139 102.764V99.9028H93.4949V107.47H92.2139V105.215L91.5135 106.18C90.8644 105.856 90.4374 105.318 90.1556 104.651C89.8994 105.386 89.4638 106.001 88.7976 106.377L88.029 105.343C89.2076 104.66 89.4894 103.396 89.4894 102.209V102.166H88.3791V101.064H89.4894V100.048H90.7961V101.064H91.8979V102.166H90.7961V102.209C90.7961 103.37 91.078 104.523 92.2139 105.147V103.866H91.4794V102.764H92.2139ZM93.8366 99.7918H95.1433V107.803H93.8366V99.7918Z" fill="url(#paint4_linear_1313_16223)"/>
<path d="M48.9216 100.509H49.0216V100.409H48.9216V100.509ZM48.9216 104.788H48.8216V104.891L48.9243 104.888L48.9216 104.788ZM50.792 104.592L50.8909 104.577L50.8754 104.473L50.7721 104.494L50.792 104.592ZM50.9628 105.736L50.983 105.834L51.0757 105.815L51.0617 105.721L50.9628 105.736ZM47.5637 105.958H47.4637V106.058H47.5637V105.958ZM47.5637 100.509V100.409H47.4637V100.509H47.5637ZM51.2447 102.234V102.334H51.3447V102.234H51.2447ZM51.2447 99.9113V99.8113H51.1447V99.9113H51.2447ZM52.5257 99.9113H52.6257V99.8113H52.5257V99.9113ZM52.5257 107.478V107.578H52.6257V107.478H52.5257ZM51.2447 107.478H51.1447V107.578H51.2447V107.478ZM51.2447 103.336H51.3447V103.236H51.2447V103.336ZM49.7928 103.336H49.6928V103.436H49.7928V103.336ZM49.7928 102.234V102.134H49.6928V102.234H49.7928ZM52.9442 99.7918V99.6918H52.8442V99.7918H52.9442ZM54.2509 99.7918H54.3509V99.6918H54.2509V99.7918ZM54.2509 107.803V107.903H54.3509V107.803H54.2509ZM52.9442 107.803H52.8442V107.903H52.9442V107.803ZM48.9216 100.509H48.8216V104.788H48.9216H49.0216V100.509H48.9216ZM48.9216 104.788L48.9243 104.888C49.5773 104.871 50.1726 104.819 50.8119 104.69L50.792 104.592L50.7721 104.494C50.1474 104.62 49.5641 104.671 48.919 104.688L48.9216 104.788ZM50.792 104.592L50.6931 104.606L50.8639 105.751L50.9628 105.736L51.0617 105.721L50.8909 104.577L50.792 104.592ZM50.9628 105.736L50.9427 105.638C50.039 105.824 49.193 105.858 48.153 105.858V105.958V106.058C49.1968 106.058 50.059 106.024 50.983 105.834L50.9628 105.736ZM48.153 105.958V105.858H47.5637V105.958V106.058H48.153V105.958ZM47.5637 105.958H47.6637V100.509H47.5637H47.4637V105.958H47.5637ZM47.5637 100.509V100.609H48.9216V100.509V100.409H47.5637V100.509ZM51.2447 102.234H51.3447V99.9113H51.2447H51.1447V102.234H51.2447ZM51.2447 99.9113V100.011H52.5257V99.9113V99.8113H51.2447V99.9113ZM52.5257 99.9113H52.4257V107.478H52.5257H52.6257V99.9113H52.5257ZM52.5257 107.478V107.378H51.2447V107.478V107.578H52.5257V107.478ZM51.2447 107.478H51.3447V103.336H51.2447H51.1447V107.478H51.2447ZM51.2447 103.336V103.236H49.7928V103.336V103.436H51.2447V103.336ZM49.7928 103.336H49.8928V102.234H49.7928H49.6928V103.336H49.7928ZM49.7928 102.234V102.334H51.2447V102.234V102.134H49.7928V102.234ZM52.9442 99.7918V99.8918H54.2509V99.7918V99.6918H52.9442V99.7918ZM54.2509 99.7918H54.1509V107.803H54.2509H54.3509V99.7918H54.2509ZM54.2509 107.803V107.703H52.9442V107.803V107.903H54.2509V107.803ZM52.9442 107.803H53.0442V99.7918H52.9442H52.8442V107.803H52.9442ZM59.4771 105.821H59.3771V105.921H59.4771V105.821ZM62.4236 105.821H62.5236V105.721H62.4236V105.821ZM62.4236 106.923V107.023H62.5236V106.923H62.4236ZM55.1556 106.923H55.0556V107.023H55.1556V106.923ZM55.1556 105.821V105.721H55.0556V105.821H55.1556ZM58.0935 105.821V105.921H58.1935V105.821H58.0935ZM58.0935 104.634H58.1935V104.549L58.1089 104.535L58.0935 104.634ZM59.4771 104.634L59.4617 104.535L59.3771 104.549V104.634H59.4771ZM57.1114 102.405H57.0114C57.0114 102.824 57.1972 103.149 57.5176 103.366C57.8335 103.579 58.274 103.684 58.7853 103.684V103.584V103.484C58.2974 103.484 57.9009 103.383 57.6296 103.2C57.3628 103.019 57.2114 102.755 57.2114 102.405H57.1114ZM58.7853 103.584V103.684C59.3007 103.684 59.7414 103.579 60.0564 103.365C60.3759 103.149 60.5593 102.823 60.5593 102.405H60.4593H60.3593C60.3593 102.756 60.2095 103.02 59.944 103.2C59.674 103.383 59.2777 103.484 58.7853 103.484V103.584ZM60.4593 102.405H60.5593C60.5593 101.991 60.3757 101.666 60.0566 101.448C59.7418 101.233 59.3011 101.127 58.7853 101.127V101.227V101.327C59.2773 101.327 59.6736 101.429 59.9438 101.613C60.2097 101.795 60.3593 102.059 60.3593 102.405H60.4593ZM58.7853 101.227V101.127C58.2736 101.127 57.8331 101.233 57.5174 101.448C57.1974 101.666 57.0114 101.991 57.0114 102.405H57.1114H57.2114C57.2114 102.059 57.3626 101.795 57.6298 101.614C57.9013 101.429 58.2977 101.327 58.7853 101.327V101.227ZM59.4771 105.821V105.921H62.4236V105.821V105.721H59.4771V105.821ZM62.4236 105.821H62.3236V106.923H62.4236H62.5236V105.821H62.4236ZM62.4236 106.923V106.823H55.1556V106.923V107.023H62.4236V106.923ZM55.1556 106.923H55.2556V105.821H55.1556H55.0556V106.923H55.1556ZM55.1556 105.821V105.921H58.0935V105.821V105.721H55.1556V105.821ZM58.0935 105.821H58.1935V104.634H58.0935H57.9935V105.821H58.0935ZM58.0935 104.634L58.1089 104.535C56.7606 104.326 55.8449 103.524 55.8449 102.405H55.7449H55.6449C55.6449 103.661 56.6764 104.515 58.0782 104.733L58.0935 104.634ZM55.7449 102.405H55.8449C55.8449 101.758 56.155 101.221 56.6769 100.842C57.2007 100.462 57.9389 100.242 58.7853 100.242V100.142V100.042C57.9065 100.042 57.1245 100.27 56.5594 100.68C55.9923 101.092 55.6449 101.686 55.6449 102.405H55.7449ZM58.7853 100.142V100.242C59.6317 100.242 60.3699 100.462 60.8937 100.842C61.4156 101.221 61.7257 101.758 61.7257 102.405H61.8257H61.9257C61.9257 101.686 61.5783 101.092 61.0112 100.68C60.4461 100.27 59.6641 100.042 58.7853 100.042V100.142ZM61.8257 102.405H61.7257C61.7257 103.523 60.8017 104.326 59.4617 104.535L59.4771 104.634L59.4925 104.733C60.8854 104.515 61.9257 103.661 61.9257 102.405H61.8257ZM59.4771 104.634H59.3771V105.821H59.4771H59.5771V104.634H59.4771ZM71.1121 101.85H71.2121V101.75H71.1121V101.85ZM71.1121 102.926V103.026H71.2121V102.926H71.1121ZM65.5095 102.926H65.4095V103.026H65.5095V102.926ZM65.5095 100.125V100.025H65.4095V100.125H65.5095ZM71.078 100.125H71.178V100.025H71.078V100.125ZM71.078 101.201V101.301H71.178V101.201H71.078ZM66.8846 101.201V101.101H66.7846V101.201H66.8846ZM66.8846 101.85H66.7846V101.95H66.8846V101.85ZM71.9235 104.429V104.529H72.0235V104.429H71.9235ZM68.9685 104.429V104.329H68.8685V104.429H68.9685ZM68.9685 104.865H68.8685V104.955L68.9581 104.964L68.9685 104.865ZM67.5849 104.865L67.5944 104.964L67.6849 104.956V104.865H67.5849ZM67.5849 104.429H67.6849V104.329H67.5849V104.429ZM64.6555 104.429H64.5555V104.529H64.6555V104.429ZM64.6555 103.345V103.245H64.5555V103.345H64.6555ZM71.9235 103.345H72.0235V103.245H71.9235V103.345ZM71.1121 101.85H71.0121V102.926H71.1121H71.2121V101.85H71.1121ZM71.1121 102.926V102.826H65.5095V102.926V103.026H71.1121V102.926ZM65.5095 102.926H65.6095V100.125H65.5095H65.4095V102.926H65.5095ZM65.5095 100.125V100.225H71.078V100.125V100.025H65.5095V100.125ZM71.078 100.125H70.978V101.201H71.078H71.178V100.125H71.078ZM71.078 101.201V101.101H66.8846V101.201V101.301H71.078V101.201ZM66.8846 101.201H66.7846V101.85H66.8846H66.9846V101.201H66.8846ZM66.8846 101.85V101.95H71.1121V101.85V101.75H66.8846V101.85ZM69.6602 106.334H69.7602C69.7602 106.226 69.724 106.131 69.6496 106.052C69.5778 105.977 69.4758 105.923 69.3524 105.883C69.1069 105.804 68.7432 105.773 68.2596 105.773V105.873V105.973C68.741 105.973 69.0777 106.005 69.2913 106.074C69.3974 106.108 69.4646 106.148 69.5046 106.19C69.5421 106.23 69.5602 106.275 69.5602 106.334H69.6602ZM68.2596 105.873V105.773C67.7717 105.773 67.406 105.804 67.1595 105.883C67.0355 105.923 66.9332 105.977 66.8613 106.052C66.7867 106.131 66.7504 106.226 66.7504 106.334H66.8504H66.9504C66.9504 106.275 66.9686 106.23 67.0061 106.19C67.0462 106.148 67.1137 106.108 67.2203 106.074C67.435 106.005 67.7738 105.973 68.2596 105.973V105.873ZM66.8504 106.334H66.7504C66.7504 106.442 66.7867 106.537 66.8617 106.615C66.9339 106.689 67.0365 106.742 67.1603 106.781C67.4065 106.857 67.7721 106.886 68.2596 106.886V106.786V106.686C67.7734 106.686 67.4344 106.656 67.2195 106.59C67.1127 106.556 67.0455 106.517 67.0056 106.476C66.9685 106.437 66.9504 106.393 66.9504 106.334H66.8504ZM68.2596 106.786V106.886C68.7428 106.886 69.1063 106.857 69.3516 106.781C69.4749 106.742 69.5771 106.689 69.6491 106.614C69.7239 106.537 69.7602 106.442 69.7602 106.334H69.6602H69.5602C69.5602 106.393 69.5421 106.437 69.5051 106.476C69.4653 106.517 69.3983 106.556 69.2921 106.59C69.0782 106.656 68.7414 106.686 68.2596 106.686V106.786ZM71.9235 104.429V104.329H68.9685V104.429V104.529H71.9235V104.429ZM68.9685 104.429H68.8685V104.865H68.9685H69.0685V104.429H68.9685ZM68.9685 104.865L68.9581 104.964C69.607 105.032 70.1115 105.191 70.4511 105.425C70.7866 105.657 70.9609 105.961 70.9609 106.334H71.0609H71.1609C71.1609 105.887 70.9465 105.524 70.5647 105.261C70.1868 105 69.6451 104.835 68.9788 104.765L68.9685 104.865ZM71.0609 106.334H70.9609C70.9609 106.762 70.7233 107.106 70.2637 107.348C69.8002 107.593 69.1182 107.728 68.2596 107.728V107.828V107.928C69.1347 107.928 69.8533 107.791 70.3571 107.525C70.8647 107.257 71.1609 106.854 71.1609 106.334H71.0609ZM68.2596 107.828V107.728C67.3966 107.728 66.7124 107.593 66.2479 107.348C65.7873 107.106 65.5497 106.762 65.5497 106.334H65.4497H65.3497C65.3497 106.854 65.646 107.257 66.1547 107.525C66.6595 107.791 67.3803 107.928 68.2596 107.928V107.828ZM65.4497 106.334H65.5497C65.5497 105.958 65.7277 105.651 66.0705 105.42C66.4174 105.185 66.9326 105.028 67.5944 104.964L67.5849 104.865L67.5754 104.765C66.8963 104.83 66.3439 104.993 65.9585 105.254C65.5689 105.517 65.3497 105.882 65.3497 106.334H65.4497ZM67.5849 104.865H67.6849V104.429H67.5849H67.4849V104.865H67.5849ZM67.5849 104.429V104.329H64.6555V104.429V104.529H67.5849V104.429ZM64.6555 104.429H64.7555V103.345H64.6555H64.5555V104.429H64.6555ZM64.6555 103.345V103.445H71.9235V103.345V103.245H64.6555V103.345ZM71.9235 103.345H71.8235V104.429H71.9235H72.0235V103.345H71.9235ZM74.7668 104.933H74.8668V104.833H74.7668V104.933ZM74.7668 106.607H74.6668V106.707H74.7668V106.607ZM79.1823 106.607H79.2823V106.507H79.1823V106.607ZM79.1823 107.692V107.792H79.2823V107.692H79.1823ZM73.3918 107.692H73.2918V107.792H73.3918V107.692ZM73.3918 104.933V104.833H73.2918V104.933H73.3918ZM78.798 103.268L78.6997 103.249L78.6775 103.368H78.798V103.268ZM79.7631 103.268H79.8631V103.168H79.7631V103.268ZM79.7631 104.352V104.452H79.8631V104.352H79.7631ZM72.5036 104.352H72.4036V104.452H72.5036V104.352ZM72.5036 103.268V103.168H72.4036V103.268H72.5036ZM77.4144 103.268V103.368H77.4964L77.5125 103.287L77.4144 103.268ZM77.6023 101.303L77.7023 101.305L77.7038 101.203H77.6023V101.303ZM73.3747 101.303H73.2747V101.403H73.3747V101.303ZM73.3747 100.219V100.119H73.2747V100.219H73.3747ZM78.9688 100.219H79.0688V100.119H78.9688V100.219ZM74.7668 104.933H74.6668V106.607H74.7668H74.8668V104.933H74.7668ZM74.7668 106.607V106.707H79.1823V106.607V106.507H74.7668V106.607ZM79.1823 106.607H79.0823V107.692H79.1823H79.2823V106.607H79.1823ZM79.1823 107.692V107.592H73.3918V107.692V107.792H79.1823V107.692ZM73.3918 107.692H73.4918V104.933H73.3918H73.2918V107.692H73.3918ZM73.3918 104.933V105.033H74.7668V104.933V104.833H73.3918V104.933ZM78.798 103.268V103.368H79.7631V103.268V103.168H78.798V103.268ZM79.7631 103.268H79.6631V104.352H79.7631H79.8631V103.268H79.7631ZM79.7631 104.352V104.252H72.5036V104.352V104.452H79.7631V104.352ZM72.5036 104.352H72.6036V103.268H72.5036H72.4036V104.352H72.5036ZM72.5036 103.268V103.368H77.4144V103.268V103.168H72.5036V103.268ZM77.4144 103.268L77.5125 103.287C77.6679 102.51 77.6937 101.888 77.7023 101.305L77.6023 101.303L77.5023 101.302C77.4938 101.88 77.4683 102.488 77.3163 103.248L77.4144 103.268ZM77.6023 101.303V101.203H73.3747V101.303V101.403H77.6023V101.303ZM73.3747 101.303H73.4747V100.219H73.3747H73.2747V101.303H73.3747ZM73.3747 100.219V100.319H78.9688V100.219V100.119H73.3747V100.219ZM78.9688 100.219H78.8688V100.945H78.9688H79.0688V100.219H78.9688ZM78.9688 100.945H78.8688C78.8688 101.619 78.8686 102.345 78.6997 103.249L78.798 103.268L78.8963 103.286C79.0689 102.362 79.0688 101.62 79.0688 100.945H78.9688ZM82.4356 101.432V101.332H82.3356V101.432H82.4356ZM82.4356 103.293H82.3356V103.393H82.4356V103.293ZM85.5187 103.293V103.393H85.6187V103.293H85.5187ZM85.5187 101.432H85.6187V101.332H85.5187V101.432ZM84.6817 105.821H84.5817V105.921H84.6817V105.821ZM87.6197 105.821H87.7197V105.721H87.6197V105.821ZM87.6197 106.923V107.023H87.7197V106.923H87.6197ZM80.3688 106.923H80.2688V107.023H80.3688V106.923ZM80.3688 105.821V105.721H80.2688V105.821H80.3688ZM83.2982 105.821V105.921H83.3982V105.821H83.2982ZM83.2982 104.37H83.3982V104.27H83.2982V104.37ZM81.0776 104.37H80.9776V104.47H81.0776V104.37ZM81.0776 100.355V100.255H80.9776V100.355H81.0776ZM86.8767 100.355H86.9767V100.255H86.8767V100.355ZM86.8767 104.37V104.47H86.9767V104.37H86.8767ZM84.6817 104.37V104.27H84.5817V104.37H84.6817ZM82.4356 101.432H82.3356V103.293H82.4356H82.5356V101.432H82.4356ZM82.4356 103.293V103.393H85.5187V103.293V103.193H82.4356V103.293ZM85.5187 103.293H85.6187V101.432H85.5187H85.4187V103.293H85.5187ZM85.5187 101.432V101.332H82.4356V101.432V101.532H85.5187V101.432ZM84.6817 105.821V105.921H87.6197V105.821V105.721H84.6817V105.821ZM87.6197 105.821H87.5197V106.923H87.6197H87.7197V105.821H87.6197ZM87.6197 106.923V106.823H80.3688V106.923V107.023H87.6197V106.923ZM80.3688 106.923H80.4688V105.821H80.3688H80.2688V106.923H80.3688ZM80.3688 105.821V105.921H83.2982V105.821V105.721H80.3688V105.821ZM83.2982 105.821H83.3982V104.37H83.2982H83.1982V105.821H83.2982ZM83.2982 104.37V104.27H81.0776V104.37V104.47H83.2982V104.37ZM81.0776 104.37H81.1776V100.355H81.0776H80.9776V104.37H81.0776ZM81.0776 100.355V100.455H86.8767V100.355V100.255H81.0776V100.355ZM86.8767 100.355H86.7767V104.37H86.8767H86.9767V100.355H86.8767ZM86.8767 104.37V104.27H84.6817V104.37V104.47H86.8767V104.37ZM84.6817 104.37H84.5817V105.821H84.6817H84.7817V104.37H84.6817ZM92.2139 102.764V102.864H92.3139V102.764H92.2139ZM92.2139 99.9028V99.8028H92.1138V99.9028H92.2139ZM93.4949 99.9028H93.5949V99.8028H93.4949V99.9028ZM93.4949 107.47V107.57H93.5949V107.47H93.4949ZM92.2139 107.47H92.1138V107.57H92.2139V107.47ZM92.2139 105.215H92.3139V104.907L92.1329 105.156L92.2139 105.215ZM91.5135 106.18L91.4688 106.27L91.5447 106.307L91.5945 106.239L91.5135 106.18ZM90.1556 104.651L90.2477 104.612L90.1466 104.373L90.0612 104.618L90.1556 104.651ZM88.7976 106.377L88.7174 106.436L88.77 106.507L88.8468 106.464L88.7976 106.377ZM88.029 105.343L87.9788 105.257L87.8818 105.313L87.9487 105.403L88.029 105.343ZM89.4894 102.166H89.5894V102.066H89.4894V102.166ZM88.3791 102.166H88.2791V102.266H88.3791V102.166ZM88.3791 101.064V100.964H88.2791V101.064H88.3791ZM89.4894 101.064V101.164H89.5894V101.064H89.4894ZM89.4894 100.048V99.948H89.3894V100.048H89.4894ZM90.7961 100.048H90.8961V99.948H90.7961V100.048ZM90.7961 101.064H90.6961V101.164H90.7961V101.064ZM91.8979 101.064H91.9978V100.964H91.8979V101.064ZM91.8979 102.166V102.266H91.9978V102.166H91.8979ZM90.7961 102.166V102.066H90.6961V102.166H90.7961ZM92.2139 105.147L92.1657 105.234L92.3139 105.316V105.147H92.2139ZM92.2139 103.866H92.3139V103.766H92.2139V103.866ZM91.4794 103.866H91.3794V103.966H91.4794V103.866ZM91.4794 102.764V102.664H91.3794V102.764H91.4794ZM93.8366 99.7918V99.6918H93.7366V99.7918H93.8366ZM95.1433 99.7918H95.2433V99.6918H95.1433V99.7918ZM95.1433 107.803V107.903H95.2433V107.803H95.1433ZM93.8366 107.803H93.7366V107.903H93.8366V107.803ZM92.2139 102.764H92.3139V99.9028H92.2139H92.1138V102.764H92.2139ZM92.2139 99.9028V100.003H93.4949V99.9028V99.8028H92.2139V99.9028ZM93.4949 99.9028H93.3949V107.47H93.4949H93.5949V99.9028H93.4949ZM93.4949 107.47V107.37H92.2139V107.47V107.57H93.4949V107.47ZM92.2139 107.47H92.3139V105.215H92.2139H92.1138V107.47H92.2139ZM92.2139 105.215L92.1329 105.156L91.4326 106.121L91.5135 106.18L91.5945 106.239L92.2948 105.274L92.2139 105.215ZM91.5135 106.18L91.5582 106.091C90.9354 105.779 90.5227 105.262 90.2477 104.612L90.1556 104.651L90.0635 104.69C90.3522 105.373 90.7935 105.932 91.4688 106.27L91.5135 106.18ZM90.1556 104.651L90.0612 104.618C89.8108 105.336 89.3885 105.928 88.7485 106.289L88.7976 106.377L88.8468 106.464C89.5391 106.073 89.9879 105.436 90.25 104.684L90.1556 104.651ZM88.7976 106.377L88.8779 106.317L88.1092 105.283L88.029 105.343L87.9487 105.403L88.7174 106.436L88.7976 106.377ZM88.029 105.343L88.0791 105.43C89.3054 104.719 89.5894 103.406 89.5894 102.209H89.4894H89.3894C89.3894 103.385 89.1097 104.601 87.9788 105.257L88.029 105.343ZM89.4894 102.209H89.5894V102.166H89.4894H89.3894V102.209H89.4894ZM89.4894 102.166V102.066H88.3791V102.166V102.266H89.4894V102.166ZM88.3791 102.166H88.4791V101.064H88.3791H88.2791V102.166H88.3791ZM88.3791 101.064V101.164H89.4894V101.064V100.964H88.3791V101.064ZM89.4894 101.064H89.5894V100.048H89.4894H89.3894V101.064H89.4894ZM89.4894 100.048V100.148H90.7961V100.048V99.948H89.4894V100.048ZM90.7961 100.048H90.6961V101.064H90.7961H90.8961V100.048H90.7961ZM90.7961 101.064V101.164H91.8979V101.064V100.964H90.7961V101.064ZM91.8979 101.064H91.7979V102.166H91.8979H91.9978V101.064H91.8979ZM91.8979 102.166V102.066H90.7961V102.166V102.266H91.8979V102.166ZM90.7961 102.166H90.6961V102.209H90.7961H90.8961V102.166H90.7961ZM90.7961 102.209H90.6961C90.6961 103.382 90.9811 104.584 92.1657 105.234L92.2139 105.147L92.262 105.059C91.1748 104.462 90.8961 103.358 90.8961 102.209H90.7961ZM92.2139 105.147H92.3139V103.866H92.2139H92.1138V105.147H92.2139ZM92.2139 103.866V103.766H91.4794V103.866V103.966H92.2139V103.866ZM91.4794 103.866H91.5794V102.764H91.4794H91.3794V103.866H91.4794ZM91.4794 102.764V102.864H92.2139V102.764V102.664H91.4794V102.764ZM93.8366 99.7918V99.8918H95.1433V99.7918V99.6918H93.8366V99.7918ZM95.1433 99.7918H95.0433V107.803H95.1433H95.2433V99.7918H95.1433ZM95.1433 107.803V107.703H93.8366V107.803V107.903H95.1433V107.803ZM93.8366 107.803H93.9366V99.7918H93.8366H93.7366V107.803H93.8366Z" fill="white" fill-opacity="0.8" mask="url(#path-9-inside-2_1313_16223)"/>
<defs>
<linearGradient id="paint0_linear_1313_16223" x1="10.5617" y1="98.0671" x2="107.489" y2="159.437" gradientUnits="userSpaceOnUse">
<stop stop-color="white"/>
<stop offset="0.5" stop-color="white" stop-opacity="0"/>
<stop offset="1" stop-color="white"/>
</linearGradient>
<linearGradient id="paint1_linear_1313_16223" x1="58.2222" y1="87.7378" x2="78.3502" y2="161.515" gradientUnits="userSpaceOnUse">
<stop stop-color="white"/>
<stop offset="1" stop-color="#EDEDED"/>
</linearGradient>
<linearGradient id="paint2_linear_1313_16223" x1="18.831" y1="87.7852" x2="95.5053" y2="129.514" gradientUnits="userSpaceOnUse">
<stop stop-color="white"/>
<stop offset="0.5" stop-color="white" stop-opacity="0"/>
<stop offset="1" stop-color="white"/>
</linearGradient>
<linearGradient id="paint3_linear_1313_16223" x1="22.5818" y1="38.8161" x2="39.6543" y2="50.5075" gradientUnits="userSpaceOnUse">
<stop stop-color="#5F5F5F"/>
<stop offset="1" stop-color="#606060" stop-opacity="0.7"/>
</linearGradient>
<linearGradient id="paint4_linear_1313_16223" x1="50.6908" y1="101.816" x2="67.1596" y2="128.131" gradientUnits="userSpaceOnUse">
<stop stop-color="#5F5F5F"/>
<stop offset="1" stop-color="#606060" stop-opacity="0.7"/>
</linearGradient>
</defs>
</svg>
