<svg width="143" height="115" viewBox="0 0 143 115" fill="none" xmlns="http://www.w3.org/2000/svg">
<rect x="6" y="92.1304" width="70.1305" height="130.953" rx="15.5156" transform="rotate(-90 6 92.1304)" fill="#E0E0E0"/>
<rect x="6.5" y="91.6304" width="69.1305" height="129.953" rx="15.0156" transform="rotate(-90 6.5 91.6304)" stroke="url(#paint0_linear_1313_16215)" stroke-opacity="0.5"/>
<rect x="15.4922" y="82.73" width="51.3307" height="111.508" rx="8" transform="rotate(-90 15.4922 82.73)" fill="url(#paint1_linear_1313_16215)"/>
<rect x="15.9922" y="82.23" width="50.3307" height="110.508" rx="7.5" transform="rotate(-90 15.9922 82.23)" stroke="url(#paint2_linear_1313_16215)" stroke-opacity="0.5"/>
<mask id="path-6-inside-1_1313_16215" fill="white">
<path d="M25.9962 42.1723C25.9962 43.2313 25.1763 44.0598 23.7501 44.0598C22.4092 44.0598 21.3672 43.4192 21.2989 42.1296H23.0839C23.1181 42.5823 23.3828 42.736 23.6903 42.736C23.9892 42.736 24.2198 42.5823 24.2198 42.3004C24.2113 41.3353 21.2904 41.788 21.316 39.6956C21.316 38.517 22.2982 37.885 23.5707 37.885C24.9543 37.885 25.8596 38.5597 25.9194 39.7553H24.1002C24.0831 39.3796 23.8525 39.2087 23.5451 39.2087C23.2974 39.2002 23.101 39.3454 23.101 39.6358C23.101 40.5325 25.9962 40.2422 25.9962 42.1723ZM26.7744 44V37.68H28.4484V39.892C28.7302 39.482 29.2341 39.166 29.9259 39.166C31.0191 39.166 31.7109 39.9518 31.7109 41.2072V44H30.0369V41.4293C30.0369 40.8742 29.7295 40.5496 29.2512 40.5496C28.7558 40.5496 28.4484 40.8742 28.4484 41.4293V44H26.7744ZM32.6294 44V39.2087H34.3033V44H32.6294ZM33.4749 38.7646C32.877 38.7646 32.4927 38.3889 32.4927 37.9106C32.4927 37.4238 32.877 37.0394 33.4749 37.0394C34.0642 37.0394 34.4485 37.4238 34.4485 37.9106C34.4485 38.3889 34.0642 38.7646 33.4749 38.7646ZM35.4103 44V40.6009H34.8894V39.2087H35.4103V39.166C35.4103 37.8423 36.2729 37.159 37.8273 37.27V38.6963C37.3234 38.6451 37.1184 38.7817 37.0928 39.2087H37.8444V40.6009H37.0928V44H35.4103ZM38.7074 42.1809V40.6009H38.1181V39.2087H38.7074V38.0472H40.3899V39.2087H41.261V40.6009H40.3899V42.2065C40.3899 42.4627 40.5009 42.5737 40.7827 42.5737H41.2695V44H40.5436C39.4846 44 38.7074 43.5559 38.7074 42.1809Z"/>
</mask>
<path d="M25.9962 42.1723C25.9962 43.2313 25.1763 44.0598 23.7501 44.0598C22.4092 44.0598 21.3672 43.4192 21.2989 42.1296H23.0839C23.1181 42.5823 23.3828 42.736 23.6903 42.736C23.9892 42.736 24.2198 42.5823 24.2198 42.3004C24.2113 41.3353 21.2904 41.788 21.316 39.6956C21.316 38.517 22.2982 37.885 23.5707 37.885C24.9543 37.885 25.8596 38.5597 25.9194 39.7553H24.1002C24.0831 39.3796 23.8525 39.2087 23.5451 39.2087C23.2974 39.2002 23.101 39.3454 23.101 39.6358C23.101 40.5325 25.9962 40.2422 25.9962 42.1723ZM26.7744 44V37.68H28.4484V39.892C28.7302 39.482 29.2341 39.166 29.9259 39.166C31.0191 39.166 31.7109 39.9518 31.7109 41.2072V44H30.0369V41.4293C30.0369 40.8742 29.7295 40.5496 29.2512 40.5496C28.7558 40.5496 28.4484 40.8742 28.4484 41.4293V44H26.7744ZM32.6294 44V39.2087H34.3033V44H32.6294ZM33.4749 38.7646C32.877 38.7646 32.4927 38.3889 32.4927 37.9106C32.4927 37.4238 32.877 37.0394 33.4749 37.0394C34.0642 37.0394 34.4485 37.4238 34.4485 37.9106C34.4485 38.3889 34.0642 38.7646 33.4749 38.7646ZM35.4103 44V40.6009H34.8894V39.2087H35.4103V39.166C35.4103 37.8423 36.2729 37.159 37.8273 37.27V38.6963C37.3234 38.6451 37.1184 38.7817 37.0928 39.2087H37.8444V40.6009H37.0928V44H35.4103ZM38.7074 42.1809V40.6009H38.1181V39.2087H38.7074V38.0472H40.3899V39.2087H41.261V40.6009H40.3899V42.2065C40.3899 42.4627 40.5009 42.5737 40.7827 42.5737H41.2695V44H40.5436C39.4846 44 38.7074 43.5559 38.7074 42.1809Z" fill="url(#paint3_linear_1313_16215)"/>
<path d="M21.2989 42.1296V42.0296H21.1935L21.1991 42.1349L21.2989 42.1296ZM23.0839 42.1296L23.1836 42.1221L23.1766 42.0296H23.0839V42.1296ZM24.2198 42.3004H24.3198L24.3198 42.2995L24.2198 42.3004ZM21.316 39.6956L21.416 39.6968V39.6956H21.316ZM25.9194 39.7553V39.8553H26.0245L26.0192 39.7503L25.9194 39.7553ZM24.1002 39.7553L24.0003 39.7599L24.0047 39.8553H24.1002V39.7553ZM23.5451 39.2087L23.5416 39.3087H23.5451V39.2087ZM25.9962 42.1723H25.8962C25.8962 42.6748 25.7024 43.1188 25.3417 43.4383C24.9803 43.7585 24.444 43.9598 23.7501 43.9598V44.0598V44.1598C24.4824 44.1598 25.0692 43.9469 25.4743 43.588C25.8801 43.2286 26.0962 42.7289 26.0962 42.1723H25.9962ZM23.7501 44.0598V43.9598C23.0942 43.9598 22.5213 43.803 22.1066 43.4978C21.6948 43.1947 21.4314 42.7402 21.3988 42.1243L21.2989 42.1296L21.1991 42.1349C21.2348 42.8087 21.5265 43.3192 21.988 43.6588C22.4466 43.9963 23.065 44.1598 23.7501 44.1598V44.0598ZM21.2989 42.1296V42.2296H23.0839V42.1296V42.0296H21.2989V42.1296ZM23.0839 42.1296L22.9842 42.1371C23.0027 42.3822 23.0852 42.5613 23.2189 42.6779C23.3514 42.7936 23.5208 42.836 23.6903 42.836V42.736V42.636C23.5523 42.636 23.4355 42.6015 23.3503 42.5272C23.2662 42.4538 23.1993 42.3297 23.1836 42.1221L23.0839 42.1296ZM23.6903 42.736V42.836C23.8556 42.836 24.0114 42.7936 24.1284 42.7029C24.2482 42.6101 24.3198 42.4718 24.3198 42.3004H24.2198H24.1198C24.1198 42.4109 24.0761 42.4904 24.0059 42.5449C23.9328 42.6015 23.8239 42.636 23.6903 42.636V42.736ZM24.2198 42.3004L24.3198 42.2995C24.3171 41.9942 24.0793 41.8175 23.8006 41.6896C23.6579 41.6242 23.4935 41.5664 23.3223 41.509C23.1495 41.4511 22.9699 41.3935 22.7897 41.327C22.429 41.1937 22.0827 41.0299 21.828 40.7784C21.5772 40.5309 21.4099 40.1931 21.416 39.6968L21.316 39.6956L21.216 39.6943C21.2093 40.2443 21.3975 40.6345 21.6875 40.9208C21.9735 41.2031 22.3531 41.3788 22.7204 41.5146C22.9043 41.5825 23.0893 41.6418 23.2587 41.6987C23.4298 41.756 23.5852 41.8109 23.7172 41.8714C23.9877 41.9955 24.1182 42.1241 24.1198 42.3013L24.2198 42.3004ZM21.316 39.6956H21.416C21.416 39.1376 21.6469 38.7145 22.0264 38.4281C22.409 38.1394 22.9496 37.985 23.5707 37.985V37.885V37.785C22.9193 37.785 22.3325 37.9466 21.9059 38.2685C21.4762 38.5927 21.216 39.075 21.216 39.6956H21.316ZM23.5707 37.885V37.985C24.2473 37.985 24.7956 38.15 25.1798 38.4505C25.5617 38.7492 25.7909 39.1888 25.8195 39.7603L25.9194 39.7553L26.0192 39.7503C25.988 39.1262 25.7347 38.6306 25.3031 38.293C24.8738 37.9573 24.2777 37.785 23.5707 37.785V37.885ZM25.9194 39.7553V39.6553H24.1002V39.7553V39.8553H25.9194V39.7553ZM24.1002 39.7553L24.2001 39.7508C24.1907 39.5427 24.121 39.3787 23.999 39.2673C23.8778 39.1566 23.7168 39.1087 23.5451 39.1087V39.2087V39.3087C23.6808 39.3087 23.7889 39.3463 23.8641 39.415C23.9385 39.4829 23.9927 39.5922 24.0003 39.7599L24.1002 39.7553ZM23.5451 39.2087L23.5485 39.1088C23.4048 39.1039 23.2668 39.1433 23.1635 39.2356C23.0589 39.329 23.001 39.4669 23.001 39.6358H23.101H23.201C23.201 39.5143 23.2413 39.4343 23.2968 39.3847C23.3536 39.3339 23.4377 39.3051 23.5416 39.3087L23.5451 39.2087ZM23.101 39.6358H23.001C23.001 39.9256 23.2381 40.0999 23.5104 40.2293C23.6511 40.2962 23.8136 40.3569 23.9834 40.4177C24.1546 40.4789 24.3331 40.5402 24.5124 40.6098C24.8716 40.7491 25.2182 40.916 25.4749 41.1603C25.7278 41.4008 25.8962 41.7189 25.8962 42.1723H25.9962H26.0962C26.0962 41.6606 25.9027 41.2912 25.6128 41.0154C25.3266 40.7431 24.9495 40.5648 24.5848 40.4233C24.4022 40.3525 24.2188 40.2895 24.0507 40.2294C23.8812 40.1687 23.7271 40.1109 23.5963 40.0487C23.3257 39.9201 23.201 39.7943 23.201 39.6358H23.101ZM26.7744 44H26.6744V44.1H26.7744V44ZM26.7744 37.68V37.58H26.6744V37.68H26.7744ZM28.4484 37.68H28.5484V37.58H28.4484V37.68ZM28.4484 39.892H28.3484V40.214L28.5308 39.9486L28.4484 39.892ZM31.7109 44V44.1H31.8109V44H31.7109ZM30.0369 44H29.9369V44.1H30.0369V44ZM28.4484 44V44.1H28.5484V44H28.4484ZM26.7744 44H26.8744V37.68H26.7744H26.6744V44H26.7744ZM26.7744 37.68V37.78H28.4484V37.68V37.58H26.7744V37.68ZM28.4484 37.68H28.3484V39.892H28.4484H28.5484V37.68H28.4484ZM28.4484 39.892L28.5308 39.9486C28.7939 39.5658 29.267 39.266 29.9259 39.266V39.166V39.066C29.2012 39.066 28.6665 39.3982 28.366 39.8353L28.4484 39.892ZM29.9259 39.166V39.266C30.447 39.266 30.8646 39.4524 31.1531 39.7817C31.4429 40.1125 31.6109 40.5972 31.6109 41.2072H31.7109H31.8109C31.8109 40.5618 31.6329 40.0259 31.3035 39.6499C30.9729 39.2725 30.4979 39.066 29.9259 39.066V39.166ZM31.7109 41.2072H31.6109V44H31.7109H31.8109V41.2072H31.7109ZM31.7109 44V43.9H30.0369V44V44.1H31.7109V44ZM30.0369 44H30.1369V41.4293H30.0369H29.9369V44H30.0369ZM30.0369 41.4293H30.1369C30.1369 41.1338 30.0549 40.8875 29.8974 40.7141C29.739 40.5395 29.5139 40.4496 29.2512 40.4496V40.5496V40.6496C29.4667 40.6496 29.6345 40.722 29.7494 40.8485C29.8652 40.9761 29.9369 41.1697 29.9369 41.4293H30.0369ZM29.2512 40.5496V40.4496C28.9809 40.4496 28.7515 40.5388 28.5905 40.7135C28.4304 40.8872 28.3484 41.1338 28.3484 41.4293H28.4484H28.5484C28.5484 41.1697 28.6201 40.9764 28.7375 40.8491C28.8541 40.7227 29.0261 40.6496 29.2512 40.6496V40.5496ZM28.4484 41.4293H28.3484V44H28.4484H28.5484V41.4293H28.4484ZM28.4484 44V43.9H26.7744V44V44.1H28.4484V44ZM32.6294 44H32.5294V44.1H32.6294V44ZM32.6294 39.2087V39.1087H32.5294V39.2087H32.6294ZM34.3033 39.2087H34.4033V39.1087H34.3033V39.2087ZM34.3033 44V44.1H34.4033V44H34.3033ZM32.6294 44H32.7294V39.2087H32.6294H32.5294V44H32.6294ZM32.6294 39.2087V39.3087H34.3033V39.2087V39.1087H32.6294V39.2087ZM34.3033 39.2087H34.2033V44H34.3033H34.4033V39.2087H34.3033ZM34.3033 44V43.9H32.6294V44V44.1H34.3033V44ZM33.4749 38.7646V38.6646C32.9221 38.6646 32.5927 38.324 32.5927 37.9106H32.4927H32.3927C32.3927 38.4537 32.832 38.8646 33.4749 38.8646V38.7646ZM32.4927 37.9106H32.5927C32.5927 37.4868 32.9241 37.1394 33.4749 37.1394V37.0394V36.9394C32.83 36.9394 32.3927 37.3607 32.3927 37.9106H32.4927ZM33.4749 37.0394V37.1394C34.0165 37.1394 34.3485 37.4862 34.3485 37.9106H34.4485H34.5485C34.5485 37.3613 34.1119 36.9394 33.4749 36.9394V37.0394ZM34.4485 37.9106H34.3485C34.3485 38.3245 34.0185 38.6646 33.4749 38.6646V38.7646V38.8646C34.1099 38.8646 34.5485 38.4532 34.5485 37.9106H34.4485ZM35.4103 44H35.3103V44.1H35.4103V44ZM35.4103 40.6009H35.5103V40.5009H35.4103V40.6009ZM34.8894 40.6009H34.7894V40.7009H34.8894V40.6009ZM34.8894 39.2087V39.1087H34.7894V39.2087H34.8894ZM35.4103 39.2087V39.3087H35.5103V39.2087H35.4103ZM37.8273 37.27H37.9273V37.1769L37.8344 37.1703L37.8273 37.27ZM37.8273 38.6963L37.8172 38.7958L37.9273 38.807V38.6963H37.8273ZM37.0928 39.2087L36.993 39.2028L36.9866 39.3087H37.0928V39.2087ZM37.8444 39.2087H37.9444V39.1087H37.8444V39.2087ZM37.8444 40.6009V40.7009H37.9444V40.6009H37.8444ZM37.0928 40.6009V40.5009H36.9928V40.6009H37.0928ZM37.0928 44V44.1H37.1928V44H37.0928ZM35.4103 44H35.5103V40.6009H35.4103H35.3103V44H35.4103ZM35.4103 40.6009V40.5009H34.8894V40.6009V40.7009H35.4103V40.6009ZM34.8894 40.6009H34.9894V39.2087H34.8894H34.7894V40.6009H34.8894ZM34.8894 39.2087V39.3087H35.4103V39.2087V39.1087H34.8894V39.2087ZM35.4103 39.2087H35.5103V39.166H35.4103H35.3103V39.2087H35.4103ZM35.4103 39.166H35.5103C35.5103 38.5267 35.7176 38.0575 36.0977 37.7586C36.4809 37.4572 37.0568 37.3153 37.8202 37.3698L37.8273 37.27L37.8344 37.1703C37.0434 37.1138 36.4108 37.2579 35.9741 37.6014C35.5343 37.9472 35.3103 38.4816 35.3103 39.166H35.4103ZM37.8273 37.27H37.7273V38.6963H37.8273H37.9273V37.27H37.8273ZM37.8273 38.6963L37.8374 38.5968C37.5809 38.5707 37.3723 38.5883 37.2239 38.6909C37.0692 38.7977 37.0066 38.9767 36.993 39.2028L37.0928 39.2087L37.1926 39.2147C37.2047 39.0137 37.2573 38.9109 37.3376 38.8555C37.424 38.7957 37.5698 38.7706 37.8172 38.7958L37.8273 38.6963ZM37.0928 39.2087V39.3087H37.8444V39.2087V39.1087H37.0928V39.2087ZM37.8444 39.2087H37.7444V40.6009H37.8444H37.9444V39.2087H37.8444ZM37.8444 40.6009V40.5009H37.0928V40.6009V40.7009H37.8444V40.6009ZM37.0928 40.6009H36.9928V44H37.0928H37.1928V40.6009H37.0928ZM37.0928 44V43.9H35.4103V44V44.1H37.0928V44ZM38.7074 40.6009H38.8074V40.5009H38.7074V40.6009ZM38.1181 40.6009H38.0181V40.7009H38.1181V40.6009ZM38.1181 39.2087V39.1087H38.0181V39.2087H38.1181ZM38.7074 39.2087V39.3087H38.8074V39.2087H38.7074ZM38.7074 38.0472V37.9472H38.6074V38.0472H38.7074ZM40.3899 38.0472H40.4899V37.9472H40.3899V38.0472ZM40.3899 39.2087H40.2899V39.3087H40.3899V39.2087ZM41.261 39.2087H41.361V39.1087H41.261V39.2087ZM41.261 40.6009V40.7009H41.361V40.6009H41.261ZM40.3899 40.6009V40.5009H40.2899V40.6009H40.3899ZM41.2695 42.5737H41.3695V42.4737H41.2695V42.5737ZM41.2695 44V44.1H41.3695V44H41.2695ZM38.7074 42.1809H38.8074V40.6009H38.7074H38.6074V42.1809H38.7074ZM38.7074 40.6009V40.5009H38.1181V40.6009V40.7009H38.7074V40.6009ZM38.1181 40.6009H38.2181V39.2087H38.1181H38.0181V40.6009H38.1181ZM38.1181 39.2087V39.3087H38.7074V39.2087V39.1087H38.1181V39.2087ZM38.7074 39.2087H38.8074V38.0472H38.7074H38.6074V39.2087H38.7074ZM38.7074 38.0472V38.1472H40.3899V38.0472V37.9472H38.7074V38.0472ZM40.3899 38.0472H40.2899V39.2087H40.3899H40.4899V38.0472H40.3899ZM40.3899 39.2087V39.3087H41.261V39.2087V39.1087H40.3899V39.2087ZM41.261 39.2087H41.161V40.6009H41.261H41.361V39.2087H41.261ZM41.261 40.6009V40.5009H40.3899V40.6009V40.7009H41.261V40.6009ZM40.3899 40.6009H40.2899V42.2065H40.3899H40.4899V40.6009H40.3899ZM40.3899 42.2065H40.2899C40.2899 42.3464 40.3199 42.4715 40.4118 42.5587C40.5024 42.6447 40.6322 42.6737 40.7827 42.6737V42.5737V42.4737C40.6514 42.4737 40.5848 42.4472 40.5495 42.4137C40.5154 42.3813 40.4899 42.3228 40.4899 42.2065H40.3899ZM40.7827 42.5737V42.6737H41.2695V42.5737V42.4737H40.7827V42.5737ZM41.2695 42.5737H41.1695V44H41.2695H41.3695V42.5737H41.2695ZM41.2695 44V43.9H40.5436V44V44.1H41.2695V44ZM40.5436 44V43.9C40.0256 43.9 39.5947 43.791 39.2938 43.5305C38.9958 43.2724 38.8074 42.8496 38.8074 42.1809H38.7074H38.6074C38.6074 42.8872 38.8076 43.374 39.1629 43.6817C39.5154 43.9869 40.0026 44.1 40.5436 44.1V44Z" fill="white" fill-opacity="0.8" mask="url(#path-6-inside-1_1313_16215)"/>
<path d="M74.0203 51.3405C74.5634 51.2418 75.3162 51.2171 76.2789 51.2665C77.2415 51.2911 77.7969 51.3528 77.945 51.4516C78.1178 51.575 78.2659 51.7848 78.3893 52.081C78.5128 52.3772 78.5745 52.6734 78.5745 52.9696C78.5745 53.6114 78.3646 54.0434 77.945 54.2655C77.5501 54.4877 76.7726 54.6111 75.6124 54.6358C74.6251 54.6604 73.8352 54.7098 73.2428 54.7839C72.601 54.8826 72.1691 54.932 71.9469 54.932C71.7001 54.9813 71.5396 55.0801 71.4656 55.2282C71.3915 55.3763 71.3545 55.7342 71.3545 56.3019C71.3545 56.8203 71.4039 57.1041 71.5026 57.1535C71.5767 57.1782 72.0703 57.1658 72.9836 57.1165C73.9216 57.0424 74.551 56.9807 74.8719 56.9313C75.884 56.7585 76.5751 56.6722 76.9453 56.6722C77.3403 56.6722 77.6241 56.7585 77.7969 56.9313C78.0931 57.2028 78.2165 57.5854 78.1672 58.0791C78.1425 58.5481 77.9821 58.8813 77.6859 59.0788C77.0194 59.5231 75.2545 59.7823 72.3912 59.8563C71.552 59.8563 71.0583 59.8687 70.9102 59.8934C70.7621 59.918 70.6634 59.9921 70.614 60.1155C70.5153 60.313 70.4659 60.5598 70.4659 60.856C70.4659 61.1275 70.5153 61.325 70.614 61.4484C70.8855 61.7199 71.8976 61.7446 73.6501 61.5225C75.4273 61.3003 77.1552 60.9177 78.8336 60.3747C79.7222 60.0785 80.4134 60.0415 80.9071 60.2636C81.4254 60.4858 81.6846 60.9301 81.6846 61.5965C81.6846 62.0655 81.4501 62.4975 80.9811 62.8924C80.5121 63.2873 79.9938 63.4848 79.426 63.4848C79.2779 63.4848 78.8953 63.5589 78.2783 63.707C77.6612 63.8551 77.1922 63.9908 76.8713 64.1142L76.464 64.2623V67.5206L76.501 70.7418L77.7599 70.7047C79.0928 70.6801 80.2406 70.5566 81.2033 70.3345C81.4995 70.2604 81.8944 70.1864 82.3881 70.1123C82.6843 70.0877 83.0792 70.0383 83.5729 69.9642C84.0419 69.8902 84.4368 70.063 84.7577 70.4826C85.0786 70.8775 85.1773 71.3218 85.0539 71.8155C84.5602 73.6421 80.8453 74.432 73.9093 74.1851C71.3915 74.1111 69.7007 74.1728 68.8368 74.3703C68.2197 74.5184 67.7384 74.469 67.3928 74.2222C67.0472 73.9753 66.8621 73.5434 66.8374 72.9263C66.8127 72.087 67.1213 71.507 67.7631 71.1861C68.4295 70.8652 69.6143 70.7047 71.3175 70.7047C71.4656 70.7047 71.6507 70.7047 71.8729 70.7047C72.5887 70.7294 73.0083 70.643 73.1317 70.4456C73.2552 70.2481 73.2922 69.5816 73.2428 68.4462C73.2181 68.1006 73.2058 67.8291 73.2058 67.6316C73.2058 67.4589 73.1934 67.212 73.1688 66.8911C73.1441 65.8544 73.0824 65.2497 72.9836 65.0769C72.9096 64.9041 72.6134 64.8177 72.095 64.8177C71.9222 64.793 71.7988 64.7807 71.7248 64.7807C70.6634 64.7313 69.8859 64.5956 69.3922 64.3734C68.8985 64.1266 68.5036 63.7193 68.2074 63.1516C67.9359 62.6085 67.7631 61.8434 67.689 60.856C67.6396 59.844 67.7014 58.8073 67.8741 57.7459C68.0469 56.7092 68.1333 55.981 68.1333 55.5614C68.158 55.1418 68.084 54.7962 67.9112 54.5247C67.7384 54.2285 67.652 53.8459 67.652 53.3769C67.652 52.8339 67.7507 52.4759 67.9482 52.3032C68.1703 52.1304 68.6764 51.9946 69.4662 51.8959C70.0586 51.8218 70.577 51.7601 71.0213 51.7108C71.4656 51.6614 71.984 51.5997 72.5764 51.5256C73.1194 51.4516 73.6007 51.3899 74.0203 51.3405ZM96.8638 49.0079C97.1106 48.9092 97.5426 48.8845 98.1597 48.9339C98.8015 48.9832 99.1964 49.0573 99.3445 49.156C99.7394 49.4522 99.9739 49.8348 100.048 50.3038C100.147 50.7481 100.06 51.143 99.7888 51.4886C99.542 51.8342 99.1717 52.007 98.678 52.007C98.5299 52.007 98.3572 52.0316 98.1597 52.081C97.9869 52.1551 97.4562 52.2291 96.5676 52.3032C95.4568 52.3772 94.4448 52.55 93.5315 52.8215C93.26 52.8956 93.0749 52.9943 92.9762 53.1177C92.9021 53.2411 92.7417 53.6237 92.4948 54.2655C92.1493 55.1047 92.0135 55.6231 92.0875 55.8206C92.1616 56.018 92.4701 56.0674 93.0132 55.9687C93.4328 55.8946 93.8154 55.8576 94.161 55.8576C94.4818 55.8576 94.8274 55.8082 95.1977 55.7095C95.6913 55.6108 96.1233 55.5367 96.4936 55.4873C97.0366 55.3886 97.3822 55.3022 97.5303 55.2282C97.7524 55.1788 98.3325 55.1418 99.2705 55.1171C100.233 55.0924 100.801 55.1171 100.974 55.1911C101.27 55.3146 101.492 55.6108 101.64 56.0797C101.788 56.524 101.763 56.8696 101.566 57.1165C101.443 57.2399 101.295 57.3386 101.122 57.4127C100.949 57.4867 100.48 57.6595 99.7148 57.931C99.0483 58.1532 98.6657 58.3259 98.567 58.4494C98.4682 58.5728 98.3942 58.9801 98.3448 59.6712C98.1967 60.9301 98.2584 61.6706 98.5299 61.8927C98.8015 62.1149 99.6654 62.1272 101.122 61.9297C101.689 61.8557 102.319 61.831 103.01 61.8557C103.726 61.8557 104.158 61.9051 104.306 62.0038C104.479 62.0778 104.688 62.2753 104.935 62.5962C105.182 62.9171 105.33 63.1886 105.38 63.4108C105.503 63.9044 105.244 64.3241 104.602 64.6696C103.96 65.0152 103.195 65.1386 102.307 65.0399C101.813 64.9905 101.023 64.9905 99.9369 65.0399C98.8755 65.0646 98.0486 65.1139 97.4562 65.188C96.148 65.4101 94.9138 65.5212 93.7537 65.5212C92.9144 65.4965 91.2236 65.6076 88.6812 65.8544C87.5211 65.9532 86.941 65.4842 86.941 64.4475C86.941 63.9044 87.1632 63.5095 87.6075 63.2627C88.0518 63.0158 88.854 62.8307 90.0141 62.7073C90.4091 62.6579 91.0755 62.5839 92.0135 62.4851C92.754 62.3864 93.3094 62.3247 93.6796 62.3C94.1486 62.3 94.4201 62.2383 94.4942 62.1149C94.5929 61.9668 94.6546 61.4731 94.6793 60.6339C94.7287 59.7699 94.7163 59.2886 94.6423 59.1899C94.5682 59.0665 94.2227 59.0418 93.6056 59.1158C92.7417 59.2392 91.9271 59.2763 91.1619 59.2269C90.3967 59.1775 89.903 59.0665 89.6809 58.8937C89.1379 58.4494 88.8293 57.9434 88.7553 57.3756C88.6812 56.7832 88.8046 55.8699 89.1255 54.6358C89.2983 53.994 89.36 53.599 89.3106 53.4509C89.286 53.3028 89.1008 53.1054 88.7553 52.8585C88.3356 52.5623 88.0888 52.2908 88.0148 52.044C87.9407 51.7725 88.0024 51.4392 88.1999 51.0443C88.348 50.7481 88.5084 50.5506 88.6812 50.4519C88.8787 50.3285 89.1625 50.2421 89.5328 50.1927C90.1252 50.094 90.5201 50.0199 90.7176 49.9706C91.0632 49.8965 91.4458 49.8348 91.8654 49.7854C92.0382 49.7608 92.6182 49.6744 93.6056 49.5263C94.4448 49.3782 95.136 49.2671 95.679 49.193C96.3208 49.119 96.7157 49.0573 96.8638 49.0079ZM100.455 67.3354C100.653 67.2861 100.912 67.2737 101.233 67.2984C101.554 67.3231 101.776 67.3725 101.899 67.4465C102.294 67.6687 102.541 67.9155 102.64 68.187C102.738 68.4339 102.788 68.9152 102.788 69.631C102.813 70.4456 102.862 71.0256 102.936 71.3712C103.109 72.1117 103.183 73.062 103.158 74.2222C103.158 75.407 103.084 76.0858 102.936 76.2585C102.738 76.456 102.307 76.6905 101.64 76.962C101.171 77.1595 100.714 77.0237 100.27 76.5547C99.8258 76.0858 99.6407 75.5304 99.7148 74.8886C99.7394 74.5184 99.7148 74.0987 99.6407 73.6297C99.5913 73.2595 99.542 72.6671 99.4926 71.8525C99.4926 71.7785 99.4926 71.6797 99.4926 71.5563C99.4432 70.9639 99.3322 70.6184 99.1594 70.5196C99.0113 70.4209 98.4436 70.4085 97.4562 70.4826C97.2587 70.4826 97.1106 70.4826 97.0119 70.4826C95.679 70.5566 94.7534 70.6307 94.235 70.7047C91.9888 71.0256 90.6312 71.1737 90.1622 71.1491C89.6932 71.1244 89.3477 70.9022 89.1255 70.4826C88.7799 69.8161 88.7429 69.2361 89.0144 68.7424C89.286 68.2487 89.7796 68.0019 90.4955 68.0019C90.8657 68.0019 91.273 67.9649 91.7173 67.8908C92.1616 67.8415 92.8034 67.7797 93.6426 67.7057C94.9508 67.607 95.9258 67.5329 96.5676 67.4835C97.5796 67.3601 98.4312 67.3108 99.1224 67.3354C99.7888 67.3601 100.233 67.3601 100.455 67.3354ZM109.039 69.2608C109.286 69.1867 109.718 69.1497 110.335 69.1497C110.976 69.1497 111.371 69.1867 111.519 69.2608C112.334 69.6804 112.754 70.3345 112.778 71.2231C112.803 72.087 112.445 72.9139 111.705 73.7038C111.433 73.9753 111.223 74.1358 111.075 74.1851C110.952 74.2345 110.643 74.2592 110.15 74.2592C109.483 74.2592 109.039 74.2222 108.817 74.1481C108.594 74.0987 108.36 73.963 108.113 73.7408C107.274 73.0003 107.064 72.2104 107.484 71.3712C108.101 70.0877 108.619 69.3842 109.039 69.2608ZM116.415 69.2608C116.662 69.1867 117.094 69.1497 117.711 69.1497C118.353 69.1497 118.748 69.1867 118.896 69.2608C119.71 69.6804 120.13 70.3345 120.154 71.2231C120.179 72.087 119.821 72.9139 119.081 73.7038C118.809 73.9753 118.599 74.1358 118.451 74.1851C118.328 74.2345 118.019 74.2592 117.526 74.2592C116.859 74.2592 116.415 74.2222 116.193 74.1481C115.971 74.0987 115.736 73.963 115.489 73.7408C114.65 73.0003 114.44 72.2104 114.86 71.3712C115.477 70.0877 115.995 69.3842 116.415 69.2608Z" fill="#0C0C0C"/>
<mask id="path-9-inside-2_1313_16215" fill="white">
<path d="M49.528 105.36V106.607H53.73V107.692H48.1444V105.36H49.528ZM49.4084 101.654C49.4084 102.072 49.955 102.243 50.9287 102.243C51.9108 102.243 52.4489 102.072 52.4489 101.654C52.4489 101.244 51.9108 101.056 50.9287 101.056C49.955 101.056 49.4084 101.244 49.4084 101.654ZM51.6034 103.84H54.5499V104.925H47.2989V103.84H50.2198V103.293C48.8618 103.148 47.9822 102.542 47.9822 101.654C47.9822 100.62 49.1693 99.9797 50.9287 99.9797C52.688 99.9797 53.8752 100.62 53.8752 101.654C53.8752 102.559 52.9784 103.157 51.6034 103.302V103.84ZM57.3334 106.394V106.718H61.7745V107.769H55.9498V105.394H60.186V105.07H55.9413V104.019H61.5695V106.394H57.3334ZM61.467 102.525H62.415V103.601H55.1641V102.525H60.0835C60.1945 101.995 60.2287 101.568 60.2372 101.184H56.0352V100.099H61.6122V100.654C61.6122 101.158 61.6122 101.782 61.467 102.525ZM69.7507 99.7918V104.421H68.3671V99.7918H69.7507ZM63.4307 101.739H65.805V101.269H63.4222V100.176H67.2142V102.738H64.8399V103.234C66.1039 103.217 66.9323 103.174 67.812 103.003L67.9657 104.071C66.9067 104.276 65.8818 104.31 64.1481 104.31H63.4307V101.739ZM66.4882 105.787V106.658H67.5558V105.787H66.4882ZM68.9137 106.658H69.8959V107.726H64.1225V106.658H65.1303V105.787H64.2079V104.72H69.8276V105.787H68.9137V106.658ZM75.7661 100.381V101.389C75.7661 102.892 76.2187 104.352 77.6877 104.967L76.8934 106.078C76.0052 105.685 75.433 104.993 75.0828 104.113C74.7412 105.078 74.1434 105.864 73.1868 106.291L72.3755 105.147C73.8786 104.523 74.374 102.969 74.374 101.389V100.381H75.7661ZM77.8243 99.7832H79.2079V107.837H77.8243V99.7832ZM83.9729 101.124C83.0249 101.124 82.4441 101.363 82.4441 101.859C82.4441 102.362 83.0249 102.602 83.9729 102.602C84.9294 102.602 85.5016 102.362 85.5016 101.859C85.5016 101.363 84.9294 101.124 83.9729 101.124ZM83.9729 103.686C82.2391 103.686 81.0264 102.977 81.0264 101.859C81.0264 100.757 82.2391 100.039 83.9729 100.039C85.7066 100.039 86.9194 100.757 86.9194 101.859C86.9194 102.977 85.7066 103.686 83.9729 103.686ZM87.6197 104.216V105.318H84.6561V107.82H83.2726V105.318H80.3688V104.216H87.6197ZM92.2139 102.764V99.9028H93.4949V107.47H92.2139V105.215L91.5135 106.18C90.8644 105.856 90.4374 105.318 90.1556 104.651C89.8994 105.386 89.4638 106.001 88.7976 106.377L88.029 105.343C89.2076 104.66 89.4894 103.396 89.4894 102.209V102.166H88.3791V101.064H89.4894V100.048H90.7961V101.064H91.8979V102.166H90.7961V102.209C90.7961 103.37 91.078 104.523 92.2139 105.147V103.866H91.4794V102.764H92.2139ZM93.8366 99.7918H95.1433V107.803H93.8366V99.7918Z"/>
</mask>
<path d="M49.528 105.36V106.607H53.73V107.692H48.1444V105.36H49.528ZM49.4084 101.654C49.4084 102.072 49.955 102.243 50.9287 102.243C51.9108 102.243 52.4489 102.072 52.4489 101.654C52.4489 101.244 51.9108 101.056 50.9287 101.056C49.955 101.056 49.4084 101.244 49.4084 101.654ZM51.6034 103.84H54.5499V104.925H47.2989V103.84H50.2198V103.293C48.8618 103.148 47.9822 102.542 47.9822 101.654C47.9822 100.62 49.1693 99.9797 50.9287 99.9797C52.688 99.9797 53.8752 100.62 53.8752 101.654C53.8752 102.559 52.9784 103.157 51.6034 103.302V103.84ZM57.3334 106.394V106.718H61.7745V107.769H55.9498V105.394H60.186V105.07H55.9413V104.019H61.5695V106.394H57.3334ZM61.467 102.525H62.415V103.601H55.1641V102.525H60.0835C60.1945 101.995 60.2287 101.568 60.2372 101.184H56.0352V100.099H61.6122V100.654C61.6122 101.158 61.6122 101.782 61.467 102.525ZM69.7507 99.7918V104.421H68.3671V99.7918H69.7507ZM63.4307 101.739H65.805V101.269H63.4222V100.176H67.2142V102.738H64.8399V103.234C66.1039 103.217 66.9323 103.174 67.812 103.003L67.9657 104.071C66.9067 104.276 65.8818 104.31 64.1481 104.31H63.4307V101.739ZM66.4882 105.787V106.658H67.5558V105.787H66.4882ZM68.9137 106.658H69.8959V107.726H64.1225V106.658H65.1303V105.787H64.2079V104.72H69.8276V105.787H68.9137V106.658ZM75.7661 100.381V101.389C75.7661 102.892 76.2187 104.352 77.6877 104.967L76.8934 106.078C76.0052 105.685 75.433 104.993 75.0828 104.113C74.7412 105.078 74.1434 105.864 73.1868 106.291L72.3755 105.147C73.8786 104.523 74.374 102.969 74.374 101.389V100.381H75.7661ZM77.8243 99.7832H79.2079V107.837H77.8243V99.7832ZM83.9729 101.124C83.0249 101.124 82.4441 101.363 82.4441 101.859C82.4441 102.362 83.0249 102.602 83.9729 102.602C84.9294 102.602 85.5016 102.362 85.5016 101.859C85.5016 101.363 84.9294 101.124 83.9729 101.124ZM83.9729 103.686C82.2391 103.686 81.0264 102.977 81.0264 101.859C81.0264 100.757 82.2391 100.039 83.9729 100.039C85.7066 100.039 86.9194 100.757 86.9194 101.859C86.9194 102.977 85.7066 103.686 83.9729 103.686ZM87.6197 104.216V105.318H84.6561V107.82H83.2726V105.318H80.3688V104.216H87.6197ZM92.2139 102.764V99.9028H93.4949V107.47H92.2139V105.215L91.5135 106.18C90.8644 105.856 90.4374 105.318 90.1556 104.651C89.8994 105.386 89.4638 106.001 88.7976 106.377L88.029 105.343C89.2076 104.66 89.4894 103.396 89.4894 102.209V102.166H88.3791V101.064H89.4894V100.048H90.7961V101.064H91.8979V102.166H90.7961V102.209C90.7961 103.37 91.078 104.523 92.2139 105.147V103.866H91.4794V102.764H92.2139ZM93.8366 99.7918H95.1433V107.803H93.8366V99.7918Z" fill="url(#paint4_linear_1313_16215)"/>
<path d="M49.528 105.36H49.628V105.26H49.528V105.36ZM49.528 106.607H49.428V106.707H49.528V106.607ZM53.73 106.607H53.83V106.507H53.73V106.607ZM53.73 107.692V107.792H53.83V107.692H53.73ZM48.1444 107.692H48.0444V107.792H48.1444V107.692ZM48.1444 105.36V105.26H48.0444V105.36H48.1444ZM51.6034 103.84H51.5034V103.94H51.6034V103.84ZM54.5499 103.84H54.6499V103.74H54.5499V103.84ZM54.5499 104.925V105.025H54.6499V104.925H54.5499ZM47.2989 104.925H47.1989V105.025H47.2989V104.925ZM47.2989 103.84V103.74H47.1989V103.84H47.2989ZM50.2198 103.84V103.94H50.3198V103.84H50.2198ZM50.2198 103.293H50.3198V103.204L50.2304 103.194L50.2198 103.293ZM51.6034 103.302L51.5929 103.202L51.5034 103.212V103.302H51.6034ZM49.528 105.36H49.428V106.607H49.528H49.628V105.36H49.528ZM49.528 106.607V106.707H53.73V106.607V106.507H49.528V106.607ZM53.73 106.607H53.63V107.692H53.73H53.83V106.607H53.73ZM53.73 107.692V107.592H48.1444V107.692V107.792H53.73V107.692ZM48.1444 107.692H48.2444V105.36H48.1444H48.0444V107.692H48.1444ZM48.1444 105.36V105.46H49.528V105.36V105.26H48.1444V105.36ZM49.4084 101.654H49.3084C49.3084 101.782 49.3513 101.895 49.4343 101.989C49.5153 102.08 49.6304 102.148 49.7689 102.199C50.0444 102.3 50.439 102.343 50.9287 102.343V102.243V102.143C50.4447 102.143 50.0792 102.1 49.838 102.011C49.7181 101.967 49.6357 101.914 49.5838 101.856C49.5339 101.8 49.5084 101.734 49.5084 101.654H49.4084ZM50.9287 102.243V102.343C51.4225 102.343 51.8172 102.3 52.0917 102.199C52.2298 102.148 52.3442 102.08 52.4246 101.988C52.5068 101.895 52.5489 101.782 52.5489 101.654H52.4489H52.3489C52.3489 101.735 52.3237 101.8 52.2743 101.856C52.2232 101.914 52.1416 101.967 52.0224 102.011C51.7824 102.1 51.417 102.143 50.9287 102.143V102.243ZM52.4489 101.654H52.5489C52.5489 101.527 52.5065 101.415 52.4247 101.321C52.3447 101.23 52.2308 101.16 52.0927 101.108C51.8181 101.003 51.4233 100.956 50.9287 100.956V101.056V101.156C51.4162 101.156 51.7815 101.203 52.0214 101.294C52.1407 101.34 52.2226 101.394 52.2742 101.453C52.324 101.51 52.3489 101.575 52.3489 101.654H52.4489ZM50.9287 101.056V100.956C50.4382 100.956 50.0435 101.003 49.7679 101.107C49.6294 101.16 49.5148 101.23 49.4341 101.321C49.3516 101.414 49.3084 101.527 49.3084 101.654H49.4084H49.5084C49.5084 101.576 49.5336 101.511 49.584 101.453C49.6362 101.394 49.7191 101.34 49.839 101.294C50.0801 101.203 50.4455 101.156 50.9287 101.156V101.056ZM51.6034 103.84V103.94H54.5499V103.84V103.74H51.6034V103.84ZM54.5499 103.84H54.4499V104.925H54.5499H54.6499V103.84H54.5499ZM54.5499 104.925V104.825H47.2989V104.925V105.025H54.5499V104.925ZM47.2989 104.925H47.3989V103.84H47.2989H47.1989V104.925H47.2989ZM47.2989 103.84V103.94H50.2198V103.84V103.74H47.2989V103.84ZM50.2198 103.84H50.3198V103.293H50.2198H50.1198V103.84H50.2198ZM50.2198 103.293L50.2304 103.194C49.5622 103.123 49.0213 102.938 48.6502 102.671C48.2816 102.405 48.0822 102.06 48.0822 101.654H47.9822H47.8822C47.8822 102.136 48.1226 102.537 48.5333 102.833C48.9415 103.127 49.5194 103.319 50.2092 103.393L50.2198 103.293ZM47.9822 101.654H48.0822C48.0822 101.182 48.3503 100.793 48.8445 100.516C49.3413 100.238 50.0592 100.08 50.9287 100.08V99.9797V99.8797C50.0388 99.8797 49.2835 100.041 48.7468 100.342C48.2076 100.644 47.8822 101.091 47.8822 101.654H47.9822ZM50.9287 99.9797V100.08C51.7981 100.08 52.5161 100.238 53.0128 100.516C53.507 100.793 53.7752 101.182 53.7752 101.654H53.8752H53.9752C53.9752 101.091 53.6497 100.644 53.1105 100.342C52.5739 100.041 51.8186 99.8797 50.9287 99.8797V99.9797ZM53.8752 101.654H53.7752C53.7752 102.068 53.5718 102.416 53.1971 102.681C52.8196 102.949 52.2701 103.131 51.5929 103.202L51.6034 103.302L51.6139 103.401C52.3117 103.328 52.898 103.138 53.3127 102.844C53.7302 102.548 53.9752 102.144 53.9752 101.654H53.8752ZM51.6034 103.302H51.5034V103.84H51.6034H51.7034V103.302H51.6034ZM57.3334 106.394V106.294H57.2334V106.394H57.3334ZM57.3334 106.718H57.2334V106.818H57.3334V106.718ZM61.7745 106.718H61.8745V106.618H61.7745V106.718ZM61.7745 107.769V107.869H61.8745V107.769H61.7745ZM55.9498 107.769H55.8498V107.869H55.9498V107.769ZM55.9498 105.394V105.294H55.8498V105.394H55.9498ZM60.186 105.394V105.494H60.286V105.394H60.186ZM60.186 105.07H60.286V104.97H60.186V105.07ZM55.9413 105.07H55.8413V105.17H55.9413V105.07ZM55.9413 104.019V103.919H55.8413V104.019H55.9413ZM61.5695 104.019H61.6695V103.919H61.5695V104.019ZM61.5695 106.394V106.494H61.6695V106.394H61.5695ZM61.467 102.525L61.3689 102.506L61.3456 102.625H61.467V102.525ZM62.415 102.525H62.515V102.425H62.415V102.525ZM62.415 103.601V103.701H62.515V103.601H62.415ZM55.1641 103.601H55.0641V103.701H55.1641V103.601ZM55.1641 102.525V102.425H55.0641V102.525H55.1641ZM60.0835 102.525V102.625H60.1647L60.1813 102.545L60.0835 102.525ZM60.2372 101.184L60.3372 101.186L60.3394 101.084H60.2372V101.184ZM56.0352 101.184H55.9352V101.284H56.0352V101.184ZM56.0352 100.099V99.9992H55.9352V100.099H56.0352ZM61.6122 100.099H61.7122V99.9992H61.6122V100.099ZM57.3334 106.394H57.2334V106.718H57.3334H57.4334V106.394H57.3334ZM57.3334 106.718V106.818H61.7745V106.718V106.618H57.3334V106.718ZM61.7745 106.718H61.6745V107.769H61.7745H61.8745V106.718H61.7745ZM61.7745 107.769V107.669H55.9498V107.769V107.869H61.7745V107.769ZM55.9498 107.769H56.0498V105.394H55.9498H55.8498V107.769H55.9498ZM55.9498 105.394V105.494H60.186V105.394V105.294H55.9498V105.394ZM60.186 105.394H60.286V105.07H60.186H60.086V105.394H60.186ZM60.186 105.07V104.97H55.9413V105.07V105.17H60.186V105.07ZM55.9413 105.07H56.0413V104.019H55.9413H55.8413V105.07H55.9413ZM55.9413 104.019V104.119H61.5695V104.019V103.919H55.9413V104.019ZM61.5695 104.019H61.4695V106.394H61.5695H61.6695V104.019H61.5695ZM61.5695 106.394V106.294H57.3334V106.394V106.494H61.5695V106.394ZM61.467 102.525V102.625H62.415V102.525V102.425H61.467V102.525ZM62.415 102.525H62.315V103.601H62.415H62.515V102.525H62.415ZM62.415 103.601V103.501H55.1641V103.601V103.701H62.415V103.601ZM55.1641 103.601H55.2641V102.525H55.1641H55.0641V103.601H55.1641ZM55.1641 102.525V102.625H60.0835V102.525V102.425H55.1641V102.525ZM60.0835 102.525L60.1813 102.545C60.2939 102.009 60.3285 101.575 60.3372 101.186L60.2372 101.184L60.1372 101.182C60.1288 101.561 60.0951 101.982 59.9856 102.504L60.0835 102.525ZM60.2372 101.184V101.084H56.0352V101.184V101.284H60.2372V101.184ZM56.0352 101.184H56.1352V100.099H56.0352H55.9352V101.184H56.0352ZM56.0352 100.099V100.199H61.6122V100.099V99.9992H56.0352V100.099ZM61.6122 100.099H61.5122V100.654H61.6122H61.7122V100.099H61.6122ZM61.6122 100.654H61.5122C61.5122 101.158 61.5121 101.773 61.3689 102.506L61.467 102.525L61.5652 102.544C61.7124 101.791 61.7122 101.159 61.7122 100.654H61.6122ZM69.7507 99.7918H69.8507V99.6918H69.7507V99.7918ZM69.7507 104.421V104.521H69.8507V104.421H69.7507ZM68.3671 104.421H68.2671V104.521H68.3671V104.421ZM68.3671 99.7918V99.6918H68.2671V99.7918H68.3671ZM63.4307 101.739V101.639H63.3307V101.739H63.4307ZM65.805 101.739V101.839H65.905V101.739H65.805ZM65.805 101.269H65.905V101.169H65.805V101.269ZM63.4222 101.269H63.3222V101.369H63.4222V101.269ZM63.4222 100.176V100.076H63.3222V100.176H63.4222ZM67.2142 100.176H67.3142V100.076H67.2142V100.176ZM67.2142 102.738V102.838H67.3142V102.738H67.2142ZM64.8399 102.738V102.638H64.7399V102.738H64.8399ZM64.8399 103.234H64.7399V103.335L64.8412 103.334L64.8399 103.234ZM67.812 103.003L67.911 102.989L67.896 102.885L67.7929 102.905L67.812 103.003ZM67.9657 104.071L67.9847 104.169L68.0783 104.151L68.0647 104.056L67.9657 104.071ZM63.4307 104.31H63.3307V104.41H63.4307V104.31ZM66.4882 105.787V105.687H66.3882V105.787H66.4882ZM66.4882 106.658H66.3882V106.758H66.4882V106.658ZM67.5558 106.658V106.758H67.6558V106.658H67.5558ZM67.5558 105.787H67.6558V105.687H67.5558V105.787ZM68.9137 106.658H68.8137V106.758H68.9137V106.658ZM69.8959 106.658H69.9959V106.558H69.8959V106.658ZM69.8959 107.726V107.826H69.9959V107.726H69.8959ZM64.1225 107.726H64.0225V107.826H64.1225V107.726ZM64.1225 106.658V106.558H64.0225V106.658H64.1225ZM65.1303 106.658V106.758H65.2303V106.658H65.1303ZM65.1303 105.787H65.2303V105.687H65.1303V105.787ZM64.2079 105.787H64.1079V105.887H64.2079V105.787ZM64.2079 104.72V104.62H64.1079V104.72H64.2079ZM69.8276 104.72H69.9276V104.62H69.8276V104.72ZM69.8276 105.787V105.887H69.9276V105.787H69.8276ZM68.9137 105.787V105.687H68.8137V105.787H68.9137ZM69.7507 99.7918H69.6507V104.421H69.7507H69.8507V99.7918H69.7507ZM69.7507 104.421V104.321H68.3671V104.421V104.521H69.7507V104.421ZM68.3671 104.421H68.4671V99.7918H68.3671H68.2671V104.421H68.3671ZM68.3671 99.7918V99.8918H69.7507V99.7918V99.6918H68.3671V99.7918ZM63.4307 101.739V101.839H65.805V101.739V101.639H63.4307V101.739ZM65.805 101.739H65.905V101.269H65.805H65.705V101.739H65.805ZM65.805 101.269V101.169H63.4222V101.269V101.369H65.805V101.269ZM63.4222 101.269H63.5222V100.176H63.4222H63.3222V101.269H63.4222ZM63.4222 100.176V100.276H67.2142V100.176V100.076H63.4222V100.176ZM67.2142 100.176H67.1142V102.738H67.2142H67.3142V100.176H67.2142ZM67.2142 102.738V102.638H64.8399V102.738V102.838H67.2142V102.738ZM64.8399 102.738H64.7399V103.234H64.8399H64.9399V102.738H64.8399ZM64.8399 103.234L64.8412 103.334C66.1063 103.317 66.9422 103.274 67.8311 103.101L67.812 103.003L67.7929 102.905C66.9225 103.074 66.1014 103.117 64.8385 103.134L64.8399 103.234ZM67.812 103.003L67.713 103.017L67.8668 104.085L67.9657 104.071L68.0647 104.056L67.911 102.989L67.812 103.003ZM67.9657 104.071L67.9467 103.972C66.8981 104.175 65.8818 104.21 64.1481 104.21V104.31V104.41C65.8819 104.41 66.9153 104.376 67.9847 104.169L67.9657 104.071ZM64.1481 104.31V104.21H63.4307V104.31V104.41H64.1481V104.31ZM63.4307 104.31H63.5307V101.739H63.4307H63.3307V104.31H63.4307ZM66.4882 105.787H66.3882V106.658H66.4882H66.5882V105.787H66.4882ZM66.4882 106.658V106.758H67.5558V106.658V106.558H66.4882V106.658ZM67.5558 106.658H67.6558V105.787H67.5558H67.4558V106.658H67.5558ZM67.5558 105.787V105.687H66.4882V105.787V105.887H67.5558V105.787ZM68.9137 106.658V106.758H69.8959V106.658V106.558H68.9137V106.658ZM69.8959 106.658H69.7959V107.726H69.8959H69.9959V106.658H69.8959ZM69.8959 107.726V107.626H64.1225V107.726V107.826H69.8959V107.726ZM64.1225 107.726H64.2225V106.658H64.1225H64.0225V107.726H64.1225ZM64.1225 106.658V106.758H65.1303V106.658V106.558H64.1225V106.658ZM65.1303 106.658H65.2303V105.787H65.1303H65.0303V106.658H65.1303ZM65.1303 105.787V105.687H64.2079V105.787V105.887H65.1303V105.787ZM64.2079 105.787H64.3079V104.72H64.2079H64.1079V105.787H64.2079ZM64.2079 104.72V104.82H69.8276V104.72V104.62H64.2079V104.72ZM69.8276 104.72H69.7276V105.787H69.8276H69.9276V104.72H69.8276ZM69.8276 105.787V105.687H68.9137V105.787V105.887H69.8276V105.787ZM68.9137 105.787H68.8137V106.658H68.9137H69.0137V105.787H68.9137ZM75.7661 100.381H75.8661V100.281H75.7661V100.381ZM77.6877 104.967L77.769 105.026L77.842 104.924L77.7263 104.875L77.6877 104.967ZM76.8934 106.078L76.853 106.169L76.9274 106.202L76.9748 106.136L76.8934 106.078ZM75.0828 104.113L75.1757 104.076L75.0773 103.829L74.9886 104.08L75.0828 104.113ZM73.1868 106.291L73.1052 106.349L73.1527 106.416L73.2276 106.382L73.1868 106.291ZM72.3755 105.147L72.3372 105.054L72.2214 105.102L72.2939 105.205L72.3755 105.147ZM74.374 100.381V100.281H74.274V100.381H74.374ZM77.8243 99.7832V99.6832H77.7243V99.7832H77.8243ZM79.2079 99.7832H79.3079V99.6832H79.2079V99.7832ZM79.2079 107.837V107.937H79.3079V107.837H79.2079ZM77.8243 107.837H77.7243V107.937H77.8243V107.837ZM75.7661 100.381H75.6661V101.389H75.7661H75.8661V100.381H75.7661ZM75.7661 101.389H75.6661C75.6661 102.906 76.1237 104.421 77.6491 105.06L77.6877 104.967L77.7263 104.875C76.3137 104.284 75.8661 102.878 75.8661 101.389H75.7661ZM77.6877 104.967L77.6064 104.909L76.8121 106.019L76.8934 106.078L76.9748 106.136L77.769 105.026L77.6877 104.967ZM76.8934 106.078L76.9339 105.986C76.0741 105.606 75.5182 104.937 75.1757 104.076L75.0828 104.113L74.9899 104.15C75.3478 105.049 75.9364 105.764 76.853 106.169L76.8934 106.078ZM75.0828 104.113L74.9886 104.08C74.6537 105.026 74.0718 105.787 73.1461 106.2L73.1868 106.291L73.2276 106.382C74.2149 105.942 74.8287 105.131 75.1771 104.147L75.0828 104.113ZM73.1868 106.291L73.2684 106.233L72.457 105.089L72.3755 105.147L72.2939 105.205L73.1052 106.349L73.1868 106.291ZM72.3755 105.147L72.4138 105.239C73.9739 104.592 74.474 102.983 74.474 101.389H74.374H74.274C74.274 102.955 73.7833 104.454 72.3372 105.054L72.3755 105.147ZM74.374 101.389H74.474V100.381H74.374H74.274V101.389H74.374ZM74.374 100.381V100.481H75.7661V100.381V100.281H74.374V100.381ZM77.8243 99.7832V99.8832H79.2079V99.7832V99.6832H77.8243V99.7832ZM79.2079 99.7832H79.1079V107.837H79.2079H79.3079V99.7832H79.2079ZM79.2079 107.837V107.737H77.8243V107.837V107.937H79.2079V107.837ZM77.8243 107.837H77.9243V99.7832H77.8243H77.7243V107.837H77.8243ZM87.6197 104.216H87.7197V104.116H87.6197V104.216ZM87.6197 105.318V105.418H87.7197V105.318H87.6197ZM84.6561 105.318V105.218H84.5561V105.318H84.6561ZM84.6561 107.82V107.92H84.7561V107.82H84.6561ZM83.2726 107.82H83.1726V107.92H83.2726V107.82ZM83.2726 105.318H83.3726V105.218H83.2726V105.318ZM80.3688 105.318H80.2688V105.418H80.3688V105.318ZM80.3688 104.216V104.116H80.2688V104.216H80.3688ZM83.9729 101.124V101.024C83.4932 101.024 83.0941 101.084 82.8111 101.215C82.5235 101.348 82.3441 101.561 82.3441 101.859H82.4441H82.5441C82.5441 101.661 82.6551 101.507 82.8949 101.396C83.1393 101.284 83.5046 101.224 83.9729 101.224V101.124ZM82.4441 101.859H82.3441C82.3441 102.16 82.5226 102.376 82.8108 102.51C83.0939 102.642 83.4932 102.702 83.9729 102.702V102.602V102.502C83.5045 102.502 83.1395 102.442 82.8952 102.328C82.656 102.217 82.5441 102.061 82.5441 101.859H82.4441ZM83.9729 102.602V102.702C84.4567 102.702 84.8561 102.642 85.1383 102.51C85.426 102.375 85.6016 102.159 85.6016 101.859H85.5016H85.4016C85.4016 102.062 85.2912 102.217 85.0536 102.328C84.8106 102.442 84.4456 102.502 83.9729 102.502V102.602ZM85.5016 101.859H85.6016C85.6016 101.561 85.4251 101.348 85.138 101.215C84.856 101.084 84.4567 101.024 83.9729 101.024V101.124V101.224C84.4456 101.224 84.8107 101.284 85.0539 101.396C85.2921 101.507 85.4016 101.661 85.4016 101.859H85.5016ZM83.9729 103.686V103.586C83.1179 103.586 82.4011 103.411 81.9016 103.107C81.4046 102.804 81.1264 102.376 81.1264 101.859H81.0264H80.9264C80.9264 102.46 81.2546 102.946 81.7974 103.277C82.3377 103.607 83.0941 103.786 83.9729 103.786V103.686ZM81.0264 101.859H81.1264C81.1264 101.35 81.4041 100.925 81.9016 100.621C82.4012 100.317 83.1182 100.139 83.9729 100.139V100.039V99.9394C83.0939 99.9394 82.3376 100.121 81.7974 100.45C81.255 100.781 80.9264 101.265 80.9264 101.859H81.0264ZM83.9729 100.039V100.139C84.8276 100.139 85.5446 100.317 86.0442 100.621C86.5416 100.925 86.8194 101.35 86.8194 101.859H86.9194H87.0194C87.0194 101.265 86.6908 100.781 86.1483 100.45C85.6082 100.121 84.8519 99.9394 83.9729 99.9394V100.039ZM86.9194 101.859H86.8194C86.8194 102.376 86.5412 102.804 86.0442 103.107C85.5447 103.411 84.8278 103.586 83.9729 103.586V103.686V103.786C84.8517 103.786 85.608 103.607 86.1483 103.277C86.6912 102.946 87.0194 102.46 87.0194 101.859H86.9194ZM87.6197 104.216H87.5197V105.318H87.6197H87.7197V104.216H87.6197ZM87.6197 105.318V105.218H84.6561V105.318V105.418H87.6197V105.318ZM84.6561 105.318H84.5561V107.82H84.6561H84.7561V105.318H84.6561ZM84.6561 107.82V107.72H83.2726V107.82V107.92H84.6561V107.82ZM83.2726 107.82H83.3726V105.318H83.2726H83.1726V107.82H83.2726ZM83.2726 105.318V105.218H80.3688V105.318V105.418H83.2726V105.318ZM80.3688 105.318H80.4688V104.216H80.3688H80.2688V105.318H80.3688ZM80.3688 104.216V104.316H87.6197V104.216V104.116H80.3688V104.216ZM92.2139 102.764V102.864H92.3139V102.764H92.2139ZM92.2139 99.9028V99.8028H92.1138V99.9028H92.2139ZM93.4949 99.9028H93.5949V99.8028H93.4949V99.9028ZM93.4949 107.47V107.57H93.5949V107.47H93.4949ZM92.2139 107.47H92.1138V107.57H92.2139V107.47ZM92.2139 105.215H92.3139V104.907L92.1329 105.156L92.2139 105.215ZM91.5135 106.18L91.4688 106.27L91.5447 106.307L91.5945 106.239L91.5135 106.18ZM90.1556 104.651L90.2477 104.612L90.1466 104.373L90.0612 104.618L90.1556 104.651ZM88.7976 106.377L88.7174 106.436L88.77 106.507L88.8468 106.464L88.7976 106.377ZM88.029 105.343L87.9788 105.257L87.8818 105.313L87.9487 105.403L88.029 105.343ZM89.4894 102.166H89.5894V102.066H89.4894V102.166ZM88.3791 102.166H88.2791V102.266H88.3791V102.166ZM88.3791 101.064V100.964H88.2791V101.064H88.3791ZM89.4894 101.064V101.164H89.5894V101.064H89.4894ZM89.4894 100.048V99.948H89.3894V100.048H89.4894ZM90.7961 100.048H90.8961V99.948H90.7961V100.048ZM90.7961 101.064H90.6961V101.164H90.7961V101.064ZM91.8979 101.064H91.9978V100.964H91.8979V101.064ZM91.8979 102.166V102.266H91.9978V102.166H91.8979ZM90.7961 102.166V102.066H90.6961V102.166H90.7961ZM92.2139 105.147L92.1657 105.234L92.3139 105.316V105.147H92.2139ZM92.2139 103.866H92.3139V103.766H92.2139V103.866ZM91.4794 103.866H91.3794V103.966H91.4794V103.866ZM91.4794 102.764V102.664H91.3794V102.764H91.4794ZM93.8366 99.7918V99.6918H93.7366V99.7918H93.8366ZM95.1433 99.7918H95.2433V99.6918H95.1433V99.7918ZM95.1433 107.803V107.903H95.2433V107.803H95.1433ZM93.8366 107.803H93.7366V107.903H93.8366V107.803ZM92.2139 102.764H92.3139V99.9028H92.2139H92.1138V102.764H92.2139ZM92.2139 99.9028V100.003H93.4949V99.9028V99.8028H92.2139V99.9028ZM93.4949 99.9028H93.3949V107.47H93.4949H93.5949V99.9028H93.4949ZM93.4949 107.47V107.37H92.2139V107.47V107.57H93.4949V107.47ZM92.2139 107.47H92.3139V105.215H92.2139H92.1138V107.47H92.2139ZM92.2139 105.215L92.1329 105.156L91.4326 106.121L91.5135 106.18L91.5945 106.239L92.2948 105.274L92.2139 105.215ZM91.5135 106.18L91.5582 106.091C90.9354 105.779 90.5227 105.262 90.2477 104.612L90.1556 104.651L90.0635 104.69C90.3522 105.373 90.7935 105.932 91.4688 106.27L91.5135 106.18ZM90.1556 104.651L90.0612 104.618C89.8108 105.336 89.3885 105.928 88.7485 106.289L88.7976 106.377L88.8468 106.464C89.5391 106.073 89.9879 105.436 90.25 104.684L90.1556 104.651ZM88.7976 106.377L88.8779 106.317L88.1092 105.283L88.029 105.343L87.9487 105.403L88.7174 106.436L88.7976 106.377ZM88.029 105.343L88.0791 105.43C89.3054 104.719 89.5894 103.406 89.5894 102.209H89.4894H89.3894C89.3894 103.385 89.1097 104.601 87.9788 105.257L88.029 105.343ZM89.4894 102.209H89.5894V102.166H89.4894H89.3894V102.209H89.4894ZM89.4894 102.166V102.066H88.3791V102.166V102.266H89.4894V102.166ZM88.3791 102.166H88.4791V101.064H88.3791H88.2791V102.166H88.3791ZM88.3791 101.064V101.164H89.4894V101.064V100.964H88.3791V101.064ZM89.4894 101.064H89.5894V100.048H89.4894H89.3894V101.064H89.4894ZM89.4894 100.048V100.148H90.7961V100.048V99.948H89.4894V100.048ZM90.7961 100.048H90.6961V101.064H90.7961H90.8961V100.048H90.7961ZM90.7961 101.064V101.164H91.8979V101.064V100.964H90.7961V101.064ZM91.8979 101.064H91.7979V102.166H91.8979H91.9978V101.064H91.8979ZM91.8979 102.166V102.066H90.7961V102.166V102.266H91.8979V102.166ZM90.7961 102.166H90.6961V102.209H90.7961H90.8961V102.166H90.7961ZM90.7961 102.209H90.6961C90.6961 103.382 90.9811 104.584 92.1657 105.234L92.2139 105.147L92.262 105.059C91.1748 104.462 90.8961 103.358 90.8961 102.209H90.7961ZM92.2139 105.147H92.3139V103.866H92.2139H92.1138V105.147H92.2139ZM92.2139 103.866V103.766H91.4794V103.866V103.966H92.2139V103.866ZM91.4794 103.866H91.5794V102.764H91.4794H91.3794V103.866H91.4794ZM91.4794 102.764V102.864H92.2139V102.764V102.664H91.4794V102.764ZM93.8366 99.7918V99.8918H95.1433V99.7918V99.6918H93.8366V99.7918ZM95.1433 99.7918H95.0433V107.803H95.1433H95.2433V99.7918H95.1433ZM95.1433 107.803V107.703H93.8366V107.803V107.903H95.1433V107.803ZM93.8366 107.803H93.9366V99.7918H93.8366H93.7366V107.803H93.8366Z" fill="white" fill-opacity="0.8" mask="url(#path-9-inside-2_1313_16215)"/>
<defs>
<linearGradient id="paint0_linear_1313_16215" x1="10.5617" y1="98.0671" x2="107.489" y2="159.437" gradientUnits="userSpaceOnUse">
<stop stop-color="white"/>
<stop offset="0.5" stop-color="white" stop-opacity="0"/>
<stop offset="1" stop-color="white"/>
</linearGradient>
<linearGradient id="paint1_linear_1313_16215" x1="58.2222" y1="87.7378" x2="78.3502" y2="161.515" gradientUnits="userSpaceOnUse">
<stop stop-color="white"/>
<stop offset="1" stop-color="#EDEDED"/>
</linearGradient>
<linearGradient id="paint2_linear_1313_16215" x1="18.831" y1="87.7852" x2="95.5053" y2="129.514" gradientUnits="userSpaceOnUse">
<stop stop-color="white"/>
<stop offset="0.5" stop-color="white" stop-opacity="0"/>
<stop offset="1" stop-color="white"/>
</linearGradient>
<linearGradient id="paint3_linear_1313_16215" x1="22.5818" y1="38.8161" x2="39.6543" y2="50.5075" gradientUnits="userSpaceOnUse">
<stop stop-color="#5F5F5F"/>
<stop offset="1" stop-color="#606060" stop-opacity="0.7"/>
</linearGradient>
<linearGradient id="paint4_linear_1313_16215" x1="50.6908" y1="101.816" x2="67.1596" y2="128.131" gradientUnits="userSpaceOnUse">
<stop stop-color="#5F5F5F"/>
<stop offset="1" stop-color="#606060" stop-opacity="0.7"/>
</linearGradient>
</defs>
</svg>
