<svg width="143" height="115" viewBox="0 0 143 115" fill="none" xmlns="http://www.w3.org/2000/svg">
<rect x="6" y="92.1304" width="70.1305" height="130.953" rx="15.5156" transform="rotate(-90 6 92.1304)" fill="#E0E0E0"/>
<rect x="6.5" y="91.6304" width="69.1305" height="129.953" rx="15.0156" transform="rotate(-90 6.5 91.6304)" stroke="url(#paint0_linear_1313_16221)" stroke-opacity="0.5"/>
<rect x="15.4922" y="82.73" width="51.3307" height="111.508" rx="8" transform="rotate(-90 15.4922 82.73)" fill="url(#paint1_linear_1313_16221)"/>
<rect x="15.9922" y="82.23" width="50.3307" height="110.508" rx="7.5" transform="rotate(-90 15.9922 82.23)" stroke="url(#paint2_linear_1313_16221)" stroke-opacity="0.5"/>
<mask id="path-6-inside-1_1313_16221" fill="white">
<path d="M25.9962 42.1723C25.9962 43.2313 25.1763 44.0598 23.7501 44.0598C22.4092 44.0598 21.3672 43.4192 21.2989 42.1296H23.0839C23.1181 42.5823 23.3828 42.736 23.6903 42.736C23.9892 42.736 24.2198 42.5823 24.2198 42.3004C24.2113 41.3353 21.2904 41.788 21.316 39.6956C21.316 38.517 22.2982 37.885 23.5707 37.885C24.9543 37.885 25.8596 38.5597 25.9194 39.7553H24.1002C24.0831 39.3796 23.8525 39.2087 23.5451 39.2087C23.2974 39.2002 23.101 39.3454 23.101 39.6358C23.101 40.5325 25.9962 40.2422 25.9962 42.1723ZM26.7744 44V37.68H28.4484V39.892C28.7302 39.482 29.2341 39.166 29.9259 39.166C31.0191 39.166 31.7109 39.9518 31.7109 41.2072V44H30.0369V41.4293C30.0369 40.8742 29.7295 40.5496 29.2512 40.5496C28.7558 40.5496 28.4484 40.8742 28.4484 41.4293V44H26.7744ZM32.6294 44V39.2087H34.3033V44H32.6294ZM33.4749 38.7646C32.877 38.7646 32.4927 38.3889 32.4927 37.9106C32.4927 37.4238 32.877 37.0394 33.4749 37.0394C34.0642 37.0394 34.4485 37.4238 34.4485 37.9106C34.4485 38.3889 34.0642 38.7646 33.4749 38.7646ZM35.4103 44V40.6009H34.8894V39.2087H35.4103V39.166C35.4103 37.8423 36.2729 37.159 37.8273 37.27V38.6963C37.3234 38.6451 37.1184 38.7817 37.0928 39.2087H37.8444V40.6009H37.0928V44H35.4103ZM38.7074 42.1809V40.6009H38.1181V39.2087H38.7074V38.0472H40.3899V39.2087H41.261V40.6009H40.3899V42.2065C40.3899 42.4627 40.5009 42.5737 40.7827 42.5737H41.2695V44H40.5436C39.4846 44 38.7074 43.5559 38.7074 42.1809Z"/>
</mask>
<path d="M25.9962 42.1723C25.9962 43.2313 25.1763 44.0598 23.7501 44.0598C22.4092 44.0598 21.3672 43.4192 21.2989 42.1296H23.0839C23.1181 42.5823 23.3828 42.736 23.6903 42.736C23.9892 42.736 24.2198 42.5823 24.2198 42.3004C24.2113 41.3353 21.2904 41.788 21.316 39.6956C21.316 38.517 22.2982 37.885 23.5707 37.885C24.9543 37.885 25.8596 38.5597 25.9194 39.7553H24.1002C24.0831 39.3796 23.8525 39.2087 23.5451 39.2087C23.2974 39.2002 23.101 39.3454 23.101 39.6358C23.101 40.5325 25.9962 40.2422 25.9962 42.1723ZM26.7744 44V37.68H28.4484V39.892C28.7302 39.482 29.2341 39.166 29.9259 39.166C31.0191 39.166 31.7109 39.9518 31.7109 41.2072V44H30.0369V41.4293C30.0369 40.8742 29.7295 40.5496 29.2512 40.5496C28.7558 40.5496 28.4484 40.8742 28.4484 41.4293V44H26.7744ZM32.6294 44V39.2087H34.3033V44H32.6294ZM33.4749 38.7646C32.877 38.7646 32.4927 38.3889 32.4927 37.9106C32.4927 37.4238 32.877 37.0394 33.4749 37.0394C34.0642 37.0394 34.4485 37.4238 34.4485 37.9106C34.4485 38.3889 34.0642 38.7646 33.4749 38.7646ZM35.4103 44V40.6009H34.8894V39.2087H35.4103V39.166C35.4103 37.8423 36.2729 37.159 37.8273 37.27V38.6963C37.3234 38.6451 37.1184 38.7817 37.0928 39.2087H37.8444V40.6009H37.0928V44H35.4103ZM38.7074 42.1809V40.6009H38.1181V39.2087H38.7074V38.0472H40.3899V39.2087H41.261V40.6009H40.3899V42.2065C40.3899 42.4627 40.5009 42.5737 40.7827 42.5737H41.2695V44H40.5436C39.4846 44 38.7074 43.5559 38.7074 42.1809Z" fill="url(#paint3_linear_1313_16221)"/>
<path d="M21.2989 42.1296V42.0296H21.1935L21.1991 42.1349L21.2989 42.1296ZM23.0839 42.1296L23.1836 42.1221L23.1766 42.0296H23.0839V42.1296ZM24.2198 42.3004H24.3198L24.3198 42.2995L24.2198 42.3004ZM21.316 39.6956L21.416 39.6968V39.6956H21.316ZM25.9194 39.7553V39.8553H26.0245L26.0192 39.7503L25.9194 39.7553ZM24.1002 39.7553L24.0003 39.7599L24.0047 39.8553H24.1002V39.7553ZM23.5451 39.2087L23.5416 39.3087H23.5451V39.2087ZM25.9962 42.1723H25.8962C25.8962 42.6748 25.7024 43.1188 25.3417 43.4383C24.9803 43.7585 24.444 43.9598 23.7501 43.9598V44.0598V44.1598C24.4824 44.1598 25.0692 43.9469 25.4743 43.588C25.8801 43.2286 26.0962 42.7289 26.0962 42.1723H25.9962ZM23.7501 44.0598V43.9598C23.0942 43.9598 22.5213 43.803 22.1066 43.4978C21.6948 43.1947 21.4314 42.7402 21.3988 42.1243L21.2989 42.1296L21.1991 42.1349C21.2348 42.8087 21.5265 43.3192 21.988 43.6588C22.4466 43.9963 23.065 44.1598 23.7501 44.1598V44.0598ZM21.2989 42.1296V42.2296H23.0839V42.1296V42.0296H21.2989V42.1296ZM23.0839 42.1296L22.9842 42.1371C23.0027 42.3822 23.0852 42.5613 23.2189 42.6779C23.3514 42.7936 23.5208 42.836 23.6903 42.836V42.736V42.636C23.5523 42.636 23.4355 42.6015 23.3503 42.5272C23.2662 42.4538 23.1993 42.3297 23.1836 42.1221L23.0839 42.1296ZM23.6903 42.736V42.836C23.8556 42.836 24.0114 42.7936 24.1284 42.7029C24.2482 42.6101 24.3198 42.4718 24.3198 42.3004H24.2198H24.1198C24.1198 42.4109 24.0761 42.4904 24.0059 42.5449C23.9328 42.6015 23.8239 42.636 23.6903 42.636V42.736ZM24.2198 42.3004L24.3198 42.2995C24.3171 41.9942 24.0793 41.8175 23.8006 41.6896C23.6579 41.6242 23.4935 41.5664 23.3223 41.509C23.1495 41.4511 22.9699 41.3935 22.7897 41.327C22.429 41.1937 22.0827 41.0299 21.828 40.7784C21.5772 40.5309 21.4099 40.1931 21.416 39.6968L21.316 39.6956L21.216 39.6943C21.2093 40.2443 21.3975 40.6345 21.6875 40.9208C21.9735 41.2031 22.3531 41.3788 22.7204 41.5146C22.9043 41.5825 23.0893 41.6418 23.2587 41.6987C23.4298 41.756 23.5852 41.8109 23.7172 41.8714C23.9877 41.9955 24.1182 42.1241 24.1198 42.3013L24.2198 42.3004ZM21.316 39.6956H21.416C21.416 39.1376 21.6469 38.7145 22.0264 38.4281C22.409 38.1394 22.9496 37.985 23.5707 37.985V37.885V37.785C22.9193 37.785 22.3325 37.9466 21.9059 38.2685C21.4762 38.5927 21.216 39.075 21.216 39.6956H21.316ZM23.5707 37.885V37.985C24.2473 37.985 24.7956 38.15 25.1798 38.4505C25.5617 38.7492 25.7909 39.1888 25.8195 39.7603L25.9194 39.7553L26.0192 39.7503C25.988 39.1262 25.7347 38.6306 25.3031 38.293C24.8738 37.9573 24.2777 37.785 23.5707 37.785V37.885ZM25.9194 39.7553V39.6553H24.1002V39.7553V39.8553H25.9194V39.7553ZM24.1002 39.7553L24.2001 39.7508C24.1907 39.5427 24.121 39.3787 23.999 39.2673C23.8778 39.1566 23.7168 39.1087 23.5451 39.1087V39.2087V39.3087C23.6808 39.3087 23.7889 39.3463 23.8641 39.415C23.9385 39.4829 23.9927 39.5922 24.0003 39.7599L24.1002 39.7553ZM23.5451 39.2087L23.5485 39.1088C23.4048 39.1039 23.2668 39.1433 23.1635 39.2356C23.0589 39.329 23.001 39.4669 23.001 39.6358H23.101H23.201C23.201 39.5143 23.2413 39.4343 23.2968 39.3847C23.3536 39.3339 23.4377 39.3051 23.5416 39.3087L23.5451 39.2087ZM23.101 39.6358H23.001C23.001 39.9256 23.2381 40.0999 23.5104 40.2293C23.6511 40.2962 23.8136 40.3569 23.9834 40.4177C24.1546 40.4789 24.3331 40.5402 24.5124 40.6098C24.8716 40.7491 25.2182 40.916 25.4749 41.1603C25.7278 41.4008 25.8962 41.7189 25.8962 42.1723H25.9962H26.0962C26.0962 41.6606 25.9027 41.2912 25.6128 41.0154C25.3266 40.7431 24.9495 40.5648 24.5848 40.4233C24.4022 40.3525 24.2188 40.2895 24.0507 40.2294C23.8812 40.1687 23.7271 40.1109 23.5963 40.0487C23.3257 39.9201 23.201 39.7943 23.201 39.6358H23.101ZM26.7744 44H26.6744V44.1H26.7744V44ZM26.7744 37.68V37.58H26.6744V37.68H26.7744ZM28.4484 37.68H28.5484V37.58H28.4484V37.68ZM28.4484 39.892H28.3484V40.214L28.5308 39.9486L28.4484 39.892ZM31.7109 44V44.1H31.8109V44H31.7109ZM30.0369 44H29.9369V44.1H30.0369V44ZM28.4484 44V44.1H28.5484V44H28.4484ZM26.7744 44H26.8744V37.68H26.7744H26.6744V44H26.7744ZM26.7744 37.68V37.78H28.4484V37.68V37.58H26.7744V37.68ZM28.4484 37.68H28.3484V39.892H28.4484H28.5484V37.68H28.4484ZM28.4484 39.892L28.5308 39.9486C28.7939 39.5658 29.267 39.266 29.9259 39.266V39.166V39.066C29.2012 39.066 28.6665 39.3982 28.366 39.8353L28.4484 39.892ZM29.9259 39.166V39.266C30.447 39.266 30.8646 39.4524 31.1531 39.7817C31.4429 40.1125 31.6109 40.5972 31.6109 41.2072H31.7109H31.8109C31.8109 40.5618 31.6329 40.0259 31.3035 39.6499C30.9729 39.2725 30.4979 39.066 29.9259 39.066V39.166ZM31.7109 41.2072H31.6109V44H31.7109H31.8109V41.2072H31.7109ZM31.7109 44V43.9H30.0369V44V44.1H31.7109V44ZM30.0369 44H30.1369V41.4293H30.0369H29.9369V44H30.0369ZM30.0369 41.4293H30.1369C30.1369 41.1338 30.0549 40.8875 29.8974 40.7141C29.739 40.5395 29.5139 40.4496 29.2512 40.4496V40.5496V40.6496C29.4667 40.6496 29.6345 40.722 29.7494 40.8485C29.8652 40.9761 29.9369 41.1697 29.9369 41.4293H30.0369ZM29.2512 40.5496V40.4496C28.9809 40.4496 28.7515 40.5388 28.5905 40.7135C28.4304 40.8872 28.3484 41.1338 28.3484 41.4293H28.4484H28.5484C28.5484 41.1697 28.6201 40.9764 28.7375 40.8491C28.8541 40.7227 29.0261 40.6496 29.2512 40.6496V40.5496ZM28.4484 41.4293H28.3484V44H28.4484H28.5484V41.4293H28.4484ZM28.4484 44V43.9H26.7744V44V44.1H28.4484V44ZM32.6294 44H32.5294V44.1H32.6294V44ZM32.6294 39.2087V39.1087H32.5294V39.2087H32.6294ZM34.3033 39.2087H34.4033V39.1087H34.3033V39.2087ZM34.3033 44V44.1H34.4033V44H34.3033ZM32.6294 44H32.7294V39.2087H32.6294H32.5294V44H32.6294ZM32.6294 39.2087V39.3087H34.3033V39.2087V39.1087H32.6294V39.2087ZM34.3033 39.2087H34.2033V44H34.3033H34.4033V39.2087H34.3033ZM34.3033 44V43.9H32.6294V44V44.1H34.3033V44ZM33.4749 38.7646V38.6646C32.9221 38.6646 32.5927 38.324 32.5927 37.9106H32.4927H32.3927C32.3927 38.4537 32.832 38.8646 33.4749 38.8646V38.7646ZM32.4927 37.9106H32.5927C32.5927 37.4868 32.9241 37.1394 33.4749 37.1394V37.0394V36.9394C32.83 36.9394 32.3927 37.3607 32.3927 37.9106H32.4927ZM33.4749 37.0394V37.1394C34.0165 37.1394 34.3485 37.4862 34.3485 37.9106H34.4485H34.5485C34.5485 37.3613 34.1119 36.9394 33.4749 36.9394V37.0394ZM34.4485 37.9106H34.3485C34.3485 38.3245 34.0185 38.6646 33.4749 38.6646V38.7646V38.8646C34.1099 38.8646 34.5485 38.4532 34.5485 37.9106H34.4485ZM35.4103 44H35.3103V44.1H35.4103V44ZM35.4103 40.6009H35.5103V40.5009H35.4103V40.6009ZM34.8894 40.6009H34.7894V40.7009H34.8894V40.6009ZM34.8894 39.2087V39.1087H34.7894V39.2087H34.8894ZM35.4103 39.2087V39.3087H35.5103V39.2087H35.4103ZM37.8273 37.27H37.9273V37.1769L37.8344 37.1703L37.8273 37.27ZM37.8273 38.6963L37.8172 38.7958L37.9273 38.807V38.6963H37.8273ZM37.0928 39.2087L36.993 39.2028L36.9866 39.3087H37.0928V39.2087ZM37.8444 39.2087H37.9444V39.1087H37.8444V39.2087ZM37.8444 40.6009V40.7009H37.9444V40.6009H37.8444ZM37.0928 40.6009V40.5009H36.9928V40.6009H37.0928ZM37.0928 44V44.1H37.1928V44H37.0928ZM35.4103 44H35.5103V40.6009H35.4103H35.3103V44H35.4103ZM35.4103 40.6009V40.5009H34.8894V40.6009V40.7009H35.4103V40.6009ZM34.8894 40.6009H34.9894V39.2087H34.8894H34.7894V40.6009H34.8894ZM34.8894 39.2087V39.3087H35.4103V39.2087V39.1087H34.8894V39.2087ZM35.4103 39.2087H35.5103V39.166H35.4103H35.3103V39.2087H35.4103ZM35.4103 39.166H35.5103C35.5103 38.5267 35.7176 38.0575 36.0977 37.7586C36.4809 37.4572 37.0568 37.3153 37.8202 37.3698L37.8273 37.27L37.8344 37.1703C37.0434 37.1138 36.4108 37.2579 35.9741 37.6014C35.5343 37.9472 35.3103 38.4816 35.3103 39.166H35.4103ZM37.8273 37.27H37.7273V38.6963H37.8273H37.9273V37.27H37.8273ZM37.8273 38.6963L37.8374 38.5968C37.5809 38.5707 37.3723 38.5883 37.2239 38.6909C37.0692 38.7977 37.0066 38.9767 36.993 39.2028L37.0928 39.2087L37.1926 39.2147C37.2047 39.0137 37.2573 38.9109 37.3376 38.8555C37.424 38.7957 37.5698 38.7706 37.8172 38.7958L37.8273 38.6963ZM37.0928 39.2087V39.3087H37.8444V39.2087V39.1087H37.0928V39.2087ZM37.8444 39.2087H37.7444V40.6009H37.8444H37.9444V39.2087H37.8444ZM37.8444 40.6009V40.5009H37.0928V40.6009V40.7009H37.8444V40.6009ZM37.0928 40.6009H36.9928V44H37.0928H37.1928V40.6009H37.0928ZM37.0928 44V43.9H35.4103V44V44.1H37.0928V44ZM38.7074 40.6009H38.8074V40.5009H38.7074V40.6009ZM38.1181 40.6009H38.0181V40.7009H38.1181V40.6009ZM38.1181 39.2087V39.1087H38.0181V39.2087H38.1181ZM38.7074 39.2087V39.3087H38.8074V39.2087H38.7074ZM38.7074 38.0472V37.9472H38.6074V38.0472H38.7074ZM40.3899 38.0472H40.4899V37.9472H40.3899V38.0472ZM40.3899 39.2087H40.2899V39.3087H40.3899V39.2087ZM41.261 39.2087H41.361V39.1087H41.261V39.2087ZM41.261 40.6009V40.7009H41.361V40.6009H41.261ZM40.3899 40.6009V40.5009H40.2899V40.6009H40.3899ZM41.2695 42.5737H41.3695V42.4737H41.2695V42.5737ZM41.2695 44V44.1H41.3695V44H41.2695ZM38.7074 42.1809H38.8074V40.6009H38.7074H38.6074V42.1809H38.7074ZM38.7074 40.6009V40.5009H38.1181V40.6009V40.7009H38.7074V40.6009ZM38.1181 40.6009H38.2181V39.2087H38.1181H38.0181V40.6009H38.1181ZM38.1181 39.2087V39.3087H38.7074V39.2087V39.1087H38.1181V39.2087ZM38.7074 39.2087H38.8074V38.0472H38.7074H38.6074V39.2087H38.7074ZM38.7074 38.0472V38.1472H40.3899V38.0472V37.9472H38.7074V38.0472ZM40.3899 38.0472H40.2899V39.2087H40.3899H40.4899V38.0472H40.3899ZM40.3899 39.2087V39.3087H41.261V39.2087V39.1087H40.3899V39.2087ZM41.261 39.2087H41.161V40.6009H41.261H41.361V39.2087H41.261ZM41.261 40.6009V40.5009H40.3899V40.6009V40.7009H41.261V40.6009ZM40.3899 40.6009H40.2899V42.2065H40.3899H40.4899V40.6009H40.3899ZM40.3899 42.2065H40.2899C40.2899 42.3464 40.3199 42.4715 40.4118 42.5587C40.5024 42.6447 40.6322 42.6737 40.7827 42.6737V42.5737V42.4737C40.6514 42.4737 40.5848 42.4472 40.5495 42.4137C40.5154 42.3813 40.4899 42.3228 40.4899 42.2065H40.3899ZM40.7827 42.5737V42.6737H41.2695V42.5737V42.4737H40.7827V42.5737ZM41.2695 42.5737H41.1695V44H41.2695H41.3695V42.5737H41.2695ZM41.2695 44V43.9H40.5436V44V44.1H41.2695V44ZM40.5436 44V43.9C40.0256 43.9 39.5947 43.791 39.2938 43.5305C38.9958 43.2724 38.8074 42.8496 38.8074 42.1809H38.7074H38.6074C38.6074 42.8872 38.8076 43.374 39.1629 43.6817C39.5154 43.9869 40.0026 44.1 40.5436 44.1V44Z" fill="white" fill-opacity="0.8" mask="url(#path-6-inside-1_1313_16221)"/>
<path d="M75.2305 65.5898C75.1875 65.5469 75.123 65.5039 75.0371 65.4609C74.9941 65.4323 74.901 65.3893 74.7578 65.332C74.4141 65.2031 74.1634 65.0814 74.0059 64.9668C73.7194 64.752 73.5475 64.4798 73.4902 64.1504C73.4902 63.8783 73.6191 63.7135 73.877 63.6562C74.0488 63.599 74.4499 63.5703 75.0801 63.5703C75.8392 63.5703 76.4622 63.556 76.9492 63.5273C77.8372 63.4557 78.7253 63.3197 79.6133 63.1191C80 63.0189 80.3724 62.9043 80.7305 62.7754C80.9453 62.7038 81.2103 62.6035 81.5254 62.4746C81.998 62.2741 82.3275 62.181 82.5137 62.1953C82.8001 62.2096 83.1654 62.3815 83.6094 62.7109C83.9674 63.0117 84.0964 63.3626 83.9961 63.7637C83.8958 64.1934 83.5234 64.444 82.8789 64.5156L80 64.8379C79.0117 64.9525 78.3457 65.0312 78.002 65.0742C77.4863 65.1458 77.0566 65.2174 76.7129 65.2891L76.7988 66.3848C76.8132 66.6712 76.8275 66.8789 76.8418 67.0078C76.8561 67.194 76.8919 67.4375 76.9492 67.7383C77.3789 67.7383 78.1309 67.6309 79.2051 67.416C80.4512 67.1868 81.418 66.929 82.1055 66.6426C82.5781 66.5566 82.9935 66.5996 83.3516 66.7715C83.6667 66.929 83.8815 67.151 83.9961 67.4375C84.1107 67.724 84.0964 67.9961 83.9531 68.2539C83.7956 68.5404 83.5234 68.748 83.1367 68.877L82.041 69.0059L77.6797 69.5645C76.9062 69.7363 76.3763 69.7793 76.0898 69.6934C75.7031 69.5931 75.3665 69.235 75.0801 68.6191C74.9368 68.2324 74.8796 67.903 74.9082 67.6309C74.9225 67.459 74.987 67.2441 75.1016 66.9863C75.2018 66.7715 75.2663 66.5924 75.2949 66.4492C75.3379 66.2201 75.3379 65.9622 75.2949 65.6758L75.2305 65.5898ZM81.2461 73.0449C81.9336 72.9447 82.5208 72.8372 83.0078 72.7227C83.2799 72.651 83.5807 72.5579 83.9102 72.4434C84.1966 72.3288 84.4258 72.2643 84.5977 72.25C84.8411 72.2214 85.1921 72.2357 85.6504 72.293C86.4382 72.4076 86.9824 72.6582 87.2832 73.0449C87.5124 73.3314 87.584 73.668 87.498 74.0547C87.3978 74.4557 87.2402 74.6921 87.0254 74.7637C86.8678 74.8066 86.4525 74.7852 85.7793 74.6992C85.0632 74.599 84.4401 74.5273 83.9102 74.4844C82.9935 74.4128 82.0195 74.3913 80.9883 74.4199C78.7253 74.5775 76.8418 74.7923 75.3379 75.0645C74.5072 75.2077 73.6764 75.4082 72.8457 75.666C72.3301 75.8092 71.9648 75.8665 71.75 75.8379C71.4922 75.7949 70.9909 75.5872 70.2461 75.2148C69.3008 74.6276 68.8568 74.1693 68.9141 73.8398C68.957 73.5677 69.3079 73.4388 69.9668 73.4531C71.0124 73.5104 72.3659 73.5176 74.0273 73.4746C75.9036 73.4316 77.7513 73.3314 79.5703 73.1738C79.4987 72.8874 79.3483 72.5436 79.1191 72.1426C78.9329 71.8418 78.6465 71.4193 78.2598 70.875C77.9447 70.4453 77.916 70.1302 78.1738 69.9297C78.446 69.7292 78.9616 69.7292 79.7207 69.9297C80.5085 70.1732 80.9954 70.4453 81.1816 70.7461C81.3105 70.9466 81.3464 71.3477 81.2891 71.9492C81.2604 72.1497 81.2389 72.3145 81.2246 72.4434C81.2246 72.6439 81.2246 72.8372 81.2246 73.0234L81.2461 73.0449ZM79.5059 60.7988C78.89 60.8991 78.3242 61.0208 77.8086 61.1641C77.5078 61.2357 77.1426 61.3431 76.7129 61.4863C76.1113 61.6868 75.6745 61.7656 75.4023 61.7227C75.0586 61.6797 74.5 61.4362 73.7266 60.9922C73.1393 60.6055 72.8958 60.2904 72.9961 60.0469C73.082 59.8034 73.4831 59.6816 74.1992 59.6816H74.3711C75.4453 59.7246 76.2689 59.7246 76.8418 59.6816C77.7441 59.61 78.8112 59.4095 80.043 59.0801C80.2721 58.9941 80.5085 58.9082 80.752 58.8223C80.8952 58.765 81.0814 58.6862 81.3105 58.5859C81.8405 58.3568 82.2201 58.2422 82.4492 58.2422C82.7786 58.2422 83.2083 58.4141 83.7383 58.7578C84.1966 59.1016 84.3613 59.4525 84.2324 59.8105C84.1035 60.1973 83.6667 60.4049 82.9219 60.4336C82.5065 60.4479 82.0195 60.4837 81.4609 60.541C80.8164 60.6126 80.2292 60.6986 79.6992 60.7988H79.5059ZM97.3379 60.0469C97.3236 59.9896 97.252 59.9251 97.123 59.8535C97.0514 59.8105 96.901 59.7318 96.6719 59.6172C96.1849 59.388 95.834 59.1875 95.6191 59.0156C95.2324 58.7435 95.0391 58.4785 95.0391 58.2207C95.0391 57.9486 95.2682 57.7767 95.7266 57.7051C96.1133 57.6478 96.8796 57.6406 98.0254 57.6836C99.2572 57.6549 100.317 57.5404 101.205 57.3398C101.721 57.2396 102.301 57.0605 102.945 56.8027C103.246 56.6738 103.461 56.5879 103.59 56.5449C103.819 56.4876 104.041 56.4518 104.256 56.4375C104.843 56.4805 105.352 56.724 105.781 57.168C106.225 57.6263 106.254 58.0059 105.867 58.3066C105.609 58.5788 105.273 58.765 104.857 58.8652C104.585 58.9225 104.084 58.9727 103.354 59.0156C102.623 59.0586 102.014 59.1087 101.527 59.166C100.711 59.2663 99.8874 59.4167 99.0566 59.6172C99.0423 59.7747 99.028 59.9538 99.0137 60.1543C98.9993 60.2546 98.9779 60.4264 98.9492 60.6699C98.9062 60.985 98.8776 61.2357 98.8633 61.4219C98.849 61.7227 98.849 62.0306 98.8633 62.3457C99.651 62.3314 100.41 62.2454 101.141 62.0879C101.57 62.002 102.136 61.8516 102.838 61.6367C103.225 61.5221 103.504 61.4362 103.676 61.3789C103.977 61.3073 104.256 61.2572 104.514 61.2285C105.101 61.1855 105.552 61.4219 105.867 61.9375C106.182 62.4531 106.139 62.8757 105.738 63.2051C105.523 63.3483 105.23 63.4629 104.857 63.5488C104.614 63.5918 104.141 63.6491 103.439 63.7207C102.781 63.778 102.243 63.8353 101.828 63.8926C101.112 63.9785 100.389 64.0931 99.6582 64.2363C98.8991 64.5514 98.3763 64.666 98.0898 64.5801C97.7891 64.5085 97.4596 64.1576 97.1016 63.5273C96.9297 63.1979 96.8509 62.9186 96.8652 62.6895C96.8796 62.5462 96.9512 62.3457 97.0801 62.0879C97.2233 61.8158 97.3164 61.5794 97.3594 61.3789C97.431 61.0208 97.431 60.6126 97.3594 60.1543L97.3379 60.0469ZM102.988 66.7285C103.862 66.6569 104.592 66.5495 105.18 66.4062C105.523 66.3203 105.889 66.1986 106.275 66.041C106.562 65.9264 106.784 65.8548 106.941 65.8262C107.171 65.7975 107.471 65.819 107.844 65.8906C108.674 66.0625 109.226 66.349 109.498 66.75C109.684 67.0221 109.734 67.3659 109.648 67.7812C109.505 68.1393 109.348 68.347 109.176 68.4043C109.033 68.4473 108.689 68.4329 108.145 68.3613C107.271 68.2467 106.454 68.1823 105.695 68.168C104.32 68.125 102.759 68.1823 101.012 68.3398C99.3359 68.4974 97.918 68.6979 96.7578 68.9414C96.1133 69.0846 95.4544 69.2637 94.7812 69.4785C94.3086 69.6361 93.972 69.7005 93.7715 69.6719C93.528 69.6432 93.0768 69.4785 92.418 69.1777C91.3438 68.5475 90.7852 68.0247 90.7422 67.6094C90.7135 67.2083 91.1074 67.0508 91.9238 67.1367C92.9264 67.2083 94.2083 67.2298 95.7695 67.2012C97.4883 67.1582 99.3216 67.0508 101.27 66.8789C101.184 66.5924 101.076 66.3275 100.947 66.084C100.775 65.8118 100.561 65.5326 100.303 65.2461C99.959 64.888 99.9089 64.6016 100.152 64.3867C100.41 64.1576 100.854 64.1217 101.484 64.2793C102.415 64.5944 102.967 64.9238 103.139 65.2676C103.253 65.4681 103.217 65.7904 103.031 66.2344L102.859 66.75L102.988 66.7285ZM103.547 71.8848C102.444 72.0137 101.492 72.1712 100.689 72.3574C100.217 72.472 99.7083 72.6152 99.1641 72.7871C98.7201 72.916 98.4121 72.9805 98.2402 72.9805C97.9967 72.9805 97.6602 72.8802 97.2305 72.6797C96.1562 72.0924 95.5332 71.5911 95.3613 71.1758C95.2038 70.7461 95.5475 70.5599 96.3926 70.6172C97.3092 70.6602 98.3118 70.6673 99.4004 70.6387C100.689 70.61 101.764 70.5384 102.623 70.4238C102.895 70.3665 103.16 70.3021 103.418 70.2305C103.576 70.2018 103.769 70.1517 103.998 70.0801C104.356 69.9655 104.607 69.9225 104.75 69.9512C104.951 69.9941 105.251 70.1875 105.652 70.5312C106.082 70.9323 106.333 71.2546 106.404 71.498C106.447 71.6413 106.411 71.8418 106.297 72.0996C106.254 72.1999 106.218 72.2858 106.189 72.3574C106.161 72.4577 106.139 72.5651 106.125 72.6797C106.125 73.5964 106.01 74.377 105.781 75.0215C105.652 75.4225 105.416 75.9023 105.072 76.4609L104.943 76.6973C104.442 77.4277 104.134 77.7715 104.02 77.7285C103.934 77.6855 103.941 77.3704 104.041 76.7832C104.07 76.6113 104.077 76.4108 104.062 76.1816C104.062 76.0241 104.034 75.7591 103.977 75.3867C103.891 74.8281 103.833 74.3626 103.805 73.9902C103.747 73.3171 103.719 72.6009 103.719 71.8418L103.547 71.8848ZM116.48 73.9258C116.48 74.3555 116.309 74.7064 115.965 74.9785C115.65 75.2507 115.277 75.3867 114.848 75.3867C114.389 75.3867 114.003 75.2507 113.688 74.9785C113.358 74.7064 113.193 74.3555 113.193 73.9258C113.193 73.4961 113.358 73.138 113.688 72.8516C114.003 72.5938 114.389 72.4648 114.848 72.4648C115.263 72.4648 115.635 72.5938 115.965 72.8516C116.309 73.138 116.48 73.4961 116.48 73.9258ZM123.807 73.9258C123.807 74.3555 123.635 74.7064 123.291 74.9785C122.976 75.2507 122.604 75.3867 122.174 75.3867C121.715 75.3867 121.329 75.2507 121.014 74.9785C120.684 74.7064 120.52 74.3555 120.52 73.9258C120.52 73.4961 120.684 73.138 121.014 72.8516C121.329 72.5938 121.715 72.4648 122.174 72.4648C122.589 72.4648 122.962 72.5938 123.291 72.8516C123.635 73.138 123.807 73.4961 123.807 73.9258Z" fill="#0C0C0C"/>
<mask id="path-9-inside-2_1313_16221" fill="white">
<path d="M64.587 106.24C64.587 105.881 64.1344 105.745 63.1437 105.745C62.1615 105.745 61.7003 105.881 61.7003 106.24C61.7003 106.607 62.1615 106.744 63.1437 106.744C64.1344 106.744 64.587 106.607 64.587 106.24ZM66.7734 103.857H63.8355V104.694C65.1678 104.831 65.9792 105.377 65.9792 106.24C65.9792 107.248 64.886 107.828 63.1437 107.828C61.4014 107.828 60.3082 107.248 60.3082 106.24C60.3082 105.386 61.111 104.839 62.4519 104.694V103.857H59.5225V102.772H64.4504C64.57 102.132 64.5956 101.611 64.6041 101.133H60.3936V100.048H65.9706V100.714C65.9706 101.303 65.9706 101.961 65.8254 102.772H66.7734V103.857ZM70.505 100.364V101.38C70.505 102.935 70.9064 104.395 72.3241 105.019L71.5042 106.103C70.6673 105.71 70.1292 105.027 69.8047 104.165C69.4801 105.087 68.9164 105.821 68.0624 106.24L67.2083 105.138C68.6602 104.481 69.1129 102.926 69.1129 101.38V100.364H70.505ZM72.7939 99.7832H74.1774V107.828H72.7939V103.285H71.4359V102.183H72.7939V99.7832ZM79.2242 102.764V99.9028H80.5053V107.47H79.2242V105.215L78.5239 106.18C77.8748 105.856 77.4478 105.318 77.166 104.651C76.9097 105.386 76.4742 106.001 75.808 106.377L75.0394 105.343C76.2179 104.66 76.4998 103.396 76.4998 102.209V102.166H75.3895V101.064H76.4998V100.048H77.8065V101.064H78.9082V102.166H77.8065V102.209C77.8065 103.37 78.0883 104.523 79.2242 105.147V103.866H78.4897V102.764H79.2242ZM80.8469 99.7918H82.1536V107.803H80.8469V99.7918Z"/>
</mask>
<path d="M64.587 106.24C64.587 105.881 64.1344 105.745 63.1437 105.745C62.1615 105.745 61.7003 105.881 61.7003 106.24C61.7003 106.607 62.1615 106.744 63.1437 106.744C64.1344 106.744 64.587 106.607 64.587 106.24ZM66.7734 103.857H63.8355V104.694C65.1678 104.831 65.9792 105.377 65.9792 106.24C65.9792 107.248 64.886 107.828 63.1437 107.828C61.4014 107.828 60.3082 107.248 60.3082 106.24C60.3082 105.386 61.111 104.839 62.4519 104.694V103.857H59.5225V102.772H64.4504C64.57 102.132 64.5956 101.611 64.6041 101.133H60.3936V100.048H65.9706V100.714C65.9706 101.303 65.9706 101.961 65.8254 102.772H66.7734V103.857ZM70.505 100.364V101.38C70.505 102.935 70.9064 104.395 72.3241 105.019L71.5042 106.103C70.6673 105.71 70.1292 105.027 69.8047 104.165C69.4801 105.087 68.9164 105.821 68.0624 106.24L67.2083 105.138C68.6602 104.481 69.1129 102.926 69.1129 101.38V100.364H70.505ZM72.7939 99.7832H74.1774V107.828H72.7939V103.285H71.4359V102.183H72.7939V99.7832ZM79.2242 102.764V99.9028H80.5053V107.47H79.2242V105.215L78.5239 106.18C77.8748 105.856 77.4478 105.318 77.166 104.651C76.9097 105.386 76.4742 106.001 75.808 106.377L75.0394 105.343C76.2179 104.66 76.4998 103.396 76.4998 102.209V102.166H75.3895V101.064H76.4998V100.048H77.8065V101.064H78.9082V102.166H77.8065V102.209C77.8065 103.37 78.0883 104.523 79.2242 105.147V103.866H78.4897V102.764H79.2242ZM80.8469 99.7918H82.1536V107.803H80.8469V99.7918Z" fill="url(#paint4_linear_1313_16221)"/>
<path d="M66.7734 103.857V103.957H66.8734V103.857H66.7734ZM63.8355 103.857V103.757H63.7355V103.857H63.8355ZM63.8355 104.694H63.7355V104.784L63.8253 104.794L63.8355 104.694ZM62.4519 104.694L62.4627 104.793L62.5519 104.784V104.694H62.4519ZM62.4519 103.857H62.5519V103.757H62.4519V103.857ZM59.5225 103.857H59.4225V103.957H59.5225V103.857ZM59.5225 102.772V102.672H59.4225V102.772H59.5225ZM64.4504 102.772V102.872H64.5335L64.5487 102.791L64.4504 102.772ZM64.6041 101.133L64.7041 101.134L64.7059 101.033H64.6041V101.133ZM60.3936 101.133H60.2936V101.233H60.3936V101.133ZM60.3936 100.048V99.948H60.2936V100.048H60.3936ZM65.9706 100.048H66.0706V99.948H65.9706V100.048ZM65.8254 102.772L65.727 102.755L65.7059 102.872H65.8254V102.772ZM66.7734 102.772H66.8734V102.672H66.7734V102.772ZM64.587 106.24H64.687C64.687 106.127 64.6504 106.026 64.5746 105.944C64.501 105.863 64.3961 105.805 64.2685 105.763C64.015 105.678 63.6402 105.645 63.1437 105.645V105.745V105.845C63.6379 105.845 63.9847 105.879 64.2053 105.953C64.3147 105.989 64.3848 106.033 64.4271 106.079C64.4671 106.122 64.487 106.174 64.487 106.24H64.587ZM63.1437 105.745V105.645C62.6513 105.645 62.2766 105.678 62.0222 105.763C61.8942 105.805 61.7886 105.863 61.7144 105.943C61.6378 106.026 61.6003 106.126 61.6003 106.24H61.7003H61.8003C61.8003 106.174 61.8205 106.123 61.8611 106.079C61.9041 106.033 61.9751 105.989 62.0852 105.953C62.3069 105.879 62.6539 105.845 63.1437 105.845V105.745ZM61.7003 106.24H61.6003C61.6003 106.355 61.6374 106.457 61.7137 106.541C61.7879 106.622 61.8936 106.681 62.0218 106.724C62.2765 106.81 62.6514 106.844 63.1437 106.844V106.744V106.644C62.6538 106.644 62.3071 106.609 62.0856 106.535C61.9757 106.498 61.9048 106.454 61.8617 106.406C61.821 106.361 61.8003 106.308 61.8003 106.24H61.7003ZM63.1437 106.744V106.844C63.6401 106.844 64.0152 106.81 64.2689 106.724C64.3967 106.681 64.5017 106.622 64.5752 106.54C64.6509 106.456 64.687 106.354 64.687 106.24H64.587H64.487C64.487 106.309 64.4666 106.362 64.4265 106.407C64.3841 106.454 64.3141 106.498 64.2049 106.535C63.9846 106.609 63.638 106.644 63.1437 106.644V106.744ZM66.7734 103.857V103.757H63.8355V103.857V103.957H66.7734V103.857ZM63.8355 103.857H63.7355V104.694H63.8355H63.9355V103.857H63.8355ZM63.8355 104.694L63.8253 104.794C64.4819 104.861 64.999 105.028 65.3491 105.276C65.6957 105.522 65.8792 105.845 65.8792 106.24H65.9792H66.0792C66.0792 105.772 65.8569 105.391 65.4647 105.113C65.0761 104.838 64.5214 104.664 63.8457 104.595L63.8355 104.694ZM65.9792 106.24H65.8792C65.8792 106.7 65.6329 107.067 65.1664 107.325C64.6959 107.584 64.006 107.728 63.1437 107.728V107.828V107.928C64.0237 107.928 64.7515 107.782 65.2631 107.5C65.7788 107.215 66.0792 106.788 66.0792 106.24H65.9792ZM63.1437 107.828V107.728C62.2814 107.728 61.5915 107.584 61.1209 107.325C60.6545 107.067 60.4082 106.7 60.4082 106.24H60.3082H60.2082C60.2082 106.788 60.5085 107.215 61.0243 107.5C61.5359 107.782 62.2637 107.928 63.1437 107.928V107.828ZM60.3082 106.24H60.4082C60.4082 105.85 60.5895 105.528 60.9351 105.283C61.2844 105.035 61.8016 104.865 62.4627 104.793L62.4519 104.694L62.4411 104.595C61.7614 104.668 61.2067 104.845 60.8193 105.12C60.4283 105.397 60.2082 105.776 60.2082 106.24H60.3082ZM62.4519 104.694H62.5519V103.857H62.4519H62.3519V104.694H62.4519ZM62.4519 103.857V103.757H59.5225V103.857V103.957H62.4519V103.857ZM59.5225 103.857H59.6225V102.772H59.5225H59.4225V103.857H59.5225ZM59.5225 102.772V102.872H64.4504V102.772V102.672H59.5225V102.772ZM64.4504 102.772L64.5487 102.791C64.6697 102.143 64.6955 101.616 64.7041 101.134L64.6041 101.133L64.5041 101.131C64.4956 101.606 64.4702 102.121 64.3521 102.754L64.4504 102.772ZM64.6041 101.133V101.033H60.3936V101.133V101.233H64.6041V101.133ZM60.3936 101.133H60.4936V100.048H60.3936H60.2936V101.133H60.3936ZM60.3936 100.048V100.148H65.9706V100.048V99.948H60.3936V100.048ZM65.9706 100.048H65.8706V100.714H65.9706H66.0706V100.048H65.9706ZM65.9706 100.714H65.8706C65.8706 101.303 65.8705 101.953 65.727 102.755L65.8254 102.772L65.9239 102.79C66.0708 101.969 66.0706 101.304 66.0706 100.714H65.9706ZM65.8254 102.772V102.872H66.7734V102.772V102.672H65.8254V102.772ZM66.7734 102.772H66.6734V103.857H66.7734H66.8734V102.772H66.7734ZM70.505 100.364H70.605V100.264H70.505V100.364ZM72.3241 105.019L72.4039 105.079L72.4802 104.978L72.3644 104.927L72.3241 105.019ZM71.5042 106.103L71.4617 106.194L71.5351 106.228L71.584 106.164L71.5042 106.103ZM69.8047 104.165L69.8983 104.129L69.8015 103.872L69.7103 104.131L69.8047 104.165ZM68.0624 106.24L67.9833 106.301L68.0332 106.366L68.1064 106.33L68.0624 106.24ZM67.2083 105.138L67.1671 105.047L67.0517 105.099L67.1293 105.199L67.2083 105.138ZM69.1129 100.364V100.264H69.0129V100.364H69.1129ZM72.7939 99.7832V99.6832H72.6939V99.7832H72.7939ZM74.1774 99.7832H74.2774V99.6832H74.1774V99.7832ZM74.1774 107.828V107.928H74.2774V107.828H74.1774ZM72.7939 107.828H72.6939V107.928H72.7939V107.828ZM72.7939 103.285H72.8939V103.185H72.7939V103.285ZM71.4359 103.285H71.3359V103.385H71.4359V103.285ZM71.4359 102.183V102.083H71.3359V102.183H71.4359ZM72.7939 102.183V102.283H72.8939V102.183H72.7939ZM70.505 100.364H70.405V101.38H70.505H70.605V100.364H70.505ZM70.505 101.38H70.405C70.405 102.944 70.8087 104.461 72.2839 105.11L72.3241 105.019L72.3644 104.927C71.0041 104.329 70.605 102.925 70.605 101.38H70.505ZM72.3241 105.019L72.2443 104.958L71.4245 106.043L71.5042 106.103L71.584 106.164L72.4039 105.079L72.3241 105.019ZM71.5042 106.103L71.5467 106.013C70.7382 105.633 70.2157 104.973 69.8983 104.129L69.8047 104.165L69.7111 104.2C70.0427 105.081 70.5963 105.788 71.4617 106.194L71.5042 106.103ZM69.8047 104.165L69.7103 104.131C69.3925 105.035 68.844 105.746 68.0184 106.15L68.0624 106.24L68.1064 106.33C68.9889 105.897 69.5677 105.139 69.899 104.198L69.8047 104.165ZM68.0624 106.24L68.1414 106.179L67.2874 105.077L67.2083 105.138L67.1293 105.199L67.9833 106.301L68.0624 106.24ZM67.2083 105.138L67.2496 105.229C68.7569 104.547 69.2129 102.938 69.2129 101.38H69.1129H69.0129C69.0129 102.914 68.5636 104.415 67.1671 105.047L67.2083 105.138ZM69.1129 101.38H69.2129V100.364H69.1129H69.0129V101.38H69.1129ZM69.1129 100.364V100.464H70.505V100.364V100.264H69.1129V100.364ZM72.7939 99.7832V99.8832H74.1774V99.7832V99.6832H72.7939V99.7832ZM74.1774 99.7832H74.0774V107.828H74.1774H74.2774V99.7832H74.1774ZM74.1774 107.828V107.728H72.7939V107.828V107.928H74.1774V107.828ZM72.7939 107.828H72.8939V103.285H72.7939H72.6939V107.828H72.7939ZM72.7939 103.285V103.185H71.4359V103.285V103.385H72.7939V103.285ZM71.4359 103.285H71.5359V102.183H71.4359H71.3359V103.285H71.4359ZM71.4359 102.183V102.283H72.7939V102.183V102.083H71.4359V102.183ZM72.7939 102.183H72.8939V99.7832H72.7939H72.6939V102.183H72.7939ZM79.2242 102.764V102.864H79.3242V102.764H79.2242ZM79.2242 99.9028V99.8028H79.1242V99.9028H79.2242ZM80.5053 99.9028H80.6053V99.8028H80.5053V99.9028ZM80.5053 107.47V107.57H80.6053V107.47H80.5053ZM79.2242 107.47H79.1242V107.57H79.2242V107.47ZM79.2242 105.215H79.3242V104.907L79.1433 105.156L79.2242 105.215ZM78.5239 106.18L78.4792 106.27L78.555 106.307L78.6048 106.239L78.5239 106.18ZM77.166 104.651L77.258 104.612L77.157 104.373L77.0715 104.618L77.166 104.651ZM75.808 106.377L75.7278 106.436L75.7804 106.507L75.8571 106.464L75.808 106.377ZM75.0394 105.343L74.9892 105.257L74.8922 105.313L74.9591 105.403L75.0394 105.343ZM76.4998 102.166H76.5998V102.066H76.4998V102.166ZM75.3895 102.166H75.2895V102.266H75.3895V102.166ZM75.3895 101.064V100.964H75.2895V101.064H75.3895ZM76.4998 101.064V101.164H76.5998V101.064H76.4998ZM76.4998 100.048V99.948H76.3998V100.048H76.4998ZM77.8065 100.048H77.9065V99.948H77.8065V100.048ZM77.8065 101.064H77.7065V101.164H77.8065V101.064ZM78.9082 101.064H79.0082V100.964H78.9082V101.064ZM78.9082 102.166V102.266H79.0082V102.166H78.9082ZM77.8065 102.166V102.066H77.7065V102.166H77.8065ZM79.2242 105.147L79.1761 105.234L79.3242 105.316V105.147H79.2242ZM79.2242 103.866H79.3242V103.766H79.2242V103.866ZM78.4897 103.866H78.3897V103.966H78.4897V103.866ZM78.4897 102.764V102.664H78.3897V102.764H78.4897ZM80.8469 99.7918V99.6918H80.7469V99.7918H80.8469ZM82.1536 99.7918H82.2536V99.6918H82.1536V99.7918ZM82.1536 107.803V107.903H82.2536V107.803H82.1536ZM80.8469 107.803H80.7469V107.903H80.8469V107.803ZM79.2242 102.764H79.3242V99.9028H79.2242H79.1242V102.764H79.2242ZM79.2242 99.9028V100.003H80.5053V99.9028V99.8028H79.2242V99.9028ZM80.5053 99.9028H80.4053V107.47H80.5053H80.6053V99.9028H80.5053ZM80.5053 107.47V107.37H79.2242V107.47V107.57H80.5053V107.47ZM79.2242 107.47H79.3242V105.215H79.2242H79.1242V107.47H79.2242ZM79.2242 105.215L79.1433 105.156L78.443 106.121L78.5239 106.18L78.6048 106.239L79.3052 105.274L79.2242 105.215ZM78.5239 106.18L78.5686 106.091C77.9458 105.779 77.533 105.262 77.258 104.612L77.166 104.651L77.0739 104.69C77.3626 105.373 77.8038 105.932 78.4792 106.27L78.5239 106.18ZM77.166 104.651L77.0715 104.618C76.8212 105.336 76.3989 105.928 75.7589 106.289L75.808 106.377L75.8571 106.464C76.5494 106.073 76.9983 105.436 77.2604 104.684L77.166 104.651ZM75.808 106.377L75.8882 106.317L75.1196 105.283L75.0394 105.343L74.9591 105.403L75.7278 106.436L75.808 106.377ZM75.0394 105.343L75.0895 105.43C76.3158 104.719 76.5998 103.406 76.5998 102.209H76.4998H76.3998C76.3998 103.385 76.1201 104.601 74.9892 105.257L75.0394 105.343ZM76.4998 102.209H76.5998V102.166H76.4998H76.3998V102.209H76.4998ZM76.4998 102.166V102.066H75.3895V102.166V102.266H76.4998V102.166ZM75.3895 102.166H75.4895V101.064H75.3895H75.2895V102.166H75.3895ZM75.3895 101.064V101.164H76.4998V101.064V100.964H75.3895V101.064ZM76.4998 101.064H76.5998V100.048H76.4998H76.3998V101.064H76.4998ZM76.4998 100.048V100.148H77.8065V100.048V99.948H76.4998V100.048ZM77.8065 100.048H77.7065V101.064H77.8065H77.9065V100.048H77.8065ZM77.8065 101.064V101.164H78.9082V101.064V100.964H77.8065V101.064ZM78.9082 101.064H78.8082V102.166H78.9082H79.0082V101.064H78.9082ZM78.9082 102.166V102.066H77.8065V102.166V102.266H78.9082V102.166ZM77.8065 102.166H77.7065V102.209H77.8065H77.9065V102.166H77.8065ZM77.8065 102.209H77.7065C77.7065 103.382 77.9914 104.584 79.1761 105.234L79.2242 105.147L79.2723 105.059C78.1852 104.462 77.9065 103.358 77.9065 102.209H77.8065ZM79.2242 105.147H79.3242V103.866H79.2242H79.1242V105.147H79.2242ZM79.2242 103.866V103.766H78.4897V103.866V103.966H79.2242V103.866ZM78.4897 103.866H78.5897V102.764H78.4897H78.3897V103.866H78.4897ZM78.4897 102.764V102.864H79.2242V102.764V102.664H78.4897V102.764ZM80.8469 99.7918V99.8918H82.1536V99.7918V99.6918H80.8469V99.7918ZM82.1536 99.7918H82.0536V107.803H82.1536H82.2536V99.7918H82.1536ZM82.1536 107.803V107.703H80.8469V107.803V107.903H82.1536V107.803ZM80.8469 107.803H80.9469V99.7918H80.8469H80.7469V107.803H80.8469Z" fill="white" fill-opacity="0.8" mask="url(#path-9-inside-2_1313_16221)"/>
<defs>
<linearGradient id="paint0_linear_1313_16221" x1="10.5617" y1="98.0671" x2="107.489" y2="159.437" gradientUnits="userSpaceOnUse">
<stop stop-color="white"/>
<stop offset="0.5" stop-color="white" stop-opacity="0"/>
<stop offset="1" stop-color="white"/>
</linearGradient>
<linearGradient id="paint1_linear_1313_16221" x1="58.2222" y1="87.7378" x2="78.3502" y2="161.515" gradientUnits="userSpaceOnUse">
<stop stop-color="white"/>
<stop offset="1" stop-color="#EDEDED"/>
</linearGradient>
<linearGradient id="paint2_linear_1313_16221" x1="18.831" y1="87.7852" x2="95.5053" y2="129.514" gradientUnits="userSpaceOnUse">
<stop stop-color="white"/>
<stop offset="0.5" stop-color="white" stop-opacity="0"/>
<stop offset="1" stop-color="white"/>
</linearGradient>
<linearGradient id="paint3_linear_1313_16221" x1="22.5818" y1="38.8161" x2="39.6543" y2="50.5075" gradientUnits="userSpaceOnUse">
<stop stop-color="#5F5F5F"/>
<stop offset="1" stop-color="#606060" stop-opacity="0.7"/>
</linearGradient>
<linearGradient id="paint4_linear_1313_16221" x1="60.8077" y1="101.816" x2="78.5821" y2="115.727" gradientUnits="userSpaceOnUse">
<stop stop-color="#5F5F5F"/>
<stop offset="1" stop-color="#606060" stop-opacity="0.7"/>
</linearGradient>
</defs>
</svg>
