<svg width="143" height="115" viewBox="0 0 143 115" fill="none" xmlns="http://www.w3.org/2000/svg">
<rect x="6" y="92.1304" width="70.1305" height="130.953" rx="15.5156" transform="rotate(-90 6 92.1304)" fill="#E0E0E0"/>
<rect x="6.5" y="91.6304" width="69.1305" height="129.953" rx="15.0156" transform="rotate(-90 6.5 91.6304)" stroke="url(#paint0_linear_1313_16217)" stroke-opacity="0.5"/>
<rect x="15.4922" y="82.73" width="51.3307" height="111.508" rx="8" transform="rotate(-90 15.4922 82.73)" fill="url(#paint1_linear_1313_16217)"/>
<rect x="15.9922" y="82.23" width="50.3307" height="110.508" rx="7.5" transform="rotate(-90 15.9922 82.23)" stroke="url(#paint2_linear_1313_16217)" stroke-opacity="0.5"/>
<mask id="path-6-inside-1_1313_16217" fill="white">
<path d="M25.9962 42.1723C25.9962 43.2313 25.1763 44.0598 23.7501 44.0598C22.4092 44.0598 21.3672 43.4192 21.2989 42.1296H23.0839C23.1181 42.5823 23.3828 42.736 23.6903 42.736C23.9892 42.736 24.2198 42.5823 24.2198 42.3004C24.2113 41.3353 21.2904 41.788 21.316 39.6956C21.316 38.517 22.2982 37.885 23.5707 37.885C24.9543 37.885 25.8596 38.5597 25.9194 39.7553H24.1002C24.0831 39.3796 23.8525 39.2087 23.5451 39.2087C23.2974 39.2002 23.101 39.3454 23.101 39.6358C23.101 40.5325 25.9962 40.2422 25.9962 42.1723ZM26.7744 44V37.68H28.4484V39.892C28.7302 39.482 29.2341 39.166 29.9259 39.166C31.0191 39.166 31.7109 39.9518 31.7109 41.2072V44H30.0369V41.4293C30.0369 40.8742 29.7295 40.5496 29.2512 40.5496C28.7558 40.5496 28.4484 40.8742 28.4484 41.4293V44H26.7744ZM32.6294 44V39.2087H34.3033V44H32.6294ZM33.4749 38.7646C32.877 38.7646 32.4927 38.3889 32.4927 37.9106C32.4927 37.4238 32.877 37.0394 33.4749 37.0394C34.0642 37.0394 34.4485 37.4238 34.4485 37.9106C34.4485 38.3889 34.0642 38.7646 33.4749 38.7646ZM35.4103 44V40.6009H34.8894V39.2087H35.4103V39.166C35.4103 37.8423 36.2729 37.159 37.8273 37.27V38.6963C37.3234 38.6451 37.1184 38.7817 37.0928 39.2087H37.8444V40.6009H37.0928V44H35.4103ZM38.7074 42.1809V40.6009H38.1181V39.2087H38.7074V38.0472H40.3899V39.2087H41.261V40.6009H40.3899V42.2065C40.3899 42.4627 40.5009 42.5737 40.7827 42.5737H41.2695V44H40.5436C39.4846 44 38.7074 43.5559 38.7074 42.1809Z"/>
</mask>
<path d="M25.9962 42.1723C25.9962 43.2313 25.1763 44.0598 23.7501 44.0598C22.4092 44.0598 21.3672 43.4192 21.2989 42.1296H23.0839C23.1181 42.5823 23.3828 42.736 23.6903 42.736C23.9892 42.736 24.2198 42.5823 24.2198 42.3004C24.2113 41.3353 21.2904 41.788 21.316 39.6956C21.316 38.517 22.2982 37.885 23.5707 37.885C24.9543 37.885 25.8596 38.5597 25.9194 39.7553H24.1002C24.0831 39.3796 23.8525 39.2087 23.5451 39.2087C23.2974 39.2002 23.101 39.3454 23.101 39.6358C23.101 40.5325 25.9962 40.2422 25.9962 42.1723ZM26.7744 44V37.68H28.4484V39.892C28.7302 39.482 29.2341 39.166 29.9259 39.166C31.0191 39.166 31.7109 39.9518 31.7109 41.2072V44H30.0369V41.4293C30.0369 40.8742 29.7295 40.5496 29.2512 40.5496C28.7558 40.5496 28.4484 40.8742 28.4484 41.4293V44H26.7744ZM32.6294 44V39.2087H34.3033V44H32.6294ZM33.4749 38.7646C32.877 38.7646 32.4927 38.3889 32.4927 37.9106C32.4927 37.4238 32.877 37.0394 33.4749 37.0394C34.0642 37.0394 34.4485 37.4238 34.4485 37.9106C34.4485 38.3889 34.0642 38.7646 33.4749 38.7646ZM35.4103 44V40.6009H34.8894V39.2087H35.4103V39.166C35.4103 37.8423 36.2729 37.159 37.8273 37.27V38.6963C37.3234 38.6451 37.1184 38.7817 37.0928 39.2087H37.8444V40.6009H37.0928V44H35.4103ZM38.7074 42.1809V40.6009H38.1181V39.2087H38.7074V38.0472H40.3899V39.2087H41.261V40.6009H40.3899V42.2065C40.3899 42.4627 40.5009 42.5737 40.7827 42.5737H41.2695V44H40.5436C39.4846 44 38.7074 43.5559 38.7074 42.1809Z" fill="url(#paint3_linear_1313_16217)"/>
<path d="M21.2989 42.1296V42.0296H21.1935L21.1991 42.1349L21.2989 42.1296ZM23.0839 42.1296L23.1836 42.1221L23.1766 42.0296H23.0839V42.1296ZM24.2198 42.3004H24.3198L24.3198 42.2995L24.2198 42.3004ZM21.316 39.6956L21.416 39.6968V39.6956H21.316ZM25.9194 39.7553V39.8553H26.0245L26.0192 39.7503L25.9194 39.7553ZM24.1002 39.7553L24.0003 39.7599L24.0047 39.8553H24.1002V39.7553ZM23.5451 39.2087L23.5416 39.3087H23.5451V39.2087ZM25.9962 42.1723H25.8962C25.8962 42.6748 25.7024 43.1188 25.3417 43.4383C24.9803 43.7585 24.444 43.9598 23.7501 43.9598V44.0598V44.1598C24.4824 44.1598 25.0692 43.9469 25.4743 43.588C25.8801 43.2286 26.0962 42.7289 26.0962 42.1723H25.9962ZM23.7501 44.0598V43.9598C23.0942 43.9598 22.5213 43.803 22.1066 43.4978C21.6948 43.1947 21.4314 42.7402 21.3988 42.1243L21.2989 42.1296L21.1991 42.1349C21.2348 42.8087 21.5265 43.3192 21.988 43.6588C22.4466 43.9963 23.065 44.1598 23.7501 44.1598V44.0598ZM21.2989 42.1296V42.2296H23.0839V42.1296V42.0296H21.2989V42.1296ZM23.0839 42.1296L22.9842 42.1371C23.0027 42.3822 23.0852 42.5613 23.2189 42.6779C23.3514 42.7936 23.5208 42.836 23.6903 42.836V42.736V42.636C23.5523 42.636 23.4355 42.6015 23.3503 42.5272C23.2662 42.4538 23.1993 42.3297 23.1836 42.1221L23.0839 42.1296ZM23.6903 42.736V42.836C23.8556 42.836 24.0114 42.7936 24.1284 42.7029C24.2482 42.6101 24.3198 42.4718 24.3198 42.3004H24.2198H24.1198C24.1198 42.4109 24.0761 42.4904 24.0059 42.5449C23.9328 42.6015 23.8239 42.636 23.6903 42.636V42.736ZM24.2198 42.3004L24.3198 42.2995C24.3171 41.9942 24.0793 41.8175 23.8006 41.6896C23.6579 41.6242 23.4935 41.5664 23.3223 41.509C23.1495 41.4511 22.9699 41.3935 22.7897 41.327C22.429 41.1937 22.0827 41.0299 21.828 40.7784C21.5772 40.5309 21.4099 40.1931 21.416 39.6968L21.316 39.6956L21.216 39.6943C21.2093 40.2443 21.3975 40.6345 21.6875 40.9208C21.9735 41.2031 22.3531 41.3788 22.7204 41.5146C22.9043 41.5825 23.0893 41.6418 23.2587 41.6987C23.4298 41.756 23.5852 41.8109 23.7172 41.8714C23.9877 41.9955 24.1182 42.1241 24.1198 42.3013L24.2198 42.3004ZM21.316 39.6956H21.416C21.416 39.1376 21.6469 38.7145 22.0264 38.4281C22.409 38.1394 22.9496 37.985 23.5707 37.985V37.885V37.785C22.9193 37.785 22.3325 37.9466 21.9059 38.2685C21.4762 38.5927 21.216 39.075 21.216 39.6956H21.316ZM23.5707 37.885V37.985C24.2473 37.985 24.7956 38.15 25.1798 38.4505C25.5617 38.7492 25.7909 39.1888 25.8195 39.7603L25.9194 39.7553L26.0192 39.7503C25.988 39.1262 25.7347 38.6306 25.3031 38.293C24.8738 37.9573 24.2777 37.785 23.5707 37.785V37.885ZM25.9194 39.7553V39.6553H24.1002V39.7553V39.8553H25.9194V39.7553ZM24.1002 39.7553L24.2001 39.7508C24.1907 39.5427 24.121 39.3787 23.999 39.2673C23.8778 39.1566 23.7168 39.1087 23.5451 39.1087V39.2087V39.3087C23.6808 39.3087 23.7889 39.3463 23.8641 39.415C23.9385 39.4829 23.9927 39.5922 24.0003 39.7599L24.1002 39.7553ZM23.5451 39.2087L23.5485 39.1088C23.4048 39.1039 23.2668 39.1433 23.1635 39.2356C23.0589 39.329 23.001 39.4669 23.001 39.6358H23.101H23.201C23.201 39.5143 23.2413 39.4343 23.2968 39.3847C23.3536 39.3339 23.4377 39.3051 23.5416 39.3087L23.5451 39.2087ZM23.101 39.6358H23.001C23.001 39.9256 23.2381 40.0999 23.5104 40.2293C23.6511 40.2962 23.8136 40.3569 23.9834 40.4177C24.1546 40.4789 24.3331 40.5402 24.5124 40.6098C24.8716 40.7491 25.2182 40.916 25.4749 41.1603C25.7278 41.4008 25.8962 41.7189 25.8962 42.1723H25.9962H26.0962C26.0962 41.6606 25.9027 41.2912 25.6128 41.0154C25.3266 40.7431 24.9495 40.5648 24.5848 40.4233C24.4022 40.3525 24.2188 40.2895 24.0507 40.2294C23.8812 40.1687 23.7271 40.1109 23.5963 40.0487C23.3257 39.9201 23.201 39.7943 23.201 39.6358H23.101ZM26.7744 44H26.6744V44.1H26.7744V44ZM26.7744 37.68V37.58H26.6744V37.68H26.7744ZM28.4484 37.68H28.5484V37.58H28.4484V37.68ZM28.4484 39.892H28.3484V40.214L28.5308 39.9486L28.4484 39.892ZM31.7109 44V44.1H31.8109V44H31.7109ZM30.0369 44H29.9369V44.1H30.0369V44ZM28.4484 44V44.1H28.5484V44H28.4484ZM26.7744 44H26.8744V37.68H26.7744H26.6744V44H26.7744ZM26.7744 37.68V37.78H28.4484V37.68V37.58H26.7744V37.68ZM28.4484 37.68H28.3484V39.892H28.4484H28.5484V37.68H28.4484ZM28.4484 39.892L28.5308 39.9486C28.7939 39.5658 29.267 39.266 29.9259 39.266V39.166V39.066C29.2012 39.066 28.6665 39.3982 28.366 39.8353L28.4484 39.892ZM29.9259 39.166V39.266C30.447 39.266 30.8646 39.4524 31.1531 39.7817C31.4429 40.1125 31.6109 40.5972 31.6109 41.2072H31.7109H31.8109C31.8109 40.5618 31.6329 40.0259 31.3035 39.6499C30.9729 39.2725 30.4979 39.066 29.9259 39.066V39.166ZM31.7109 41.2072H31.6109V44H31.7109H31.8109V41.2072H31.7109ZM31.7109 44V43.9H30.0369V44V44.1H31.7109V44ZM30.0369 44H30.1369V41.4293H30.0369H29.9369V44H30.0369ZM30.0369 41.4293H30.1369C30.1369 41.1338 30.0549 40.8875 29.8974 40.7141C29.739 40.5395 29.5139 40.4496 29.2512 40.4496V40.5496V40.6496C29.4667 40.6496 29.6345 40.722 29.7494 40.8485C29.8652 40.9761 29.9369 41.1697 29.9369 41.4293H30.0369ZM29.2512 40.5496V40.4496C28.9809 40.4496 28.7515 40.5388 28.5905 40.7135C28.4304 40.8872 28.3484 41.1338 28.3484 41.4293H28.4484H28.5484C28.5484 41.1697 28.6201 40.9764 28.7375 40.8491C28.8541 40.7227 29.0261 40.6496 29.2512 40.6496V40.5496ZM28.4484 41.4293H28.3484V44H28.4484H28.5484V41.4293H28.4484ZM28.4484 44V43.9H26.7744V44V44.1H28.4484V44ZM32.6294 44H32.5294V44.1H32.6294V44ZM32.6294 39.2087V39.1087H32.5294V39.2087H32.6294ZM34.3033 39.2087H34.4033V39.1087H34.3033V39.2087ZM34.3033 44V44.1H34.4033V44H34.3033ZM32.6294 44H32.7294V39.2087H32.6294H32.5294V44H32.6294ZM32.6294 39.2087V39.3087H34.3033V39.2087V39.1087H32.6294V39.2087ZM34.3033 39.2087H34.2033V44H34.3033H34.4033V39.2087H34.3033ZM34.3033 44V43.9H32.6294V44V44.1H34.3033V44ZM33.4749 38.7646V38.6646C32.9221 38.6646 32.5927 38.324 32.5927 37.9106H32.4927H32.3927C32.3927 38.4537 32.832 38.8646 33.4749 38.8646V38.7646ZM32.4927 37.9106H32.5927C32.5927 37.4868 32.9241 37.1394 33.4749 37.1394V37.0394V36.9394C32.83 36.9394 32.3927 37.3607 32.3927 37.9106H32.4927ZM33.4749 37.0394V37.1394C34.0165 37.1394 34.3485 37.4862 34.3485 37.9106H34.4485H34.5485C34.5485 37.3613 34.1119 36.9394 33.4749 36.9394V37.0394ZM34.4485 37.9106H34.3485C34.3485 38.3245 34.0185 38.6646 33.4749 38.6646V38.7646V38.8646C34.1099 38.8646 34.5485 38.4532 34.5485 37.9106H34.4485ZM35.4103 44H35.3103V44.1H35.4103V44ZM35.4103 40.6009H35.5103V40.5009H35.4103V40.6009ZM34.8894 40.6009H34.7894V40.7009H34.8894V40.6009ZM34.8894 39.2087V39.1087H34.7894V39.2087H34.8894ZM35.4103 39.2087V39.3087H35.5103V39.2087H35.4103ZM37.8273 37.27H37.9273V37.1769L37.8344 37.1703L37.8273 37.27ZM37.8273 38.6963L37.8172 38.7958L37.9273 38.807V38.6963H37.8273ZM37.0928 39.2087L36.993 39.2028L36.9866 39.3087H37.0928V39.2087ZM37.8444 39.2087H37.9444V39.1087H37.8444V39.2087ZM37.8444 40.6009V40.7009H37.9444V40.6009H37.8444ZM37.0928 40.6009V40.5009H36.9928V40.6009H37.0928ZM37.0928 44V44.1H37.1928V44H37.0928ZM35.4103 44H35.5103V40.6009H35.4103H35.3103V44H35.4103ZM35.4103 40.6009V40.5009H34.8894V40.6009V40.7009H35.4103V40.6009ZM34.8894 40.6009H34.9894V39.2087H34.8894H34.7894V40.6009H34.8894ZM34.8894 39.2087V39.3087H35.4103V39.2087V39.1087H34.8894V39.2087ZM35.4103 39.2087H35.5103V39.166H35.4103H35.3103V39.2087H35.4103ZM35.4103 39.166H35.5103C35.5103 38.5267 35.7176 38.0575 36.0977 37.7586C36.4809 37.4572 37.0568 37.3153 37.8202 37.3698L37.8273 37.27L37.8344 37.1703C37.0434 37.1138 36.4108 37.2579 35.9741 37.6014C35.5343 37.9472 35.3103 38.4816 35.3103 39.166H35.4103ZM37.8273 37.27H37.7273V38.6963H37.8273H37.9273V37.27H37.8273ZM37.8273 38.6963L37.8374 38.5968C37.5809 38.5707 37.3723 38.5883 37.2239 38.6909C37.0692 38.7977 37.0066 38.9767 36.993 39.2028L37.0928 39.2087L37.1926 39.2147C37.2047 39.0137 37.2573 38.9109 37.3376 38.8555C37.424 38.7957 37.5698 38.7706 37.8172 38.7958L37.8273 38.6963ZM37.0928 39.2087V39.3087H37.8444V39.2087V39.1087H37.0928V39.2087ZM37.8444 39.2087H37.7444V40.6009H37.8444H37.9444V39.2087H37.8444ZM37.8444 40.6009V40.5009H37.0928V40.6009V40.7009H37.8444V40.6009ZM37.0928 40.6009H36.9928V44H37.0928H37.1928V40.6009H37.0928ZM37.0928 44V43.9H35.4103V44V44.1H37.0928V44ZM38.7074 40.6009H38.8074V40.5009H38.7074V40.6009ZM38.1181 40.6009H38.0181V40.7009H38.1181V40.6009ZM38.1181 39.2087V39.1087H38.0181V39.2087H38.1181ZM38.7074 39.2087V39.3087H38.8074V39.2087H38.7074ZM38.7074 38.0472V37.9472H38.6074V38.0472H38.7074ZM40.3899 38.0472H40.4899V37.9472H40.3899V38.0472ZM40.3899 39.2087H40.2899V39.3087H40.3899V39.2087ZM41.261 39.2087H41.361V39.1087H41.261V39.2087ZM41.261 40.6009V40.7009H41.361V40.6009H41.261ZM40.3899 40.6009V40.5009H40.2899V40.6009H40.3899ZM41.2695 42.5737H41.3695V42.4737H41.2695V42.5737ZM41.2695 44V44.1H41.3695V44H41.2695ZM38.7074 42.1809H38.8074V40.6009H38.7074H38.6074V42.1809H38.7074ZM38.7074 40.6009V40.5009H38.1181V40.6009V40.7009H38.7074V40.6009ZM38.1181 40.6009H38.2181V39.2087H38.1181H38.0181V40.6009H38.1181ZM38.1181 39.2087V39.3087H38.7074V39.2087V39.1087H38.1181V39.2087ZM38.7074 39.2087H38.8074V38.0472H38.7074H38.6074V39.2087H38.7074ZM38.7074 38.0472V38.1472H40.3899V38.0472V37.9472H38.7074V38.0472ZM40.3899 38.0472H40.2899V39.2087H40.3899H40.4899V38.0472H40.3899ZM40.3899 39.2087V39.3087H41.261V39.2087V39.1087H40.3899V39.2087ZM41.261 39.2087H41.161V40.6009H41.261H41.361V39.2087H41.261ZM41.261 40.6009V40.5009H40.3899V40.6009V40.7009H41.261V40.6009ZM40.3899 40.6009H40.2899V42.2065H40.3899H40.4899V40.6009H40.3899ZM40.3899 42.2065H40.2899C40.2899 42.3464 40.3199 42.4715 40.4118 42.5587C40.5024 42.6447 40.6322 42.6737 40.7827 42.6737V42.5737V42.4737C40.6514 42.4737 40.5848 42.4472 40.5495 42.4137C40.5154 42.3813 40.4899 42.3228 40.4899 42.2065H40.3899ZM40.7827 42.5737V42.6737H41.2695V42.5737V42.4737H40.7827V42.5737ZM41.2695 42.5737H41.1695V44H41.2695H41.3695V42.5737H41.2695ZM41.2695 44V43.9H40.5436V44V44.1H41.2695V44ZM40.5436 44V43.9C40.0256 43.9 39.5947 43.791 39.2938 43.5305C38.9958 43.2724 38.8074 42.8496 38.8074 42.1809H38.7074H38.6074C38.6074 42.8872 38.8076 43.374 39.1629 43.6817C39.5154 43.9869 40.0026 44.1 40.5436 44.1V44Z" fill="white" fill-opacity="0.8" mask="url(#path-6-inside-1_1313_16217)"/>
<path d="M82.312 54.264C82.8186 54.1373 83.2366 54.2133 83.566 54.492C83.8953 54.7453 83.9713 55.062 83.794 55.442C83.718 55.594 83.5533 55.7587 83.3 55.936C83.0466 56.1133 82.844 56.202 82.692 56.202C82.5653 56.202 82.4006 56.2273 82.198 56.278C81.3873 56.5313 80.488 56.734 79.5 56.886C78.588 57.038 77.676 57.2787 76.764 57.608C76.4346 57.7093 76.2193 57.8487 76.118 58.026C76.042 58.178 76.004 58.5073 76.004 59.014C76.004 59.4953 76.0673 59.7613 76.194 59.812C76.346 59.8373 76.8526 59.7233 77.714 59.47C77.7393 59.4447 77.79 59.4193 77.866 59.394C77.9673 59.3687 78.056 59.3433 78.132 59.318C78.2333 59.2927 78.322 59.28 78.398 59.28C78.474 59.2547 78.55 59.2293 78.626 59.204C78.7273 59.1787 78.816 59.1533 78.892 59.128C78.9933 59.0773 79.0566 59.052 79.082 59.052C79.462 58.9507 79.9813 58.8113 80.64 58.634C80.9186 58.5833 81.1466 58.5327 81.324 58.482C81.5773 58.3807 82.046 58.3173 82.73 58.292C83.414 58.2667 83.8066 58.292 83.908 58.368C84.1613 58.4947 84.2246 58.6973 84.098 58.976C83.9713 59.2293 83.718 59.4193 83.338 59.546C83.2873 59.5713 83.186 59.6093 83.034 59.66C82.9073 59.7107 82.8313 59.736 82.806 59.736C82.654 59.7867 82.4386 59.8627 82.16 59.964C81.7293 60.0653 81.4886 60.1287 81.438 60.154C81.2353 60.2047 80.9693 60.23 80.64 60.23C79.9813 60.23 79.006 60.534 77.714 61.142C77.03 61.4713 76.536 61.6613 76.232 61.712C75.9786 61.7373 75.814 61.8133 75.738 61.94C75.6873 62.0413 75.6366 62.3073 75.586 62.738C75.51 63.3207 75.5606 63.6627 75.738 63.764C75.9153 63.84 76.384 63.764 77.144 63.536C77.5746 63.4347 78.208 63.27 79.044 63.042C81.248 62.51 82.5653 62.0413 82.996 61.636C83.5533 61.104 83.9713 60.876 84.25 60.952C84.554 61.0027 84.6553 61.3447 84.554 61.978C84.3513 62.9913 83.8446 63.498 83.034 63.498C82.958 63.498 82.578 63.6627 81.894 63.992C81.21 64.3213 80.868 64.4987 80.868 64.524C80.868 64.6 80.83 64.8913 80.754 65.398C80.7033 66.006 80.716 66.5253 80.792 66.956C80.944 68.096 80.9313 69.198 80.754 70.262C80.678 70.7687 80.6526 71.0473 80.678 71.098C80.7286 71.1233 81.2606 71.1107 82.274 71.06C83.2873 70.984 84.0726 70.908 84.63 70.832C86.0233 70.6547 86.9606 70.6167 87.442 70.718C87.9486 70.8193 88.202 71.098 88.202 71.554C88.202 71.8833 88.05 72.1113 87.746 72.238C87.442 72.3393 86.8593 72.4153 85.998 72.466C84.478 72.5167 82.9453 72.6813 81.4 72.96C81.248 72.9853 80.8806 73.0487 80.298 73.15C79.7406 73.2513 79.3353 73.3147 79.082 73.34C75.5353 73.9733 73.5086 74.3913 73.002 74.594C72.546 74.7967 72.1913 74.8473 71.938 74.746C71.482 74.5687 71.292 74.2773 71.368 73.872C71.4693 73.4413 71.7733 73.112 72.28 72.884C72.812 72.6307 74.8133 72.2127 78.284 71.63C78.3346 71.6047 78.3853 71.592 78.436 71.592C79.0693 71.4907 79.424 71.3007 79.5 71.022C79.576 70.718 79.5126 69.7807 79.31 68.21C79.2846 68.0833 79.272 67.982 79.272 67.906C79.12 66.8673 79.044 66.12 79.044 65.664C79.0693 65.3347 79.0693 65.1447 79.044 65.094C79.0186 65.018 78.9426 64.98 78.816 64.98C78.6386 64.98 78.1446 65.1067 77.334 65.36C76.5233 65.588 75.9026 65.778 75.472 65.93C74.6613 66.2847 74.1293 66.3227 73.876 66.044C73.724 65.892 73.6733 65.132 73.724 63.764C73.7746 62.396 73.9013 61.218 74.104 60.23C74.256 59.5207 74.2306 58.9127 74.028 58.406C73.876 57.8993 73.8886 57.456 74.066 57.076C74.2433 56.6707 74.5473 56.43 74.978 56.354C75.3833 56.2527 76.0673 56.0373 77.03 55.708C77.638 55.48 78.1066 55.3407 78.436 55.29C78.588 55.2647 78.892 55.2013 79.348 55.1C79.576 55.0493 79.8673 54.986 80.222 54.91C80.8553 54.7833 81.4126 54.6187 81.894 54.416C82.046 54.34 82.1853 54.2893 82.312 54.264ZM100.482 50.654C100.837 50.6033 101.09 50.5907 101.242 50.616C101.394 50.6413 101.508 50.654 101.584 50.654C101.787 50.654 101.977 50.806 102.154 51.11C102.357 51.3887 102.446 51.642 102.42 51.87C102.37 52.1233 102.218 52.3007 101.964 52.402C101.711 52.5033 101.23 52.5667 100.52 52.592C99.3549 52.6173 97.8855 52.7567 96.1122 53.01C95.3015 53.1367 94.6682 53.2253 94.2122 53.276C94.1869 53.276 94.1489 53.276 94.0982 53.276C93.8955 53.3013 93.7562 53.4153 93.6802 53.618C93.6295 53.8207 93.5409 54.4793 93.4142 55.594C93.3889 55.7967 93.3762 55.9487 93.3762 56.05C93.2749 56.8353 93.2749 57.2787 93.3762 57.38C93.5029 57.4813 93.9589 57.4433 94.7442 57.266C95.2762 57.1647 96.3022 56.9873 97.8222 56.734C98.9875 56.5313 100.128 56.3287 101.242 56.126C101.952 55.9993 102.433 55.9613 102.686 56.012C102.965 56.0373 103.206 56.164 103.408 56.392C103.788 56.848 103.864 57.228 103.636 57.532C103.408 57.836 102.914 57.988 102.154 57.988C101.749 57.988 101.128 58.0513 100.292 58.178C99.4815 58.2793 99.0255 58.368 98.9242 58.444C98.8735 58.444 98.8482 59.4447 98.8482 61.446C98.8482 63.422 98.8735 64.4607 98.9242 64.562C98.9242 64.6127 99.5069 64.5873 100.672 64.486C101.838 64.3593 103.003 64.2073 104.168 64.03C104.802 63.954 105.156 64.2453 105.232 64.904C105.283 65.4107 105.207 65.7653 105.004 65.968C104.802 66.1453 104.447 66.1833 103.94 66.082C103.636 66.0313 102.952 66.082 101.888 66.234C100.824 66.3607 99.7855 66.538 98.7722 66.766C97.8349 66.9687 96.6062 67.222 95.0862 67.526C93.5409 67.8047 92.5402 68.0327 92.0842 68.21C91.5269 68.4127 91.0962 68.362 90.7922 68.058C90.5135 67.7287 90.5009 67.298 90.7542 66.766C90.8555 66.4873 91.0202 66.2973 91.2482 66.196C91.5015 66.0947 92.0842 65.9933 92.9962 65.892C93.7055 65.7907 94.5289 65.6133 95.4662 65.36C96.4289 65.1067 96.9735 64.904 97.1002 64.752C97.2015 64.676 97.1889 64.03 97.0622 62.814C96.9609 61.674 96.8975 60.6733 96.8722 59.812C96.8722 59.1027 96.8215 58.71 96.7202 58.634C96.6442 58.558 96.3022 58.6087 95.6942 58.786C95.1875 58.9633 94.8709 59.052 94.7442 59.052C94.6429 59.052 94.2249 59.128 93.4902 59.28C92.6289 59.4573 92.0462 59.432 91.7422 59.204C91.4635 58.976 91.3495 58.4313 91.4002 57.57C91.4002 57.0633 91.4129 56.2907 91.4382 55.252V53.846L90.9442 53.808C90.6149 53.7827 90.3869 53.7193 90.2602 53.618C90.1589 53.5167 90.1082 53.3393 90.1082 53.086C90.1082 52.63 90.3489 52.288 90.8302 52.06C91.3115 51.8067 92.1095 51.6293 93.2242 51.528C93.9842 51.4773 94.7189 51.3887 95.4282 51.262C96.0869 51.1607 96.7709 51.0847 97.4802 51.034C98.2149 50.9833 98.8102 50.92 99.2662 50.844C100.001 50.7173 100.406 50.654 100.482 50.654ZM102.534 69.54C103.269 69.3627 103.725 69.4133 103.902 69.692C104.105 69.9453 104.232 70.68 104.282 71.896C104.333 73.0107 104.396 74.2393 104.472 75.582C104.548 76.6967 104.536 77.444 104.434 77.824C104.358 78.204 104.156 78.394 103.826 78.394C103.396 78.394 103.092 78.0773 102.914 77.444C102.737 76.8107 102.598 75.4933 102.496 73.492C102.446 72.6813 102.382 72.1747 102.306 71.972C102.23 71.744 102.078 71.6047 101.85 71.554C101.622 71.5287 101.217 71.5413 100.634 71.592C100.077 71.6173 99.6209 71.668 99.2662 71.744C97.9742 72.0227 97.0242 72.2507 96.4162 72.428C95.3775 72.7573 94.2375 73.0107 92.9962 73.188C92.7682 73.2133 92.5402 73.1247 92.3122 72.922C92.0842 72.694 91.9702 72.4407 91.9702 72.162C91.9702 71.7567 92.0589 71.4527 92.2362 71.25C92.4389 71.0473 92.7049 70.984 93.0342 71.06C93.2115 71.1107 93.4775 71.0853 93.8322 70.984C94.2629 70.8827 94.8582 70.7687 95.6182 70.642C96.1502 70.5407 96.6822 70.4393 97.2142 70.338C97.6955 70.2367 98.6075 70.11 99.9502 69.958C101.192 69.806 102.053 69.6667 102.534 69.54ZM108.585 73.34C108.661 73.188 108.877 73.15 109.231 73.226C109.611 73.302 109.903 73.4413 110.105 73.644C110.435 73.948 110.523 74.4167 110.371 75.05C110.245 75.658 109.966 76.0887 109.535 76.342C109.282 76.494 108.915 76.532 108.433 76.456C107.952 76.38 107.585 76.228 107.331 76C107.053 75.772 107.053 75.2907 107.331 74.556C107.635 73.796 107.977 73.416 108.357 73.416C108.459 73.416 108.535 73.3907 108.585 73.34ZM113.781 73.34C113.857 73.188 114.072 73.15 114.427 73.226C114.807 73.302 115.098 73.4413 115.301 73.644C115.63 73.948 115.719 74.4167 115.567 75.05C115.44 75.658 115.161 76.0887 114.731 76.342C114.477 76.494 114.11 76.532 113.629 76.456C113.147 76.38 112.78 76.228 112.527 76C112.248 75.772 112.248 75.2907 112.527 74.556C112.831 73.796 113.173 73.416 113.553 73.416C113.654 73.416 113.73 73.3907 113.781 73.34Z" fill="#0C0C0C"/>
<mask id="path-9-inside-2_1313_16217" fill="white">
<path d="M49.528 105.36V106.607H53.73V107.692H48.1444V105.36H49.528ZM49.4084 101.654C49.4084 102.072 49.955 102.243 50.9287 102.243C51.9108 102.243 52.4489 102.072 52.4489 101.654C52.4489 101.244 51.9108 101.056 50.9287 101.056C49.955 101.056 49.4084 101.244 49.4084 101.654ZM51.6034 103.84H54.5499V104.925H47.2989V103.84H50.2198V103.293C48.8618 103.148 47.9822 102.542 47.9822 101.654C47.9822 100.62 49.1693 99.9797 50.9287 99.9797C52.688 99.9797 53.8752 100.62 53.8752 101.654C53.8752 102.559 52.9784 103.157 51.6034 103.302V103.84ZM57.3334 106.394V106.718H61.7745V107.769H55.9498V105.394H60.186V105.07H55.9413V104.019H61.5695V106.394H57.3334ZM61.467 102.525H62.415V103.601H55.1641V102.525H60.0835C60.1945 101.995 60.2287 101.568 60.2372 101.184H56.0352V100.099H61.6122V100.654C61.6122 101.158 61.6122 101.782 61.467 102.525ZM69.7507 99.7918V104.421H68.3671V99.7918H69.7507ZM63.4307 101.739H65.805V101.269H63.4222V100.176H67.2142V102.738H64.8399V103.234C66.1039 103.217 66.9323 103.174 67.812 103.003L67.9657 104.071C66.9067 104.276 65.8818 104.31 64.1481 104.31H63.4307V101.739ZM66.4882 105.787V106.658H67.5558V105.787H66.4882ZM68.9137 106.658H69.8959V107.726H64.1225V106.658H65.1303V105.787H64.2079V104.72H69.8276V105.787H68.9137V106.658ZM78.2001 99.7918H79.5068V107.803H78.2001V103.883H77.7731V107.47H76.492V105.258L75.8942 106.052C75.2366 105.693 74.7924 105.121 74.5106 104.412C74.2629 105.249 73.8274 105.924 73.1356 106.351L72.3157 105.309C73.537 104.574 73.8017 103.131 73.8017 101.637H72.6061V100.535H76.2102V101.637H75.1426C75.1426 102.943 75.4074 104.216 76.492 104.908V99.9028H77.7731V102.781H78.2001V99.7918ZM85.7493 105.668V102.499H84.4426V101.397H85.7493V99.8003H87.1329V105.668H85.7493ZM85.2113 103.533L84.4853 104.583C83.691 104.301 83.153 103.789 82.8199 103.131C82.4868 103.883 81.8975 104.481 81.0093 104.788L80.2748 103.712C81.6755 103.268 82.094 102.175 82.094 101.09V100.296H83.5032V101.09C83.5032 102.072 83.896 103.088 85.2113 103.533ZM83.1274 106.607H87.3037V107.692H81.7438V105.113H83.1274V106.607ZM92.2139 102.764V99.9028H93.4949V107.47H92.2139V105.215L91.5135 106.18C90.8644 105.856 90.4374 105.318 90.1556 104.651C89.8994 105.386 89.4638 106.001 88.7976 106.377L88.029 105.343C89.2076 104.66 89.4894 103.396 89.4894 102.209V102.166H88.3791V101.064H89.4894V100.048H90.7961V101.064H91.8979V102.166H90.7961V102.209C90.7961 103.37 91.078 104.523 92.2139 105.147V103.866H91.4794V102.764H92.2139ZM93.8366 99.7918H95.1433V107.803H93.8366V99.7918Z"/>
</mask>
<path d="M49.528 105.36V106.607H53.73V107.692H48.1444V105.36H49.528ZM49.4084 101.654C49.4084 102.072 49.955 102.243 50.9287 102.243C51.9108 102.243 52.4489 102.072 52.4489 101.654C52.4489 101.244 51.9108 101.056 50.9287 101.056C49.955 101.056 49.4084 101.244 49.4084 101.654ZM51.6034 103.84H54.5499V104.925H47.2989V103.84H50.2198V103.293C48.8618 103.148 47.9822 102.542 47.9822 101.654C47.9822 100.62 49.1693 99.9797 50.9287 99.9797C52.688 99.9797 53.8752 100.62 53.8752 101.654C53.8752 102.559 52.9784 103.157 51.6034 103.302V103.84ZM57.3334 106.394V106.718H61.7745V107.769H55.9498V105.394H60.186V105.07H55.9413V104.019H61.5695V106.394H57.3334ZM61.467 102.525H62.415V103.601H55.1641V102.525H60.0835C60.1945 101.995 60.2287 101.568 60.2372 101.184H56.0352V100.099H61.6122V100.654C61.6122 101.158 61.6122 101.782 61.467 102.525ZM69.7507 99.7918V104.421H68.3671V99.7918H69.7507ZM63.4307 101.739H65.805V101.269H63.4222V100.176H67.2142V102.738H64.8399V103.234C66.1039 103.217 66.9323 103.174 67.812 103.003L67.9657 104.071C66.9067 104.276 65.8818 104.31 64.1481 104.31H63.4307V101.739ZM66.4882 105.787V106.658H67.5558V105.787H66.4882ZM68.9137 106.658H69.8959V107.726H64.1225V106.658H65.1303V105.787H64.2079V104.72H69.8276V105.787H68.9137V106.658ZM78.2001 99.7918H79.5068V107.803H78.2001V103.883H77.7731V107.47H76.492V105.258L75.8942 106.052C75.2366 105.693 74.7924 105.121 74.5106 104.412C74.2629 105.249 73.8274 105.924 73.1356 106.351L72.3157 105.309C73.537 104.574 73.8017 103.131 73.8017 101.637H72.6061V100.535H76.2102V101.637H75.1426C75.1426 102.943 75.4074 104.216 76.492 104.908V99.9028H77.7731V102.781H78.2001V99.7918ZM85.7493 105.668V102.499H84.4426V101.397H85.7493V99.8003H87.1329V105.668H85.7493ZM85.2113 103.533L84.4853 104.583C83.691 104.301 83.153 103.789 82.8199 103.131C82.4868 103.883 81.8975 104.481 81.0093 104.788L80.2748 103.712C81.6755 103.268 82.094 102.175 82.094 101.09V100.296H83.5032V101.09C83.5032 102.072 83.896 103.088 85.2113 103.533ZM83.1274 106.607H87.3037V107.692H81.7438V105.113H83.1274V106.607ZM92.2139 102.764V99.9028H93.4949V107.47H92.2139V105.215L91.5135 106.18C90.8644 105.856 90.4374 105.318 90.1556 104.651C89.8994 105.386 89.4638 106.001 88.7976 106.377L88.029 105.343C89.2076 104.66 89.4894 103.396 89.4894 102.209V102.166H88.3791V101.064H89.4894V100.048H90.7961V101.064H91.8979V102.166H90.7961V102.209C90.7961 103.37 91.078 104.523 92.2139 105.147V103.866H91.4794V102.764H92.2139ZM93.8366 99.7918H95.1433V107.803H93.8366V99.7918Z" fill="url(#paint4_linear_1313_16217)"/>
<path d="M49.528 105.36H49.628V105.26H49.528V105.36ZM49.528 106.607H49.428V106.707H49.528V106.607ZM53.73 106.607H53.83V106.507H53.73V106.607ZM53.73 107.692V107.792H53.83V107.692H53.73ZM48.1444 107.692H48.0444V107.792H48.1444V107.692ZM48.1444 105.36V105.26H48.0444V105.36H48.1444ZM51.6034 103.84H51.5034V103.94H51.6034V103.84ZM54.5499 103.84H54.6499V103.74H54.5499V103.84ZM54.5499 104.925V105.025H54.6499V104.925H54.5499ZM47.2989 104.925H47.1989V105.025H47.2989V104.925ZM47.2989 103.84V103.74H47.1989V103.84H47.2989ZM50.2198 103.84V103.94H50.3198V103.84H50.2198ZM50.2198 103.293H50.3198V103.204L50.2304 103.194L50.2198 103.293ZM51.6034 103.302L51.5929 103.202L51.5034 103.212V103.302H51.6034ZM49.528 105.36H49.428V106.607H49.528H49.628V105.36H49.528ZM49.528 106.607V106.707H53.73V106.607V106.507H49.528V106.607ZM53.73 106.607H53.63V107.692H53.73H53.83V106.607H53.73ZM53.73 107.692V107.592H48.1444V107.692V107.792H53.73V107.692ZM48.1444 107.692H48.2444V105.36H48.1444H48.0444V107.692H48.1444ZM48.1444 105.36V105.46H49.528V105.36V105.26H48.1444V105.36ZM49.4084 101.654H49.3084C49.3084 101.782 49.3513 101.895 49.4343 101.989C49.5153 102.08 49.6304 102.148 49.7689 102.199C50.0444 102.3 50.439 102.343 50.9287 102.343V102.243V102.143C50.4447 102.143 50.0792 102.1 49.838 102.011C49.7181 101.967 49.6357 101.914 49.5838 101.856C49.5339 101.8 49.5084 101.734 49.5084 101.654H49.4084ZM50.9287 102.243V102.343C51.4225 102.343 51.8172 102.3 52.0917 102.199C52.2298 102.148 52.3442 102.08 52.4246 101.988C52.5068 101.895 52.5489 101.782 52.5489 101.654H52.4489H52.3489C52.3489 101.735 52.3237 101.8 52.2743 101.856C52.2232 101.914 52.1416 101.967 52.0224 102.011C51.7824 102.1 51.417 102.143 50.9287 102.143V102.243ZM52.4489 101.654H52.5489C52.5489 101.527 52.5065 101.415 52.4247 101.321C52.3447 101.23 52.2308 101.16 52.0927 101.108C51.8181 101.003 51.4233 100.956 50.9287 100.956V101.056V101.156C51.4162 101.156 51.7815 101.203 52.0214 101.294C52.1407 101.34 52.2226 101.394 52.2742 101.453C52.324 101.51 52.3489 101.575 52.3489 101.654H52.4489ZM50.9287 101.056V100.956C50.4382 100.956 50.0435 101.003 49.7679 101.107C49.6294 101.16 49.5148 101.23 49.4341 101.321C49.3516 101.414 49.3084 101.527 49.3084 101.654H49.4084H49.5084C49.5084 101.576 49.5336 101.511 49.584 101.453C49.6362 101.394 49.7191 101.34 49.839 101.294C50.0801 101.203 50.4455 101.156 50.9287 101.156V101.056ZM51.6034 103.84V103.94H54.5499V103.84V103.74H51.6034V103.84ZM54.5499 103.84H54.4499V104.925H54.5499H54.6499V103.84H54.5499ZM54.5499 104.925V104.825H47.2989V104.925V105.025H54.5499V104.925ZM47.2989 104.925H47.3989V103.84H47.2989H47.1989V104.925H47.2989ZM47.2989 103.84V103.94H50.2198V103.84V103.74H47.2989V103.84ZM50.2198 103.84H50.3198V103.293H50.2198H50.1198V103.84H50.2198ZM50.2198 103.293L50.2304 103.194C49.5622 103.123 49.0213 102.938 48.6502 102.671C48.2816 102.405 48.0822 102.06 48.0822 101.654H47.9822H47.8822C47.8822 102.136 48.1226 102.537 48.5333 102.833C48.9415 103.127 49.5194 103.319 50.2092 103.393L50.2198 103.293ZM47.9822 101.654H48.0822C48.0822 101.182 48.3503 100.793 48.8445 100.516C49.3413 100.238 50.0592 100.08 50.9287 100.08V99.9797V99.8797C50.0388 99.8797 49.2835 100.041 48.7468 100.342C48.2076 100.644 47.8822 101.091 47.8822 101.654H47.9822ZM50.9287 99.9797V100.08C51.7981 100.08 52.5161 100.238 53.0128 100.516C53.507 100.793 53.7752 101.182 53.7752 101.654H53.8752H53.9752C53.9752 101.091 53.6497 100.644 53.1105 100.342C52.5739 100.041 51.8186 99.8797 50.9287 99.8797V99.9797ZM53.8752 101.654H53.7752C53.7752 102.068 53.5718 102.416 53.1971 102.681C52.8196 102.949 52.2701 103.131 51.5929 103.202L51.6034 103.302L51.6139 103.401C52.3117 103.328 52.898 103.138 53.3127 102.844C53.7302 102.548 53.9752 102.144 53.9752 101.654H53.8752ZM51.6034 103.302H51.5034V103.84H51.6034H51.7034V103.302H51.6034ZM57.3334 106.394V106.294H57.2334V106.394H57.3334ZM57.3334 106.718H57.2334V106.818H57.3334V106.718ZM61.7745 106.718H61.8745V106.618H61.7745V106.718ZM61.7745 107.769V107.869H61.8745V107.769H61.7745ZM55.9498 107.769H55.8498V107.869H55.9498V107.769ZM55.9498 105.394V105.294H55.8498V105.394H55.9498ZM60.186 105.394V105.494H60.286V105.394H60.186ZM60.186 105.07H60.286V104.97H60.186V105.07ZM55.9413 105.07H55.8413V105.17H55.9413V105.07ZM55.9413 104.019V103.919H55.8413V104.019H55.9413ZM61.5695 104.019H61.6695V103.919H61.5695V104.019ZM61.5695 106.394V106.494H61.6695V106.394H61.5695ZM61.467 102.525L61.3689 102.506L61.3456 102.625H61.467V102.525ZM62.415 102.525H62.515V102.425H62.415V102.525ZM62.415 103.601V103.701H62.515V103.601H62.415ZM55.1641 103.601H55.0641V103.701H55.1641V103.601ZM55.1641 102.525V102.425H55.0641V102.525H55.1641ZM60.0835 102.525V102.625H60.1647L60.1813 102.545L60.0835 102.525ZM60.2372 101.184L60.3372 101.186L60.3394 101.084H60.2372V101.184ZM56.0352 101.184H55.9352V101.284H56.0352V101.184ZM56.0352 100.099V99.9992H55.9352V100.099H56.0352ZM61.6122 100.099H61.7122V99.9992H61.6122V100.099ZM57.3334 106.394H57.2334V106.718H57.3334H57.4334V106.394H57.3334ZM57.3334 106.718V106.818H61.7745V106.718V106.618H57.3334V106.718ZM61.7745 106.718H61.6745V107.769H61.7745H61.8745V106.718H61.7745ZM61.7745 107.769V107.669H55.9498V107.769V107.869H61.7745V107.769ZM55.9498 107.769H56.0498V105.394H55.9498H55.8498V107.769H55.9498ZM55.9498 105.394V105.494H60.186V105.394V105.294H55.9498V105.394ZM60.186 105.394H60.286V105.07H60.186H60.086V105.394H60.186ZM60.186 105.07V104.97H55.9413V105.07V105.17H60.186V105.07ZM55.9413 105.07H56.0413V104.019H55.9413H55.8413V105.07H55.9413ZM55.9413 104.019V104.119H61.5695V104.019V103.919H55.9413V104.019ZM61.5695 104.019H61.4695V106.394H61.5695H61.6695V104.019H61.5695ZM61.5695 106.394V106.294H57.3334V106.394V106.494H61.5695V106.394ZM61.467 102.525V102.625H62.415V102.525V102.425H61.467V102.525ZM62.415 102.525H62.315V103.601H62.415H62.515V102.525H62.415ZM62.415 103.601V103.501H55.1641V103.601V103.701H62.415V103.601ZM55.1641 103.601H55.2641V102.525H55.1641H55.0641V103.601H55.1641ZM55.1641 102.525V102.625H60.0835V102.525V102.425H55.1641V102.525ZM60.0835 102.525L60.1813 102.545C60.2939 102.009 60.3285 101.575 60.3372 101.186L60.2372 101.184L60.1372 101.182C60.1288 101.561 60.0951 101.982 59.9856 102.504L60.0835 102.525ZM60.2372 101.184V101.084H56.0352V101.184V101.284H60.2372V101.184ZM56.0352 101.184H56.1352V100.099H56.0352H55.9352V101.184H56.0352ZM56.0352 100.099V100.199H61.6122V100.099V99.9992H56.0352V100.099ZM61.6122 100.099H61.5122V100.654H61.6122H61.7122V100.099H61.6122ZM61.6122 100.654H61.5122C61.5122 101.158 61.5121 101.773 61.3689 102.506L61.467 102.525L61.5652 102.544C61.7124 101.791 61.7122 101.159 61.7122 100.654H61.6122ZM69.7507 99.7918H69.8507V99.6918H69.7507V99.7918ZM69.7507 104.421V104.521H69.8507V104.421H69.7507ZM68.3671 104.421H68.2671V104.521H68.3671V104.421ZM68.3671 99.7918V99.6918H68.2671V99.7918H68.3671ZM63.4307 101.739V101.639H63.3307V101.739H63.4307ZM65.805 101.739V101.839H65.905V101.739H65.805ZM65.805 101.269H65.905V101.169H65.805V101.269ZM63.4222 101.269H63.3222V101.369H63.4222V101.269ZM63.4222 100.176V100.076H63.3222V100.176H63.4222ZM67.2142 100.176H67.3142V100.076H67.2142V100.176ZM67.2142 102.738V102.838H67.3142V102.738H67.2142ZM64.8399 102.738V102.638H64.7399V102.738H64.8399ZM64.8399 103.234H64.7399V103.335L64.8412 103.334L64.8399 103.234ZM67.812 103.003L67.911 102.989L67.896 102.885L67.7929 102.905L67.812 103.003ZM67.9657 104.071L67.9847 104.169L68.0783 104.151L68.0647 104.056L67.9657 104.071ZM63.4307 104.31H63.3307V104.41H63.4307V104.31ZM66.4882 105.787V105.687H66.3882V105.787H66.4882ZM66.4882 106.658H66.3882V106.758H66.4882V106.658ZM67.5558 106.658V106.758H67.6558V106.658H67.5558ZM67.5558 105.787H67.6558V105.687H67.5558V105.787ZM68.9137 106.658H68.8137V106.758H68.9137V106.658ZM69.8959 106.658H69.9959V106.558H69.8959V106.658ZM69.8959 107.726V107.826H69.9959V107.726H69.8959ZM64.1225 107.726H64.0225V107.826H64.1225V107.726ZM64.1225 106.658V106.558H64.0225V106.658H64.1225ZM65.1303 106.658V106.758H65.2303V106.658H65.1303ZM65.1303 105.787H65.2303V105.687H65.1303V105.787ZM64.2079 105.787H64.1079V105.887H64.2079V105.787ZM64.2079 104.72V104.62H64.1079V104.72H64.2079ZM69.8276 104.72H69.9276V104.62H69.8276V104.72ZM69.8276 105.787V105.887H69.9276V105.787H69.8276ZM68.9137 105.787V105.687H68.8137V105.787H68.9137ZM69.7507 99.7918H69.6507V104.421H69.7507H69.8507V99.7918H69.7507ZM69.7507 104.421V104.321H68.3671V104.421V104.521H69.7507V104.421ZM68.3671 104.421H68.4671V99.7918H68.3671H68.2671V104.421H68.3671ZM68.3671 99.7918V99.8918H69.7507V99.7918V99.6918H68.3671V99.7918ZM63.4307 101.739V101.839H65.805V101.739V101.639H63.4307V101.739ZM65.805 101.739H65.905V101.269H65.805H65.705V101.739H65.805ZM65.805 101.269V101.169H63.4222V101.269V101.369H65.805V101.269ZM63.4222 101.269H63.5222V100.176H63.4222H63.3222V101.269H63.4222ZM63.4222 100.176V100.276H67.2142V100.176V100.076H63.4222V100.176ZM67.2142 100.176H67.1142V102.738H67.2142H67.3142V100.176H67.2142ZM67.2142 102.738V102.638H64.8399V102.738V102.838H67.2142V102.738ZM64.8399 102.738H64.7399V103.234H64.8399H64.9399V102.738H64.8399ZM64.8399 103.234L64.8412 103.334C66.1063 103.317 66.9422 103.274 67.8311 103.101L67.812 103.003L67.7929 102.905C66.9225 103.074 66.1014 103.117 64.8385 103.134L64.8399 103.234ZM67.812 103.003L67.713 103.017L67.8668 104.085L67.9657 104.071L68.0647 104.056L67.911 102.989L67.812 103.003ZM67.9657 104.071L67.9467 103.972C66.8981 104.175 65.8818 104.21 64.1481 104.21V104.31V104.41C65.8819 104.41 66.9153 104.376 67.9847 104.169L67.9657 104.071ZM64.1481 104.31V104.21H63.4307V104.31V104.41H64.1481V104.31ZM63.4307 104.31H63.5307V101.739H63.4307H63.3307V104.31H63.4307ZM66.4882 105.787H66.3882V106.658H66.4882H66.5882V105.787H66.4882ZM66.4882 106.658V106.758H67.5558V106.658V106.558H66.4882V106.658ZM67.5558 106.658H67.6558V105.787H67.5558H67.4558V106.658H67.5558ZM67.5558 105.787V105.687H66.4882V105.787V105.887H67.5558V105.787ZM68.9137 106.658V106.758H69.8959V106.658V106.558H68.9137V106.658ZM69.8959 106.658H69.7959V107.726H69.8959H69.9959V106.658H69.8959ZM69.8959 107.726V107.626H64.1225V107.726V107.826H69.8959V107.726ZM64.1225 107.726H64.2225V106.658H64.1225H64.0225V107.726H64.1225ZM64.1225 106.658V106.758H65.1303V106.658V106.558H64.1225V106.658ZM65.1303 106.658H65.2303V105.787H65.1303H65.0303V106.658H65.1303ZM65.1303 105.787V105.687H64.2079V105.787V105.887H65.1303V105.787ZM64.2079 105.787H64.3079V104.72H64.2079H64.1079V105.787H64.2079ZM64.2079 104.72V104.82H69.8276V104.72V104.62H64.2079V104.72ZM69.8276 104.72H69.7276V105.787H69.8276H69.9276V104.72H69.8276ZM69.8276 105.787V105.687H68.9137V105.787V105.887H69.8276V105.787ZM68.9137 105.787H68.8137V106.658H68.9137H69.0137V105.787H68.9137ZM78.2001 99.7918V99.6918H78.1001V99.7918H78.2001ZM79.5068 99.7918H79.6068V99.6918H79.5068V99.7918ZM79.5068 107.803V107.903H79.6068V107.803H79.5068ZM78.2001 107.803H78.1001V107.903H78.2001V107.803ZM78.2001 103.883H78.3001V103.783H78.2001V103.883ZM77.7731 103.883V103.783H77.6731V103.883H77.7731ZM77.7731 107.47V107.57H77.8731V107.47H77.7731ZM76.492 107.47H76.392V107.57H76.492V107.47ZM76.492 105.258H76.592V104.959L76.4121 105.198L76.492 105.258ZM75.8942 106.052L75.8463 106.14L75.9221 106.181L75.9741 106.112L75.8942 106.052ZM74.5106 104.412L74.6035 104.375L74.4967 104.107L74.4147 104.384L74.5106 104.412ZM73.1356 106.351L73.057 106.413L73.1122 106.483L73.1881 106.436L73.1356 106.351ZM72.3157 105.309L72.2641 105.223L72.167 105.282L72.2371 105.371L72.3157 105.309ZM73.8017 101.637H73.9017V101.537H73.8017V101.637ZM72.6061 101.637H72.5061V101.737H72.6061V101.637ZM72.6061 100.535V100.435H72.5061V100.535H72.6061ZM76.2102 100.535H76.3102V100.435H76.2102V100.535ZM76.2102 101.637V101.737H76.3102V101.637H76.2102ZM75.1426 101.637V101.537H75.0426V101.637H75.1426ZM76.492 104.908L76.4382 104.992L76.592 105.09V104.908H76.492ZM76.492 99.9028V99.8028H76.392V99.9028H76.492ZM77.7731 99.9028H77.8731V99.8028H77.7731V99.9028ZM77.7731 102.781H77.6731V102.881H77.7731V102.781ZM78.2001 102.781V102.881H78.3001V102.781H78.2001ZM78.2001 99.7918V99.8918H79.5068V99.7918V99.6918H78.2001V99.7918ZM79.5068 99.7918H79.4068V107.803H79.5068H79.6068V99.7918H79.5068ZM79.5068 107.803V107.703H78.2001V107.803V107.903H79.5068V107.803ZM78.2001 107.803H78.3001V103.883H78.2001H78.1001V107.803H78.2001ZM78.2001 103.883V103.783H77.7731V103.883V103.983H78.2001V103.883ZM77.7731 103.883H77.6731V107.47H77.7731H77.8731V103.883H77.7731ZM77.7731 107.47V107.37H76.492V107.47V107.57H77.7731V107.47ZM76.492 107.47H76.592V105.258H76.492H76.392V107.47H76.492ZM76.492 105.258L76.4121 105.198L75.8143 105.992L75.8942 106.052L75.9741 106.112L76.5719 105.318L76.492 105.258ZM75.8942 106.052L75.9421 105.964C75.309 105.619 74.8786 105.067 74.6035 104.375L74.5106 104.412L74.4177 104.449C74.7063 105.175 75.1641 105.768 75.8463 106.14L75.8942 106.052ZM74.5106 104.412L74.4147 104.384C74.172 105.204 73.7486 105.855 73.083 106.266L73.1356 106.351L73.1881 106.436C73.9062 105.993 74.3539 105.294 74.6065 104.441L74.5106 104.412ZM73.1356 106.351L73.2142 106.289L72.3943 105.247L72.3157 105.309L72.2371 105.371L73.057 106.413L73.1356 106.351ZM72.3157 105.309L72.3672 105.395C73.6388 104.63 73.9017 103.133 73.9017 101.637H73.8017H73.7017C73.7017 103.129 73.4352 104.519 72.2641 105.223L72.3157 105.309ZM73.8017 101.637V101.537H72.6061V101.637V101.737H73.8017V101.637ZM72.6061 101.637H72.7061V100.535H72.6061H72.5061V101.637H72.6061ZM72.6061 100.535V100.635H76.2102V100.535V100.435H72.6061V100.535ZM76.2102 100.535H76.1102V101.637H76.2102H76.3102V100.535H76.2102ZM76.2102 101.637V101.537H75.1426V101.637V101.737H76.2102V101.637ZM75.1426 101.637H75.0426C75.0426 102.95 75.3073 104.271 76.4382 104.992L76.492 104.908L76.5458 104.823C75.5074 104.161 75.2426 102.937 75.2426 101.637H75.1426ZM76.492 104.908H76.592V99.9028H76.492H76.392V104.908H76.492ZM76.492 99.9028V100.003H77.7731V99.9028V99.8028H76.492V99.9028ZM77.7731 99.9028H77.6731V102.781H77.7731H77.8731V99.9028H77.7731ZM77.7731 102.781V102.881H78.2001V102.781V102.681H77.7731V102.781ZM78.2001 102.781H78.3001V99.7918H78.2001H78.1001V102.781H78.2001ZM85.7493 105.668H85.6493V105.768H85.7493V105.668ZM85.7493 102.499H85.8493V102.399H85.7493V102.499ZM84.4426 102.499H84.3426V102.599H84.4426V102.499ZM84.4426 101.397V101.297H84.3426V101.397H84.4426ZM85.7493 101.397V101.497H85.8493V101.397H85.7493ZM85.7493 99.8003V99.7003H85.6493V99.8003H85.7493ZM87.1329 99.8003H87.2329V99.7003H87.1329V99.8003ZM87.1329 105.668V105.768H87.2329V105.668H87.1329ZM85.2113 103.533L85.2935 103.589L85.369 103.48L85.2433 103.438L85.2113 103.533ZM84.4853 104.583L84.4519 104.677L84.524 104.703L84.5676 104.64L84.4853 104.583ZM82.8199 103.131L82.9091 103.086L82.8139 102.898L82.7285 103.091L82.8199 103.131ZM81.0093 104.788L80.9267 104.844L80.9698 104.907L81.042 104.882L81.0093 104.788ZM80.2748 103.712L80.2446 103.617L80.1164 103.657L80.1922 103.768L80.2748 103.712ZM82.094 100.296V100.196H81.994V100.296H82.094ZM83.5032 100.296H83.6031V100.196H83.5032V100.296ZM83.1274 106.607H83.0274V106.707H83.1274V106.607ZM87.3037 106.607H87.4037V106.507H87.3037V106.607ZM87.3037 107.692V107.792H87.4037V107.692H87.3037ZM81.7438 107.692H81.6438V107.792H81.7438V107.692ZM81.7438 105.113V105.013H81.6438V105.113H81.7438ZM83.1274 105.113H83.2274V105.013H83.1274V105.113ZM85.7493 105.668H85.8493V102.499H85.7493H85.6493V105.668H85.7493ZM85.7493 102.499V102.399H84.4426V102.499V102.599H85.7493V102.499ZM84.4426 102.499H84.5426V101.397H84.4426H84.3426V102.499H84.4426ZM84.4426 101.397V101.497H85.7493V101.397V101.297H84.4426V101.397ZM85.7493 101.397H85.8493V99.8003H85.7493H85.6493V101.397H85.7493ZM85.7493 99.8003V99.9003H87.1329V99.8003V99.7003H85.7493V99.8003ZM87.1329 99.8003H87.0329V105.668H87.1329H87.2329V99.8003H87.1329ZM87.1329 105.668V105.568H85.7493V105.668V105.768H87.1329V105.668ZM85.2113 103.533L85.129 103.476L84.403 104.526L84.4853 104.583L84.5676 104.64L85.2935 103.589L85.2113 103.533ZM84.4853 104.583L84.5188 104.489C83.7496 104.216 83.231 103.722 82.9091 103.086L82.8199 103.131L82.7307 103.176C83.0749 103.856 83.6325 104.387 84.4519 104.677L84.4853 104.583ZM82.8199 103.131L82.7285 103.091C82.406 103.818 81.8371 104.396 80.9766 104.693L81.0093 104.788L81.042 104.882C81.9579 104.565 82.5677 103.947 82.9113 103.172L82.8199 103.131ZM81.0093 104.788L81.0919 104.732L80.3574 103.656L80.2748 103.712L80.1922 103.768L80.9267 104.844L81.0093 104.788ZM80.2748 103.712L80.305 103.807C81.0269 103.578 81.5022 103.179 81.7953 102.693C82.0871 102.208 82.194 101.644 82.194 101.09H82.094H81.994C81.994 101.62 81.8915 102.145 81.624 102.59C81.3577 103.032 80.9233 103.401 80.2446 103.617L80.2748 103.712ZM82.094 101.09H82.194V100.296H82.094H81.994V101.09H82.094ZM82.094 100.296V100.396H83.5032V100.296V100.196H82.094V100.296ZM83.5032 100.296H83.4032V101.09H83.5032H83.6031V100.296H83.5032ZM83.5032 101.09H83.4032C83.4032 101.594 83.5038 102.113 83.7785 102.565C84.0543 103.019 84.5011 103.398 85.1793 103.627L85.2113 103.533L85.2433 103.438C84.6062 103.223 84.1989 102.872 83.9495 102.461C83.6989 102.049 83.6031 101.568 83.6031 101.09H83.5032ZM83.1274 106.607V106.707H87.3037V106.607V106.507H83.1274V106.607ZM87.3037 106.607H87.2037V107.692H87.3037H87.4037V106.607H87.3037ZM87.3037 107.692V107.592H81.7438V107.692V107.792H87.3037V107.692ZM81.7438 107.692H81.8438V105.113H81.7438H81.6438V107.692H81.7438ZM81.7438 105.113V105.213H83.1274V105.113V105.013H81.7438V105.113ZM83.1274 105.113H83.0274V106.607H83.1274H83.2274V105.113H83.1274ZM92.2139 102.764V102.864H92.3139V102.764H92.2139ZM92.2139 99.9028V99.8028H92.1138V99.9028H92.2139ZM93.4949 99.9028H93.5949V99.8028H93.4949V99.9028ZM93.4949 107.47V107.57H93.5949V107.47H93.4949ZM92.2139 107.47H92.1138V107.57H92.2139V107.47ZM92.2139 105.215H92.3139V104.907L92.1329 105.156L92.2139 105.215ZM91.5135 106.18L91.4688 106.27L91.5447 106.307L91.5945 106.239L91.5135 106.18ZM90.1556 104.651L90.2477 104.612L90.1466 104.373L90.0612 104.618L90.1556 104.651ZM88.7976 106.377L88.7174 106.436L88.77 106.507L88.8468 106.464L88.7976 106.377ZM88.029 105.343L87.9788 105.257L87.8818 105.313L87.9487 105.403L88.029 105.343ZM89.4894 102.166H89.5894V102.066H89.4894V102.166ZM88.3791 102.166H88.2791V102.266H88.3791V102.166ZM88.3791 101.064V100.964H88.2791V101.064H88.3791ZM89.4894 101.064V101.164H89.5894V101.064H89.4894ZM89.4894 100.048V99.948H89.3894V100.048H89.4894ZM90.7961 100.048H90.8961V99.948H90.7961V100.048ZM90.7961 101.064H90.6961V101.164H90.7961V101.064ZM91.8979 101.064H91.9978V100.964H91.8979V101.064ZM91.8979 102.166V102.266H91.9978V102.166H91.8979ZM90.7961 102.166V102.066H90.6961V102.166H90.7961ZM92.2139 105.147L92.1657 105.234L92.3139 105.316V105.147H92.2139ZM92.2139 103.866H92.3139V103.766H92.2139V103.866ZM91.4794 103.866H91.3794V103.966H91.4794V103.866ZM91.4794 102.764V102.664H91.3794V102.764H91.4794ZM93.8366 99.7918V99.6918H93.7366V99.7918H93.8366ZM95.1433 99.7918H95.2433V99.6918H95.1433V99.7918ZM95.1433 107.803V107.903H95.2433V107.803H95.1433ZM93.8366 107.803H93.7366V107.903H93.8366V107.803ZM92.2139 102.764H92.3139V99.9028H92.2139H92.1138V102.764H92.2139ZM92.2139 99.9028V100.003H93.4949V99.9028V99.8028H92.2139V99.9028ZM93.4949 99.9028H93.3949V107.47H93.4949H93.5949V99.9028H93.4949ZM93.4949 107.47V107.37H92.2139V107.47V107.57H93.4949V107.47ZM92.2139 107.47H92.3139V105.215H92.2139H92.1138V107.47H92.2139ZM92.2139 105.215L92.1329 105.156L91.4326 106.121L91.5135 106.18L91.5945 106.239L92.2948 105.274L92.2139 105.215ZM91.5135 106.18L91.5582 106.091C90.9354 105.779 90.5227 105.262 90.2477 104.612L90.1556 104.651L90.0635 104.69C90.3522 105.373 90.7935 105.932 91.4688 106.27L91.5135 106.18ZM90.1556 104.651L90.0612 104.618C89.8108 105.336 89.3885 105.928 88.7485 106.289L88.7976 106.377L88.8468 106.464C89.5391 106.073 89.9879 105.436 90.25 104.684L90.1556 104.651ZM88.7976 106.377L88.8779 106.317L88.1092 105.283L88.029 105.343L87.9487 105.403L88.7174 106.436L88.7976 106.377ZM88.029 105.343L88.0791 105.43C89.3054 104.719 89.5894 103.406 89.5894 102.209H89.4894H89.3894C89.3894 103.385 89.1097 104.601 87.9788 105.257L88.029 105.343ZM89.4894 102.209H89.5894V102.166H89.4894H89.3894V102.209H89.4894ZM89.4894 102.166V102.066H88.3791V102.166V102.266H89.4894V102.166ZM88.3791 102.166H88.4791V101.064H88.3791H88.2791V102.166H88.3791ZM88.3791 101.064V101.164H89.4894V101.064V100.964H88.3791V101.064ZM89.4894 101.064H89.5894V100.048H89.4894H89.3894V101.064H89.4894ZM89.4894 100.048V100.148H90.7961V100.048V99.948H89.4894V100.048ZM90.7961 100.048H90.6961V101.064H90.7961H90.8961V100.048H90.7961ZM90.7961 101.064V101.164H91.8979V101.064V100.964H90.7961V101.064ZM91.8979 101.064H91.7979V102.166H91.8979H91.9978V101.064H91.8979ZM91.8979 102.166V102.066H90.7961V102.166V102.266H91.8979V102.166ZM90.7961 102.166H90.6961V102.209H90.7961H90.8961V102.166H90.7961ZM90.7961 102.209H90.6961C90.6961 103.382 90.9811 104.584 92.1657 105.234L92.2139 105.147L92.262 105.059C91.1748 104.462 90.8961 103.358 90.8961 102.209H90.7961ZM92.2139 105.147H92.3139V103.866H92.2139H92.1138V105.147H92.2139ZM92.2139 103.866V103.766H91.4794V103.866V103.966H92.2139V103.866ZM91.4794 103.866H91.5794V102.764H91.4794H91.3794V103.866H91.4794ZM91.4794 102.764V102.864H92.2139V102.764V102.664H91.4794V102.764ZM93.8366 99.7918V99.8918H95.1433V99.7918V99.6918H93.8366V99.7918ZM95.1433 99.7918H95.0433V107.803H95.1433H95.2433V99.7918H95.1433ZM95.1433 107.803V107.703H93.8366V107.803V107.903H95.1433V107.803ZM93.8366 107.803H93.9366V99.7918H93.8366H93.7366V107.803H93.8366Z" fill="white" fill-opacity="0.8" mask="url(#path-9-inside-2_1313_16217)"/>
<defs>
<linearGradient id="paint0_linear_1313_16217" x1="10.5617" y1="98.0671" x2="107.489" y2="159.437" gradientUnits="userSpaceOnUse">
<stop stop-color="white"/>
<stop offset="0.5" stop-color="white" stop-opacity="0"/>
<stop offset="1" stop-color="white"/>
</linearGradient>
<linearGradient id="paint1_linear_1313_16217" x1="58.2222" y1="87.7378" x2="78.3502" y2="161.515" gradientUnits="userSpaceOnUse">
<stop stop-color="white"/>
<stop offset="1" stop-color="#EDEDED"/>
</linearGradient>
<linearGradient id="paint2_linear_1313_16217" x1="18.831" y1="87.7852" x2="95.5053" y2="129.514" gradientUnits="userSpaceOnUse">
<stop stop-color="white"/>
<stop offset="0.5" stop-color="white" stop-opacity="0"/>
<stop offset="1" stop-color="white"/>
</linearGradient>
<linearGradient id="paint3_linear_1313_16217" x1="22.5818" y1="38.8161" x2="39.6543" y2="50.5075" gradientUnits="userSpaceOnUse">
<stop stop-color="#5F5F5F"/>
<stop offset="1" stop-color="#606060" stop-opacity="0.7"/>
</linearGradient>
<linearGradient id="paint4_linear_1313_16217" x1="50.6908" y1="101.816" x2="67.1596" y2="128.131" gradientUnits="userSpaceOnUse">
<stop stop-color="#5F5F5F"/>
<stop offset="1" stop-color="#606060" stop-opacity="0.7"/>
</linearGradient>
</defs>
</svg>
