<svg width="24" height="24" viewBox="0 0 24 24" fill="none" xmlns="http://www.w3.org/2000/svg">
<path d="M16.2469 7.76159C17.3699 8.88651 18.0006 10.4111 18.0006 12.0006C18.0006 13.5901 17.3699 15.1147 16.2469 16.2396M19.0749 4.93359C20.9477 6.80863 21.9997 9.35042 21.9997 12.0006C21.9997 14.6508 20.9477 17.1926 19.0749 19.0676M4.92487 19.0676C3.05199 17.1926 2 14.6508 2 12.0006C2 9.35042 3.05199 6.80863 4.92487 4.93359M7.75287 16.2396C6.62987 15.1147 5.99914 13.5901 5.99914 12.0006C5.99914 10.4111 6.62987 8.88651 7.75287 7.76159M13.9999 12.0006C13.9999 13.1052 13.1044 14.0006 11.9999 14.0006C10.8953 14.0006 9.99987 13.1052 9.99987 12.0006C9.99987 10.896 10.8953 10.0006 11.9999 10.0006C13.1044 10.0006 13.9999 10.896 13.9999 12.0006Z" stroke="#F6F6F6" stroke-width="1.5" stroke-linecap="round" stroke-linejoin="round"/>
</svg>
