<svg width="28" height="28" viewBox="0 0 28 28" fill="none" xmlns="http://www.w3.org/2000/svg">
<path d="M14.0004 4.6665C15.8111 4.66617 17.5827 5.19261 19.0994 6.18164C20.6161 7.17068 21.8124 8.5796 22.5424 10.2367C23.2725 11.8938 23.5047 13.7275 23.211 15.5143C22.9172 17.3011 22.11 18.9639 20.8878 20.2999M17.7334 13.9999L14.0004 10.2665M14.0004 10.2665L10.2675 13.9999M14.0004 10.2665V17.7332M5.13459 11.0832C4.83721 11.9873 4.67985 12.9315 4.66797 13.8832M5.44256 17.7332C5.96658 18.9389 6.73939 20.0203 7.71036 20.9066M7.12801 7.68585C7.38842 7.40233 7.66613 7.1352 7.95953 6.88598M10.8685 22.7919C13.1957 23.6211 15.7567 23.4935 17.9901 22.4372" stroke="white" stroke-width="1.5" stroke-linecap="round" stroke-linejoin="round"/>
</svg>
