<svg width="143" height="115" viewBox="0 0 143 115" fill="none" xmlns="http://www.w3.org/2000/svg">
<rect x="6" y="92.1304" width="70.1305" height="130.953" rx="15.5156" transform="rotate(-90 6 92.1304)" fill="#E0E0E0"/>
<rect x="6.5" y="91.6304" width="69.1305" height="129.953" rx="15.0156" transform="rotate(-90 6.5 91.6304)" stroke="url(#paint0_linear_1313_16219)" stroke-opacity="0.5"/>
<rect x="15.4922" y="82.73" width="51.3307" height="111.508" rx="8" transform="rotate(-90 15.4922 82.73)" fill="url(#paint1_linear_1313_16219)"/>
<rect x="15.9922" y="82.23" width="50.3307" height="110.508" rx="7.5" transform="rotate(-90 15.9922 82.23)" stroke="url(#paint2_linear_1313_16219)" stroke-opacity="0.5"/>
<mask id="path-6-inside-1_1313_16219" fill="white">
<path d="M25.9962 42.1723C25.9962 43.2313 25.1763 44.0598 23.7501 44.0598C22.4092 44.0598 21.3672 43.4192 21.2989 42.1296H23.0839C23.1181 42.5823 23.3828 42.736 23.6903 42.736C23.9892 42.736 24.2198 42.5823 24.2198 42.3004C24.2113 41.3353 21.2904 41.788 21.316 39.6956C21.316 38.517 22.2982 37.885 23.5707 37.885C24.9543 37.885 25.8596 38.5597 25.9194 39.7553H24.1002C24.0831 39.3796 23.8525 39.2087 23.5451 39.2087C23.2974 39.2002 23.101 39.3454 23.101 39.6358C23.101 40.5325 25.9962 40.2422 25.9962 42.1723ZM26.7744 44V37.68H28.4484V39.892C28.7302 39.482 29.2341 39.166 29.9259 39.166C31.0191 39.166 31.7109 39.9518 31.7109 41.2072V44H30.0369V41.4293C30.0369 40.8742 29.7295 40.5496 29.2512 40.5496C28.7558 40.5496 28.4484 40.8742 28.4484 41.4293V44H26.7744ZM32.6294 44V39.2087H34.3033V44H32.6294ZM33.4749 38.7646C32.877 38.7646 32.4927 38.3889 32.4927 37.9106C32.4927 37.4238 32.877 37.0394 33.4749 37.0394C34.0642 37.0394 34.4485 37.4238 34.4485 37.9106C34.4485 38.3889 34.0642 38.7646 33.4749 38.7646ZM35.4103 44V40.6009H34.8894V39.2087H35.4103V39.166C35.4103 37.8423 36.2729 37.159 37.8273 37.27V38.6963C37.3234 38.6451 37.1184 38.7817 37.0928 39.2087H37.8444V40.6009H37.0928V44H35.4103ZM38.7074 42.1809V40.6009H38.1181V39.2087H38.7074V38.0472H40.3899V39.2087H41.261V40.6009H40.3899V42.2065C40.3899 42.4627 40.5009 42.5737 40.7827 42.5737H41.2695V44H40.5436C39.4846 44 38.7074 43.5559 38.7074 42.1809Z"/>
</mask>
<path d="M25.9962 42.1723C25.9962 43.2313 25.1763 44.0598 23.7501 44.0598C22.4092 44.0598 21.3672 43.4192 21.2989 42.1296H23.0839C23.1181 42.5823 23.3828 42.736 23.6903 42.736C23.9892 42.736 24.2198 42.5823 24.2198 42.3004C24.2113 41.3353 21.2904 41.788 21.316 39.6956C21.316 38.517 22.2982 37.885 23.5707 37.885C24.9543 37.885 25.8596 38.5597 25.9194 39.7553H24.1002C24.0831 39.3796 23.8525 39.2087 23.5451 39.2087C23.2974 39.2002 23.101 39.3454 23.101 39.6358C23.101 40.5325 25.9962 40.2422 25.9962 42.1723ZM26.7744 44V37.68H28.4484V39.892C28.7302 39.482 29.2341 39.166 29.9259 39.166C31.0191 39.166 31.7109 39.9518 31.7109 41.2072V44H30.0369V41.4293C30.0369 40.8742 29.7295 40.5496 29.2512 40.5496C28.7558 40.5496 28.4484 40.8742 28.4484 41.4293V44H26.7744ZM32.6294 44V39.2087H34.3033V44H32.6294ZM33.4749 38.7646C32.877 38.7646 32.4927 38.3889 32.4927 37.9106C32.4927 37.4238 32.877 37.0394 33.4749 37.0394C34.0642 37.0394 34.4485 37.4238 34.4485 37.9106C34.4485 38.3889 34.0642 38.7646 33.4749 38.7646ZM35.4103 44V40.6009H34.8894V39.2087H35.4103V39.166C35.4103 37.8423 36.2729 37.159 37.8273 37.27V38.6963C37.3234 38.6451 37.1184 38.7817 37.0928 39.2087H37.8444V40.6009H37.0928V44H35.4103ZM38.7074 42.1809V40.6009H38.1181V39.2087H38.7074V38.0472H40.3899V39.2087H41.261V40.6009H40.3899V42.2065C40.3899 42.4627 40.5009 42.5737 40.7827 42.5737H41.2695V44H40.5436C39.4846 44 38.7074 43.5559 38.7074 42.1809Z" fill="url(#paint3_linear_1313_16219)"/>
<path d="M21.2989 42.1296V42.0296H21.1935L21.1991 42.1349L21.2989 42.1296ZM23.0839 42.1296L23.1836 42.1221L23.1766 42.0296H23.0839V42.1296ZM24.2198 42.3004H24.3198L24.3198 42.2995L24.2198 42.3004ZM21.316 39.6956L21.416 39.6968V39.6956H21.316ZM25.9194 39.7553V39.8553H26.0245L26.0192 39.7503L25.9194 39.7553ZM24.1002 39.7553L24.0003 39.7599L24.0047 39.8553H24.1002V39.7553ZM23.5451 39.2087L23.5416 39.3087H23.5451V39.2087ZM25.9962 42.1723H25.8962C25.8962 42.6748 25.7024 43.1188 25.3417 43.4383C24.9803 43.7585 24.444 43.9598 23.7501 43.9598V44.0598V44.1598C24.4824 44.1598 25.0692 43.9469 25.4743 43.588C25.8801 43.2286 26.0962 42.7289 26.0962 42.1723H25.9962ZM23.7501 44.0598V43.9598C23.0942 43.9598 22.5213 43.803 22.1066 43.4978C21.6948 43.1947 21.4314 42.7402 21.3988 42.1243L21.2989 42.1296L21.1991 42.1349C21.2348 42.8087 21.5265 43.3192 21.988 43.6588C22.4466 43.9963 23.065 44.1598 23.7501 44.1598V44.0598ZM21.2989 42.1296V42.2296H23.0839V42.1296V42.0296H21.2989V42.1296ZM23.0839 42.1296L22.9842 42.1371C23.0027 42.3822 23.0852 42.5613 23.2189 42.6779C23.3514 42.7936 23.5208 42.836 23.6903 42.836V42.736V42.636C23.5523 42.636 23.4355 42.6015 23.3503 42.5272C23.2662 42.4538 23.1993 42.3297 23.1836 42.1221L23.0839 42.1296ZM23.6903 42.736V42.836C23.8556 42.836 24.0114 42.7936 24.1284 42.7029C24.2482 42.6101 24.3198 42.4718 24.3198 42.3004H24.2198H24.1198C24.1198 42.4109 24.0761 42.4904 24.0059 42.5449C23.9328 42.6015 23.8239 42.636 23.6903 42.636V42.736ZM24.2198 42.3004L24.3198 42.2995C24.3171 41.9942 24.0793 41.8175 23.8006 41.6896C23.6579 41.6242 23.4935 41.5664 23.3223 41.509C23.1495 41.4511 22.9699 41.3935 22.7897 41.327C22.429 41.1937 22.0827 41.0299 21.828 40.7784C21.5772 40.5309 21.4099 40.1931 21.416 39.6968L21.316 39.6956L21.216 39.6943C21.2093 40.2443 21.3975 40.6345 21.6875 40.9208C21.9735 41.2031 22.3531 41.3788 22.7204 41.5146C22.9043 41.5825 23.0893 41.6418 23.2587 41.6987C23.4298 41.756 23.5852 41.8109 23.7172 41.8714C23.9877 41.9955 24.1182 42.1241 24.1198 42.3013L24.2198 42.3004ZM21.316 39.6956H21.416C21.416 39.1376 21.6469 38.7145 22.0264 38.4281C22.409 38.1394 22.9496 37.985 23.5707 37.985V37.885V37.785C22.9193 37.785 22.3325 37.9466 21.9059 38.2685C21.4762 38.5927 21.216 39.075 21.216 39.6956H21.316ZM23.5707 37.885V37.985C24.2473 37.985 24.7956 38.15 25.1798 38.4505C25.5617 38.7492 25.7909 39.1888 25.8195 39.7603L25.9194 39.7553L26.0192 39.7503C25.988 39.1262 25.7347 38.6306 25.3031 38.293C24.8738 37.9573 24.2777 37.785 23.5707 37.785V37.885ZM25.9194 39.7553V39.6553H24.1002V39.7553V39.8553H25.9194V39.7553ZM24.1002 39.7553L24.2001 39.7508C24.1907 39.5427 24.121 39.3787 23.999 39.2673C23.8778 39.1566 23.7168 39.1087 23.5451 39.1087V39.2087V39.3087C23.6808 39.3087 23.7889 39.3463 23.8641 39.415C23.9385 39.4829 23.9927 39.5922 24.0003 39.7599L24.1002 39.7553ZM23.5451 39.2087L23.5485 39.1088C23.4048 39.1039 23.2668 39.1433 23.1635 39.2356C23.0589 39.329 23.001 39.4669 23.001 39.6358H23.101H23.201C23.201 39.5143 23.2413 39.4343 23.2968 39.3847C23.3536 39.3339 23.4377 39.3051 23.5416 39.3087L23.5451 39.2087ZM23.101 39.6358H23.001C23.001 39.9256 23.2381 40.0999 23.5104 40.2293C23.6511 40.2962 23.8136 40.3569 23.9834 40.4177C24.1546 40.4789 24.3331 40.5402 24.5124 40.6098C24.8716 40.7491 25.2182 40.916 25.4749 41.1603C25.7278 41.4008 25.8962 41.7189 25.8962 42.1723H25.9962H26.0962C26.0962 41.6606 25.9027 41.2912 25.6128 41.0154C25.3266 40.7431 24.9495 40.5648 24.5848 40.4233C24.4022 40.3525 24.2188 40.2895 24.0507 40.2294C23.8812 40.1687 23.7271 40.1109 23.5963 40.0487C23.3257 39.9201 23.201 39.7943 23.201 39.6358H23.101ZM26.7744 44H26.6744V44.1H26.7744V44ZM26.7744 37.68V37.58H26.6744V37.68H26.7744ZM28.4484 37.68H28.5484V37.58H28.4484V37.68ZM28.4484 39.892H28.3484V40.214L28.5308 39.9486L28.4484 39.892ZM31.7109 44V44.1H31.8109V44H31.7109ZM30.0369 44H29.9369V44.1H30.0369V44ZM28.4484 44V44.1H28.5484V44H28.4484ZM26.7744 44H26.8744V37.68H26.7744H26.6744V44H26.7744ZM26.7744 37.68V37.78H28.4484V37.68V37.58H26.7744V37.68ZM28.4484 37.68H28.3484V39.892H28.4484H28.5484V37.68H28.4484ZM28.4484 39.892L28.5308 39.9486C28.7939 39.5658 29.267 39.266 29.9259 39.266V39.166V39.066C29.2012 39.066 28.6665 39.3982 28.366 39.8353L28.4484 39.892ZM29.9259 39.166V39.266C30.447 39.266 30.8646 39.4524 31.1531 39.7817C31.4429 40.1125 31.6109 40.5972 31.6109 41.2072H31.7109H31.8109C31.8109 40.5618 31.6329 40.0259 31.3035 39.6499C30.9729 39.2725 30.4979 39.066 29.9259 39.066V39.166ZM31.7109 41.2072H31.6109V44H31.7109H31.8109V41.2072H31.7109ZM31.7109 44V43.9H30.0369V44V44.1H31.7109V44ZM30.0369 44H30.1369V41.4293H30.0369H29.9369V44H30.0369ZM30.0369 41.4293H30.1369C30.1369 41.1338 30.0549 40.8875 29.8974 40.7141C29.739 40.5395 29.5139 40.4496 29.2512 40.4496V40.5496V40.6496C29.4667 40.6496 29.6345 40.722 29.7494 40.8485C29.8652 40.9761 29.9369 41.1697 29.9369 41.4293H30.0369ZM29.2512 40.5496V40.4496C28.9809 40.4496 28.7515 40.5388 28.5905 40.7135C28.4304 40.8872 28.3484 41.1338 28.3484 41.4293H28.4484H28.5484C28.5484 41.1697 28.6201 40.9764 28.7375 40.8491C28.8541 40.7227 29.0261 40.6496 29.2512 40.6496V40.5496ZM28.4484 41.4293H28.3484V44H28.4484H28.5484V41.4293H28.4484ZM28.4484 44V43.9H26.7744V44V44.1H28.4484V44ZM32.6294 44H32.5294V44.1H32.6294V44ZM32.6294 39.2087V39.1087H32.5294V39.2087H32.6294ZM34.3033 39.2087H34.4033V39.1087H34.3033V39.2087ZM34.3033 44V44.1H34.4033V44H34.3033ZM32.6294 44H32.7294V39.2087H32.6294H32.5294V44H32.6294ZM32.6294 39.2087V39.3087H34.3033V39.2087V39.1087H32.6294V39.2087ZM34.3033 39.2087H34.2033V44H34.3033H34.4033V39.2087H34.3033ZM34.3033 44V43.9H32.6294V44V44.1H34.3033V44ZM33.4749 38.7646V38.6646C32.9221 38.6646 32.5927 38.324 32.5927 37.9106H32.4927H32.3927C32.3927 38.4537 32.832 38.8646 33.4749 38.8646V38.7646ZM32.4927 37.9106H32.5927C32.5927 37.4868 32.9241 37.1394 33.4749 37.1394V37.0394V36.9394C32.83 36.9394 32.3927 37.3607 32.3927 37.9106H32.4927ZM33.4749 37.0394V37.1394C34.0165 37.1394 34.3485 37.4862 34.3485 37.9106H34.4485H34.5485C34.5485 37.3613 34.1119 36.9394 33.4749 36.9394V37.0394ZM34.4485 37.9106H34.3485C34.3485 38.3245 34.0185 38.6646 33.4749 38.6646V38.7646V38.8646C34.1099 38.8646 34.5485 38.4532 34.5485 37.9106H34.4485ZM35.4103 44H35.3103V44.1H35.4103V44ZM35.4103 40.6009H35.5103V40.5009H35.4103V40.6009ZM34.8894 40.6009H34.7894V40.7009H34.8894V40.6009ZM34.8894 39.2087V39.1087H34.7894V39.2087H34.8894ZM35.4103 39.2087V39.3087H35.5103V39.2087H35.4103ZM37.8273 37.27H37.9273V37.1769L37.8344 37.1703L37.8273 37.27ZM37.8273 38.6963L37.8172 38.7958L37.9273 38.807V38.6963H37.8273ZM37.0928 39.2087L36.993 39.2028L36.9866 39.3087H37.0928V39.2087ZM37.8444 39.2087H37.9444V39.1087H37.8444V39.2087ZM37.8444 40.6009V40.7009H37.9444V40.6009H37.8444ZM37.0928 40.6009V40.5009H36.9928V40.6009H37.0928ZM37.0928 44V44.1H37.1928V44H37.0928ZM35.4103 44H35.5103V40.6009H35.4103H35.3103V44H35.4103ZM35.4103 40.6009V40.5009H34.8894V40.6009V40.7009H35.4103V40.6009ZM34.8894 40.6009H34.9894V39.2087H34.8894H34.7894V40.6009H34.8894ZM34.8894 39.2087V39.3087H35.4103V39.2087V39.1087H34.8894V39.2087ZM35.4103 39.2087H35.5103V39.166H35.4103H35.3103V39.2087H35.4103ZM35.4103 39.166H35.5103C35.5103 38.5267 35.7176 38.0575 36.0977 37.7586C36.4809 37.4572 37.0568 37.3153 37.8202 37.3698L37.8273 37.27L37.8344 37.1703C37.0434 37.1138 36.4108 37.2579 35.9741 37.6014C35.5343 37.9472 35.3103 38.4816 35.3103 39.166H35.4103ZM37.8273 37.27H37.7273V38.6963H37.8273H37.9273V37.27H37.8273ZM37.8273 38.6963L37.8374 38.5968C37.5809 38.5707 37.3723 38.5883 37.2239 38.6909C37.0692 38.7977 37.0066 38.9767 36.993 39.2028L37.0928 39.2087L37.1926 39.2147C37.2047 39.0137 37.2573 38.9109 37.3376 38.8555C37.424 38.7957 37.5698 38.7706 37.8172 38.7958L37.8273 38.6963ZM37.0928 39.2087V39.3087H37.8444V39.2087V39.1087H37.0928V39.2087ZM37.8444 39.2087H37.7444V40.6009H37.8444H37.9444V39.2087H37.8444ZM37.8444 40.6009V40.5009H37.0928V40.6009V40.7009H37.8444V40.6009ZM37.0928 40.6009H36.9928V44H37.0928H37.1928V40.6009H37.0928ZM37.0928 44V43.9H35.4103V44V44.1H37.0928V44ZM38.7074 40.6009H38.8074V40.5009H38.7074V40.6009ZM38.1181 40.6009H38.0181V40.7009H38.1181V40.6009ZM38.1181 39.2087V39.1087H38.0181V39.2087H38.1181ZM38.7074 39.2087V39.3087H38.8074V39.2087H38.7074ZM38.7074 38.0472V37.9472H38.6074V38.0472H38.7074ZM40.3899 38.0472H40.4899V37.9472H40.3899V38.0472ZM40.3899 39.2087H40.2899V39.3087H40.3899V39.2087ZM41.261 39.2087H41.361V39.1087H41.261V39.2087ZM41.261 40.6009V40.7009H41.361V40.6009H41.261ZM40.3899 40.6009V40.5009H40.2899V40.6009H40.3899ZM41.2695 42.5737H41.3695V42.4737H41.2695V42.5737ZM41.2695 44V44.1H41.3695V44H41.2695ZM38.7074 42.1809H38.8074V40.6009H38.7074H38.6074V42.1809H38.7074ZM38.7074 40.6009V40.5009H38.1181V40.6009V40.7009H38.7074V40.6009ZM38.1181 40.6009H38.2181V39.2087H38.1181H38.0181V40.6009H38.1181ZM38.1181 39.2087V39.3087H38.7074V39.2087V39.1087H38.1181V39.2087ZM38.7074 39.2087H38.8074V38.0472H38.7074H38.6074V39.2087H38.7074ZM38.7074 38.0472V38.1472H40.3899V38.0472V37.9472H38.7074V38.0472ZM40.3899 38.0472H40.2899V39.2087H40.3899H40.4899V38.0472H40.3899ZM40.3899 39.2087V39.3087H41.261V39.2087V39.1087H40.3899V39.2087ZM41.261 39.2087H41.161V40.6009H41.261H41.361V39.2087H41.261ZM41.261 40.6009V40.5009H40.3899V40.6009V40.7009H41.261V40.6009ZM40.3899 40.6009H40.2899V42.2065H40.3899H40.4899V40.6009H40.3899ZM40.3899 42.2065H40.2899C40.2899 42.3464 40.3199 42.4715 40.4118 42.5587C40.5024 42.6447 40.6322 42.6737 40.7827 42.6737V42.5737V42.4737C40.6514 42.4737 40.5848 42.4472 40.5495 42.4137C40.5154 42.3813 40.4899 42.3228 40.4899 42.2065H40.3899ZM40.7827 42.5737V42.6737H41.2695V42.5737V42.4737H40.7827V42.5737ZM41.2695 42.5737H41.1695V44H41.2695H41.3695V42.5737H41.2695ZM41.2695 44V43.9H40.5436V44V44.1H41.2695V44ZM40.5436 44V43.9C40.0256 43.9 39.5947 43.791 39.2938 43.5305C38.9958 43.2724 38.8074 42.8496 38.8074 42.1809H38.7074H38.6074C38.6074 42.8872 38.8076 43.374 39.1629 43.6817C39.5154 43.9869 40.0026 44.1 40.5436 44.1V44Z" fill="white" fill-opacity="0.8" mask="url(#path-6-inside-1_1313_16219)"/>
<path d="M81.2848 50.689C81.8274 50.615 82.6168 50.615 83.6528 50.689C84.6888 50.763 85.3054 50.8617 85.5028 50.985C85.7494 51.133 85.9098 51.2933 85.9838 51.466C86.0578 51.614 86.0948 51.873 86.0948 52.243C86.0948 52.835 85.8851 53.2913 85.4658 53.612C85.0464 53.908 84.4668 54.019 83.7268 53.945C82.6908 53.871 81.5068 53.8463 80.1748 53.871C78.8674 53.871 77.8068 53.9327 76.9928 54.056C76.6474 54.1053 76.4748 54.4877 76.4748 55.203C76.4748 55.2277 76.4748 55.277 76.4748 55.351C76.4501 55.647 76.5734 55.8197 76.8448 55.869C77.1408 55.9183 78.1644 55.943 79.9158 55.943C80.3598 55.943 80.7051 55.943 80.9518 55.943C83.7391 55.943 85.2068 55.98 85.3548 56.054C85.7248 56.2513 85.9098 56.609 85.9098 57.127C85.9344 57.645 85.7618 58.0643 85.3918 58.385C85.1204 58.6317 84.8244 58.7797 84.5038 58.829C84.1831 58.8537 83.1841 58.8907 81.5068 58.94C78.3741 58.9893 76.7708 59.088 76.6968 59.236C76.6474 59.31 76.6598 59.6183 76.7338 60.161C76.8324 60.679 76.9311 60.9997 77.0298 61.123C77.0298 61.123 77.0298 61.1353 77.0298 61.16C77.1778 61.382 77.4244 61.5177 77.7698 61.567C78.1151 61.5917 79.2498 61.604 81.1738 61.604C81.2724 61.604 81.3464 61.604 81.3958 61.604C83.5418 61.604 84.8244 61.6287 85.2438 61.678C85.6631 61.7273 86.0208 61.8877 86.3168 62.159C86.5881 62.4303 86.6621 62.788 86.5388 63.232C86.4401 63.6513 86.1934 63.9597 85.7988 64.157C85.0588 64.527 82.9251 64.7243 79.3978 64.749C78.5344 64.749 77.8561 64.7367 77.3628 64.712C76.8694 64.6873 76.3884 64.638 75.9198 64.564C75.4758 64.4653 75.1428 64.3543 74.9208 64.231C74.7234 64.083 74.5261 63.8733 74.3288 63.602C74.1314 63.306 73.9834 62.9977 73.8848 62.677C73.7861 62.3317 73.6751 61.863 73.5518 61.271C73.4778 60.827 73.4284 59.384 73.4038 56.942C73.4038 54.5 73.4531 53.1927 73.5518 53.02C73.5518 53.02 73.5764 52.946 73.6258 52.798C73.6998 52.65 73.7614 52.539 73.8108 52.465C74.0821 51.8483 74.5138 51.4413 75.1058 51.244C75.6978 51.0467 76.9558 50.911 78.8798 50.837C80.3598 50.763 81.1614 50.7137 81.2848 50.689ZM79.9898 65.156C80.1131 65.1313 80.2734 65.1313 80.4708 65.156C80.6681 65.1807 80.8161 65.193 80.9148 65.193C81.4328 65.193 81.7658 65.9207 81.9138 67.376C82.0371 68.7327 82.1604 69.448 82.2838 69.522C82.3578 69.5713 83.4184 69.596 85.4658 69.596C87.1924 69.596 88.2531 69.633 88.6478 69.707C89.0671 69.781 89.3754 69.9907 89.5728 70.336C89.9181 70.8787 89.8934 71.3843 89.4988 71.853C89.1041 72.297 88.4874 72.5313 87.6488 72.556C87.5008 72.556 87.2911 72.556 87.0198 72.556C80.3598 72.7533 76.4378 72.8273 75.2538 72.778C74.0698 72.7287 73.2681 72.4943 72.8488 72.075C72.8488 72.0503 72.8488 72.038 72.8488 72.038C72.1334 71.3227 72.1458 70.7307 72.8858 70.262C73.0584 70.1387 73.3174 70.0647 73.6628 70.04C74.0081 69.9907 75.0194 69.9167 76.6968 69.818C76.7954 69.818 76.9311 69.8057 77.1038 69.781C78.0411 69.7317 78.5838 69.6453 78.7318 69.522C78.9044 69.374 78.9784 68.9177 78.9538 68.153C78.9538 68.005 78.9538 67.894 78.9538 67.82C78.9538 66.8087 79.0154 66.1427 79.1388 65.822C79.2868 65.4767 79.5704 65.2547 79.9898 65.156ZM98.4698 47.581C98.5685 47.507 99.6045 47.4947 101.578 47.544C103.576 47.5687 104.673 47.6303 104.871 47.729C105.438 48.025 105.709 48.506 105.685 49.172C105.685 49.838 105.389 50.2943 104.797 50.541C104.525 50.6397 103.304 50.7137 101.134 50.763C98.2972 50.8123 96.7062 50.911 96.3608 51.059C96.2621 51.1083 96.2005 51.5647 96.1758 52.428C96.1512 53.2913 96.1882 53.8833 96.2868 54.204C96.3608 54.5 96.5582 54.6727 96.8788 54.722C97.1995 54.7713 98.2478 54.7713 100.024 54.722C102.416 54.648 103.884 54.6233 104.427 54.648C104.969 54.648 105.327 54.6973 105.5 54.796C106.092 55.1167 106.314 55.6223 106.166 56.313C106.042 56.979 105.623 57.4107 104.908 57.608C104.513 57.7313 102.725 57.8053 99.5428 57.83C96.3855 57.83 94.6835 57.7683 94.4368 57.645C93.8695 57.3737 93.4995 56.942 93.3268 56.35C93.1788 55.758 93.0801 54.5123 93.0308 52.613C93.0308 51.8237 93.0308 51.207 93.0308 50.763C93.0555 50.319 93.1171 49.8997 93.2158 49.505C93.3145 49.1103 93.4255 48.8267 93.5488 48.654C93.6968 48.4813 93.9311 48.321 94.2518 48.173C94.5971 48.025 94.9548 47.9263 95.3248 47.877C95.6948 47.8277 96.2128 47.7783 96.8788 47.729C97.9148 47.6797 98.4451 47.6303 98.4698 47.581ZM99.0248 58.311C99.2222 58.1877 99.5058 58.126 99.8758 58.126C100.27 58.126 100.529 58.2247 100.653 58.422C100.776 58.6193 100.924 59.1867 101.097 60.124C101.121 60.198 101.146 60.2967 101.171 60.42C101.22 60.8147 101.319 61.049 101.467 61.123C101.615 61.1723 102.096 61.2093 102.91 61.234C103.181 61.234 103.403 61.234 103.576 61.234C104.982 61.2833 105.981 61.3573 106.573 61.456C107.165 61.53 107.559 61.6657 107.757 61.863C107.979 62.0603 108.09 62.3933 108.09 62.862C108.09 63.232 108.04 63.491 107.942 63.639C107.868 63.787 107.67 63.9597 107.35 64.157C107.029 64.379 106.499 64.5147 105.759 64.564C105.043 64.6133 102.996 64.6873 99.6168 64.786C96.8542 64.86 95.0411 64.8847 94.1778 64.86C93.3391 64.8107 92.7718 64.6997 92.4758 64.527C91.9331 64.1323 91.6618 63.6637 91.6618 63.121C91.6618 62.5537 91.9455 62.1837 92.5128 62.011C92.7348 61.937 93.4131 61.8507 94.5478 61.752C95.7071 61.6533 96.5581 61.604 97.1008 61.604C97.5695 61.604 97.8532 61.567 97.9518 61.493C98.0505 61.3943 98.1122 61.0983 98.1368 60.605C98.2602 59.3717 98.5562 58.607 99.0248 58.311ZM98.6918 66.895C100.838 66.7963 102.466 66.7717 103.576 66.821C104.71 66.8703 105.45 66.9813 105.796 67.154C106.166 67.302 106.474 67.598 106.721 68.042C106.967 68.5107 107.091 69.6207 107.091 71.372C107.115 73.1233 107.004 74.3073 106.758 74.924C106.511 75.4913 106.141 75.8613 105.648 76.034C105.154 76.2313 104.71 76.1573 104.316 75.812C104.044 75.5407 103.884 75.2693 103.835 74.998C103.785 74.7267 103.748 73.9373 103.724 72.63C103.724 72.482 103.724 72.2723 103.724 72.001C103.699 70.9157 103.625 70.2867 103.502 70.114C103.403 69.9413 103.021 69.8797 102.355 69.929C102.157 69.929 102.009 69.929 101.911 69.929C97.1008 70.1263 94.5231 70.151 94.1778 70.003C93.6105 69.781 93.3391 69.3617 93.3638 68.745C93.3638 68.0543 93.7091 67.598 94.3998 67.376C95.0905 67.1293 96.5211 66.969 98.6918 66.895ZM111.425 67.265C112.066 66.9197 112.806 67.0677 113.645 67.709C114.089 68.0297 114.336 68.5477 114.385 69.263C114.434 69.9537 114.299 70.6073 113.978 71.224C113.682 71.8407 113.275 72.223 112.757 72.371C112.239 72.4943 111.672 72.3463 111.055 71.927C110.463 71.5077 110.118 71.0267 110.019 70.484C109.896 69.7933 109.957 69.1643 110.204 68.597C110.451 68.0297 110.858 67.5857 111.425 67.265ZM117.712 67.265C118.353 66.9197 119.093 67.0677 119.932 67.709C120.376 68.0297 120.623 68.5477 120.672 69.263C120.721 69.9537 120.586 70.6073 120.265 71.224C119.969 71.8407 119.562 72.223 119.044 72.371C118.526 72.4943 117.959 72.3463 117.342 71.927C116.75 71.5077 116.405 71.0267 116.306 70.484C116.183 69.7933 116.244 69.1643 116.491 68.597C116.738 68.0297 117.145 67.5857 117.712 67.265Z" fill="#0C0C0C"/>
<mask id="path-9-inside-2_1313_16219" fill="white">
<path d="M53.528 105.36V106.607H57.73V107.692H52.1444V105.36H53.528ZM53.4084 101.654C53.4084 102.072 53.955 102.243 54.9287 102.243C55.9108 102.243 56.4489 102.072 56.4489 101.654C56.4489 101.244 55.9108 101.056 54.9287 101.056C53.955 101.056 53.4084 101.244 53.4084 101.654ZM55.6034 103.84H58.5499V104.925H51.2989V103.84H54.2198V103.293C52.8618 103.148 51.9822 102.542 51.9822 101.654C51.9822 100.62 53.1693 99.9797 54.9287 99.9797C56.688 99.9797 57.8752 100.62 57.8752 101.654C57.8752 102.559 56.9784 103.157 55.6034 103.302V103.84ZM61.3334 106.394V106.718H65.7745V107.769H59.9498V105.394H64.186V105.07H59.9413V104.019H65.5695V106.394H61.3334ZM65.467 102.525H66.415V103.601H59.1641V102.525H64.0835C64.1945 101.995 64.2287 101.568 64.2372 101.184H60.0352V100.099H65.6122V100.654C65.6122 101.158 65.6122 101.782 65.467 102.525ZM73.7507 99.7918V104.421H72.3671V99.7918H73.7507ZM67.4307 101.739H69.805V101.269H67.4222V100.176H71.2142V102.738H68.8399V103.234C70.1039 103.217 70.9323 103.174 71.812 103.003L71.9657 104.071C70.9067 104.276 69.8818 104.31 68.1481 104.31H67.4307V101.739ZM70.4882 105.787V106.658H71.5558V105.787H70.4882ZM72.9137 106.658H73.8959V107.726H68.1225V106.658H69.1303V105.787H68.2079V104.72H73.8276V105.787H72.9137V106.658ZM83.7545 103.968H80.808V104.908H82.8065V107.82H81.4229V105.984H77.3833V104.908H79.4244V103.968H76.5036V102.883H78.1348C78.3654 102.175 78.4337 101.637 78.4508 101.158H77.11V100.074H79.8002V100.637C79.8002 101.252 79.8002 101.97 79.5269 102.883H81.3205C81.5083 102.183 81.5596 101.645 81.5681 101.158H80.2187V100.074H82.9175V100.68C82.9175 101.295 82.9175 101.995 82.6955 102.883H83.7545V103.968ZM88.3572 102.764V99.9028H89.6383V107.47H88.3572V105.215L87.6569 106.18C87.0078 105.856 86.5808 105.318 86.2989 104.651C86.0427 105.386 85.6071 106.001 84.941 106.377L84.1723 105.343C85.3509 104.66 85.6328 103.396 85.6328 102.209V102.166H84.5225V101.064H85.6328V100.048H86.9395V101.064H88.0412V102.166H86.9395V102.209C86.9395 103.37 87.2213 104.523 88.3572 105.147V103.866H87.6227V102.764H88.3572ZM89.9799 99.7918H91.2866V107.803H89.9799V99.7918Z"/>
</mask>
<path d="M53.528 105.36V106.607H57.73V107.692H52.1444V105.36H53.528ZM53.4084 101.654C53.4084 102.072 53.955 102.243 54.9287 102.243C55.9108 102.243 56.4489 102.072 56.4489 101.654C56.4489 101.244 55.9108 101.056 54.9287 101.056C53.955 101.056 53.4084 101.244 53.4084 101.654ZM55.6034 103.84H58.5499V104.925H51.2989V103.84H54.2198V103.293C52.8618 103.148 51.9822 102.542 51.9822 101.654C51.9822 100.62 53.1693 99.9797 54.9287 99.9797C56.688 99.9797 57.8752 100.62 57.8752 101.654C57.8752 102.559 56.9784 103.157 55.6034 103.302V103.84ZM61.3334 106.394V106.718H65.7745V107.769H59.9498V105.394H64.186V105.07H59.9413V104.019H65.5695V106.394H61.3334ZM65.467 102.525H66.415V103.601H59.1641V102.525H64.0835C64.1945 101.995 64.2287 101.568 64.2372 101.184H60.0352V100.099H65.6122V100.654C65.6122 101.158 65.6122 101.782 65.467 102.525ZM73.7507 99.7918V104.421H72.3671V99.7918H73.7507ZM67.4307 101.739H69.805V101.269H67.4222V100.176H71.2142V102.738H68.8399V103.234C70.1039 103.217 70.9323 103.174 71.812 103.003L71.9657 104.071C70.9067 104.276 69.8818 104.31 68.1481 104.31H67.4307V101.739ZM70.4882 105.787V106.658H71.5558V105.787H70.4882ZM72.9137 106.658H73.8959V107.726H68.1225V106.658H69.1303V105.787H68.2079V104.72H73.8276V105.787H72.9137V106.658ZM83.7545 103.968H80.808V104.908H82.8065V107.82H81.4229V105.984H77.3833V104.908H79.4244V103.968H76.5036V102.883H78.1348C78.3654 102.175 78.4337 101.637 78.4508 101.158H77.11V100.074H79.8002V100.637C79.8002 101.252 79.8002 101.97 79.5269 102.883H81.3205C81.5083 102.183 81.5596 101.645 81.5681 101.158H80.2187V100.074H82.9175V100.68C82.9175 101.295 82.9175 101.995 82.6955 102.883H83.7545V103.968ZM88.3572 102.764V99.9028H89.6383V107.47H88.3572V105.215L87.6569 106.18C87.0078 105.856 86.5808 105.318 86.2989 104.651C86.0427 105.386 85.6071 106.001 84.941 106.377L84.1723 105.343C85.3509 104.66 85.6328 103.396 85.6328 102.209V102.166H84.5225V101.064H85.6328V100.048H86.9395V101.064H88.0412V102.166H86.9395V102.209C86.9395 103.37 87.2213 104.523 88.3572 105.147V103.866H87.6227V102.764H88.3572ZM89.9799 99.7918H91.2866V107.803H89.9799V99.7918Z" fill="url(#paint4_linear_1313_16219)"/>
<path d="M53.528 105.36H53.628V105.26H53.528V105.36ZM53.528 106.607H53.428V106.707H53.528V106.607ZM57.73 106.607H57.83V106.507H57.73V106.607ZM57.73 107.692V107.792H57.83V107.692H57.73ZM52.1444 107.692H52.0444V107.792H52.1444V107.692ZM52.1444 105.36V105.26H52.0444V105.36H52.1444ZM55.6034 103.84H55.5034V103.94H55.6034V103.84ZM58.5499 103.84H58.6499V103.74H58.5499V103.84ZM58.5499 104.925V105.025H58.6499V104.925H58.5499ZM51.2989 104.925H51.1989V105.025H51.2989V104.925ZM51.2989 103.84V103.74H51.1989V103.84H51.2989ZM54.2198 103.84V103.94H54.3198V103.84H54.2198ZM54.2198 103.293H54.3198V103.204L54.2304 103.194L54.2198 103.293ZM55.6034 103.302L55.5929 103.202L55.5034 103.212V103.302H55.6034ZM53.528 105.36H53.428V106.607H53.528H53.628V105.36H53.528ZM53.528 106.607V106.707H57.73V106.607V106.507H53.528V106.607ZM57.73 106.607H57.63V107.692H57.73H57.83V106.607H57.73ZM57.73 107.692V107.592H52.1444V107.692V107.792H57.73V107.692ZM52.1444 107.692H52.2444V105.36H52.1444H52.0444V107.692H52.1444ZM52.1444 105.36V105.46H53.528V105.36V105.26H52.1444V105.36ZM53.4084 101.654H53.3084C53.3084 101.782 53.3513 101.895 53.4343 101.989C53.5153 102.08 53.6304 102.148 53.7689 102.199C54.0444 102.3 54.439 102.343 54.9287 102.343V102.243V102.143C54.4447 102.143 54.0792 102.1 53.838 102.011C53.7181 101.967 53.6357 101.914 53.5838 101.856C53.5339 101.8 53.5084 101.734 53.5084 101.654H53.4084ZM54.9287 102.243V102.343C55.4225 102.343 55.8172 102.3 56.0917 102.199C56.2298 102.148 56.3442 102.08 56.4246 101.988C56.5068 101.895 56.5489 101.782 56.5489 101.654H56.4489H56.3489C56.3489 101.735 56.3237 101.8 56.2743 101.856C56.2232 101.914 56.1416 101.967 56.0224 102.011C55.7824 102.1 55.417 102.143 54.9287 102.143V102.243ZM56.4489 101.654H56.5489C56.5489 101.527 56.5065 101.415 56.4247 101.321C56.3447 101.23 56.2308 101.16 56.0927 101.108C55.8181 101.003 55.4233 100.956 54.9287 100.956V101.056V101.156C55.4162 101.156 55.7815 101.203 56.0214 101.294C56.1407 101.34 56.2226 101.394 56.2742 101.453C56.324 101.51 56.3489 101.575 56.3489 101.654H56.4489ZM54.9287 101.056V100.956C54.4382 100.956 54.0435 101.003 53.7679 101.107C53.6294 101.16 53.5148 101.23 53.4341 101.321C53.3516 101.414 53.3084 101.527 53.3084 101.654H53.4084H53.5084C53.5084 101.576 53.5336 101.511 53.584 101.453C53.6362 101.394 53.7191 101.34 53.839 101.294C54.0801 101.203 54.4455 101.156 54.9287 101.156V101.056ZM55.6034 103.84V103.94H58.5499V103.84V103.74H55.6034V103.84ZM58.5499 103.84H58.4499V104.925H58.5499H58.6499V103.84H58.5499ZM58.5499 104.925V104.825H51.2989V104.925V105.025H58.5499V104.925ZM51.2989 104.925H51.3989V103.84H51.2989H51.1989V104.925H51.2989ZM51.2989 103.84V103.94H54.2198V103.84V103.74H51.2989V103.84ZM54.2198 103.84H54.3198V103.293H54.2198H54.1198V103.84H54.2198ZM54.2198 103.293L54.2304 103.194C53.5622 103.123 53.0213 102.938 52.6502 102.671C52.2816 102.405 52.0822 102.06 52.0822 101.654H51.9822H51.8822C51.8822 102.136 52.1226 102.537 52.5333 102.833C52.9415 103.127 53.5194 103.319 54.2092 103.393L54.2198 103.293ZM51.9822 101.654H52.0822C52.0822 101.182 52.3503 100.793 52.8445 100.516C53.3413 100.238 54.0592 100.08 54.9287 100.08V99.9797V99.8797C54.0388 99.8797 53.2835 100.041 52.7468 100.342C52.2076 100.644 51.8822 101.091 51.8822 101.654H51.9822ZM54.9287 99.9797V100.08C55.7981 100.08 56.5161 100.238 57.0128 100.516C57.507 100.793 57.7752 101.182 57.7752 101.654H57.8752H57.9752C57.9752 101.091 57.6497 100.644 57.1105 100.342C56.5739 100.041 55.8186 99.8797 54.9287 99.8797V99.9797ZM57.8752 101.654H57.7752C57.7752 102.068 57.5718 102.416 57.1971 102.681C56.8196 102.949 56.2701 103.131 55.5929 103.202L55.6034 103.302L55.6139 103.401C56.3117 103.328 56.898 103.138 57.3127 102.844C57.7302 102.548 57.9752 102.144 57.9752 101.654H57.8752ZM55.6034 103.302H55.5034V103.84H55.6034H55.7034V103.302H55.6034ZM61.3334 106.394V106.294H61.2334V106.394H61.3334ZM61.3334 106.718H61.2334V106.818H61.3334V106.718ZM65.7745 106.718H65.8745V106.618H65.7745V106.718ZM65.7745 107.769V107.869H65.8745V107.769H65.7745ZM59.9498 107.769H59.8498V107.869H59.9498V107.769ZM59.9498 105.394V105.294H59.8498V105.394H59.9498ZM64.186 105.394V105.494H64.286V105.394H64.186ZM64.186 105.07H64.286V104.97H64.186V105.07ZM59.9413 105.07H59.8413V105.17H59.9413V105.07ZM59.9413 104.019V103.919H59.8413V104.019H59.9413ZM65.5695 104.019H65.6695V103.919H65.5695V104.019ZM65.5695 106.394V106.494H65.6695V106.394H65.5695ZM65.467 102.525L65.3689 102.506L65.3456 102.625H65.467V102.525ZM66.415 102.525H66.515V102.425H66.415V102.525ZM66.415 103.601V103.701H66.515V103.601H66.415ZM59.1641 103.601H59.0641V103.701H59.1641V103.601ZM59.1641 102.525V102.425H59.0641V102.525H59.1641ZM64.0835 102.525V102.625H64.1647L64.1813 102.545L64.0835 102.525ZM64.2372 101.184L64.3372 101.186L64.3394 101.084H64.2372V101.184ZM60.0352 101.184H59.9352V101.284H60.0352V101.184ZM60.0352 100.099V99.9992H59.9352V100.099H60.0352ZM65.6122 100.099H65.7122V99.9992H65.6122V100.099ZM61.3334 106.394H61.2334V106.718H61.3334H61.4334V106.394H61.3334ZM61.3334 106.718V106.818H65.7745V106.718V106.618H61.3334V106.718ZM65.7745 106.718H65.6745V107.769H65.7745H65.8745V106.718H65.7745ZM65.7745 107.769V107.669H59.9498V107.769V107.869H65.7745V107.769ZM59.9498 107.769H60.0498V105.394H59.9498H59.8498V107.769H59.9498ZM59.9498 105.394V105.494H64.186V105.394V105.294H59.9498V105.394ZM64.186 105.394H64.286V105.07H64.186H64.086V105.394H64.186ZM64.186 105.07V104.97H59.9413V105.07V105.17H64.186V105.07ZM59.9413 105.07H60.0413V104.019H59.9413H59.8413V105.07H59.9413ZM59.9413 104.019V104.119H65.5695V104.019V103.919H59.9413V104.019ZM65.5695 104.019H65.4695V106.394H65.5695H65.6695V104.019H65.5695ZM65.5695 106.394V106.294H61.3334V106.394V106.494H65.5695V106.394ZM65.467 102.525V102.625H66.415V102.525V102.425H65.467V102.525ZM66.415 102.525H66.315V103.601H66.415H66.515V102.525H66.415ZM66.415 103.601V103.501H59.1641V103.601V103.701H66.415V103.601ZM59.1641 103.601H59.2641V102.525H59.1641H59.0641V103.601H59.1641ZM59.1641 102.525V102.625H64.0835V102.525V102.425H59.1641V102.525ZM64.0835 102.525L64.1813 102.545C64.2939 102.009 64.3285 101.575 64.3372 101.186L64.2372 101.184L64.1372 101.182C64.1288 101.561 64.0951 101.982 63.9856 102.504L64.0835 102.525ZM64.2372 101.184V101.084H60.0352V101.184V101.284H64.2372V101.184ZM60.0352 101.184H60.1352V100.099H60.0352H59.9352V101.184H60.0352ZM60.0352 100.099V100.199H65.6122V100.099V99.9992H60.0352V100.099ZM65.6122 100.099H65.5122V100.654H65.6122H65.7122V100.099H65.6122ZM65.6122 100.654H65.5122C65.5122 101.158 65.5121 101.773 65.3689 102.506L65.467 102.525L65.5652 102.544C65.7124 101.791 65.7122 101.159 65.7122 100.654H65.6122ZM73.7507 99.7918H73.8507V99.6918H73.7507V99.7918ZM73.7507 104.421V104.521H73.8507V104.421H73.7507ZM72.3671 104.421H72.2671V104.521H72.3671V104.421ZM72.3671 99.7918V99.6918H72.2671V99.7918H72.3671ZM67.4307 101.739V101.639H67.3307V101.739H67.4307ZM69.805 101.739V101.839H69.905V101.739H69.805ZM69.805 101.269H69.905V101.169H69.805V101.269ZM67.4222 101.269H67.3222V101.369H67.4222V101.269ZM67.4222 100.176V100.076H67.3222V100.176H67.4222ZM71.2142 100.176H71.3142V100.076H71.2142V100.176ZM71.2142 102.738V102.838H71.3142V102.738H71.2142ZM68.8399 102.738V102.638H68.7399V102.738H68.8399ZM68.8399 103.234H68.7399V103.335L68.8412 103.334L68.8399 103.234ZM71.812 103.003L71.911 102.989L71.896 102.885L71.7929 102.905L71.812 103.003ZM71.9657 104.071L71.9847 104.169L72.0783 104.151L72.0647 104.056L71.9657 104.071ZM67.4307 104.31H67.3307V104.41H67.4307V104.31ZM70.4882 105.787V105.687H70.3882V105.787H70.4882ZM70.4882 106.658H70.3882V106.758H70.4882V106.658ZM71.5558 106.658V106.758H71.6558V106.658H71.5558ZM71.5558 105.787H71.6558V105.687H71.5558V105.787ZM72.9137 106.658H72.8137V106.758H72.9137V106.658ZM73.8959 106.658H73.9959V106.558H73.8959V106.658ZM73.8959 107.726V107.826H73.9959V107.726H73.8959ZM68.1225 107.726H68.0225V107.826H68.1225V107.726ZM68.1225 106.658V106.558H68.0225V106.658H68.1225ZM69.1303 106.658V106.758H69.2303V106.658H69.1303ZM69.1303 105.787H69.2303V105.687H69.1303V105.787ZM68.2079 105.787H68.1079V105.887H68.2079V105.787ZM68.2079 104.72V104.62H68.1079V104.72H68.2079ZM73.8276 104.72H73.9276V104.62H73.8276V104.72ZM73.8276 105.787V105.887H73.9276V105.787H73.8276ZM72.9137 105.787V105.687H72.8137V105.787H72.9137ZM73.7507 99.7918H73.6507V104.421H73.7507H73.8507V99.7918H73.7507ZM73.7507 104.421V104.321H72.3671V104.421V104.521H73.7507V104.421ZM72.3671 104.421H72.4671V99.7918H72.3671H72.2671V104.421H72.3671ZM72.3671 99.7918V99.8918H73.7507V99.7918V99.6918H72.3671V99.7918ZM67.4307 101.739V101.839H69.805V101.739V101.639H67.4307V101.739ZM69.805 101.739H69.905V101.269H69.805H69.705V101.739H69.805ZM69.805 101.269V101.169H67.4222V101.269V101.369H69.805V101.269ZM67.4222 101.269H67.5222V100.176H67.4222H67.3222V101.269H67.4222ZM67.4222 100.176V100.276H71.2142V100.176V100.076H67.4222V100.176ZM71.2142 100.176H71.1142V102.738H71.2142H71.3142V100.176H71.2142ZM71.2142 102.738V102.638H68.8399V102.738V102.838H71.2142V102.738ZM68.8399 102.738H68.7399V103.234H68.8399H68.9399V102.738H68.8399ZM68.8399 103.234L68.8412 103.334C70.1063 103.317 70.9422 103.274 71.8311 103.101L71.812 103.003L71.7929 102.905C70.9225 103.074 70.1014 103.117 68.8385 103.134L68.8399 103.234ZM71.812 103.003L71.713 103.017L71.8668 104.085L71.9657 104.071L72.0647 104.056L71.911 102.989L71.812 103.003ZM71.9657 104.071L71.9467 103.972C70.8981 104.175 69.8818 104.21 68.1481 104.21V104.31V104.41C69.8819 104.41 70.9153 104.376 71.9847 104.169L71.9657 104.071ZM68.1481 104.31V104.21H67.4307V104.31V104.41H68.1481V104.31ZM67.4307 104.31H67.5307V101.739H67.4307H67.3307V104.31H67.4307ZM70.4882 105.787H70.3882V106.658H70.4882H70.5882V105.787H70.4882ZM70.4882 106.658V106.758H71.5558V106.658V106.558H70.4882V106.658ZM71.5558 106.658H71.6558V105.787H71.5558H71.4558V106.658H71.5558ZM71.5558 105.787V105.687H70.4882V105.787V105.887H71.5558V105.787ZM72.9137 106.658V106.758H73.8959V106.658V106.558H72.9137V106.658ZM73.8959 106.658H73.7959V107.726H73.8959H73.9959V106.658H73.8959ZM73.8959 107.726V107.626H68.1225V107.726V107.826H73.8959V107.726ZM68.1225 107.726H68.2225V106.658H68.1225H68.0225V107.726H68.1225ZM68.1225 106.658V106.758H69.1303V106.658V106.558H68.1225V106.658ZM69.1303 106.658H69.2303V105.787H69.1303H69.0303V106.658H69.1303ZM69.1303 105.787V105.687H68.2079V105.787V105.887H69.1303V105.787ZM68.2079 105.787H68.3079V104.72H68.2079H68.1079V105.787H68.2079ZM68.2079 104.72V104.82H73.8276V104.72V104.62H68.2079V104.72ZM73.8276 104.72H73.7276V105.787H73.8276H73.9276V104.72H73.8276ZM73.8276 105.787V105.687H72.9137V105.787V105.887H73.8276V105.787ZM72.9137 105.787H72.8137V106.658H72.9137H73.0137V105.787H72.9137ZM83.7545 103.968V104.068H83.8545V103.968H83.7545ZM80.808 103.968V103.868H80.708V103.968H80.808ZM80.808 104.908H80.708V105.008H80.808V104.908ZM82.8065 104.908H82.9065V104.808H82.8065V104.908ZM82.8065 107.82V107.92H82.9065V107.82H82.8065ZM81.4229 107.82H81.3229V107.92H81.4229V107.82ZM81.4229 105.984H81.5229V105.884H81.4229V105.984ZM77.3833 105.984H77.2833V106.084H77.3833V105.984ZM77.3833 104.908V104.808H77.2833V104.908H77.3833ZM79.4244 104.908V105.008H79.5244V104.908H79.4244ZM79.4244 103.968H79.5244V103.868H79.4244V103.968ZM76.5036 103.968H76.4036V104.068H76.5036V103.968ZM76.5036 102.883V102.783H76.4036V102.883H76.5036ZM78.1348 102.883V102.983H78.2075L78.2299 102.914L78.1348 102.883ZM78.4508 101.158L78.5508 101.162L78.5545 101.058H78.4508V101.158ZM77.11 101.158H77.01V101.258H77.11V101.158ZM77.11 100.074V99.9736H77.01V100.074H77.11ZM79.8002 100.074H79.9002V99.9736H79.8002V100.074ZM79.5269 102.883L79.4311 102.855L79.3927 102.983H79.5269V102.883ZM81.3205 102.883V102.983H81.3972L81.417 102.909L81.3205 102.883ZM81.5681 101.158L81.6681 101.16L81.6699 101.058H81.5681V101.158ZM80.2187 101.158H80.1187V101.258H80.2187V101.158ZM80.2187 100.074V99.9736H80.1187V100.074H80.2187ZM82.9175 100.074H83.0175V99.9736H82.9175V100.074ZM82.6955 102.883L82.5985 102.859L82.5674 102.983H82.6955V102.883ZM83.7545 102.883H83.8545V102.783H83.7545V102.883ZM83.7545 103.968V103.868H80.808V103.968V104.068H83.7545V103.968ZM80.808 103.968H80.708V104.908H80.808H80.908V103.968H80.808ZM80.808 104.908V105.008H82.8065V104.908V104.808H80.808V104.908ZM82.8065 104.908H82.7065V107.82H82.8065H82.9065V104.908H82.8065ZM82.8065 107.82V107.72H81.4229V107.82V107.92H82.8065V107.82ZM81.4229 107.82H81.5229V105.984H81.4229H81.3229V107.82H81.4229ZM81.4229 105.984V105.884H77.3833V105.984V106.084H81.4229V105.984ZM77.3833 105.984H77.4833V104.908H77.3833H77.2833V105.984H77.3833ZM77.3833 104.908V105.008H79.4244V104.908V104.808H77.3833V104.908ZM79.4244 104.908H79.5244V103.968H79.4244H79.3244V104.908H79.4244ZM79.4244 103.968V103.868H76.5036V103.968V104.068H79.4244V103.968ZM76.5036 103.968H76.6036V102.883H76.5036H76.4036V103.968H76.5036ZM76.5036 102.883V102.983H78.1348V102.883V102.783H76.5036V102.883ZM78.1348 102.883L78.2299 102.914C78.4637 102.196 78.5334 101.648 78.5508 101.162L78.4508 101.158L78.3509 101.155C78.3341 101.625 78.2672 102.153 78.0397 102.853L78.1348 102.883ZM78.4508 101.158V101.058H77.11V101.158V101.258H78.4508V101.158ZM77.11 101.158H77.21V100.074H77.11H77.01V101.158H77.11ZM77.11 100.074V100.174H79.8002V100.074V99.9736H77.11V100.074ZM79.8002 100.074H79.7002V100.637H79.8002H79.9002V100.074H79.8002ZM79.8002 100.637H79.7002C79.7002 101.251 79.7 101.956 79.4311 102.855L79.5269 102.883L79.6227 102.912C79.9005 101.983 79.9002 101.253 79.9002 100.637H79.8002ZM79.5269 102.883V102.983H81.3205V102.883V102.783H79.5269V102.883ZM81.3205 102.883L81.417 102.909C81.6073 102.2 81.6595 101.654 81.6681 101.16L81.5681 101.158L81.4681 101.157C81.4597 101.636 81.4094 102.166 81.2239 102.858L81.3205 102.883ZM81.5681 101.158V101.058H80.2187V101.158V101.258H81.5681V101.158ZM80.2187 101.158H80.3187V100.074H80.2187H80.1187V101.158H80.2187ZM80.2187 100.074V100.174H82.9175V100.074V99.9736H80.2187V100.074ZM82.9175 100.074H82.8175V100.68H82.9175H83.0175V100.074H82.9175ZM82.9175 100.68H82.8175C82.8175 101.294 82.8173 101.984 82.5985 102.859L82.6955 102.883L82.7925 102.908C83.0178 102.007 83.0175 101.296 83.0175 100.68H82.9175ZM82.6955 102.883V102.983H83.7545V102.883V102.783H82.6955V102.883ZM83.7545 102.883H83.6545V103.968H83.7545H83.8545V102.883H83.7545ZM88.3572 102.764V102.864H88.4572V102.764H88.3572ZM88.3572 99.9028V99.8028H88.2572V99.9028H88.3572ZM89.6383 99.9028H89.7383V99.8028H89.6383V99.9028ZM89.6383 107.47V107.57H89.7383V107.47H89.6383ZM88.3572 107.47H88.2572V107.57H88.3572V107.47ZM88.3572 105.215H88.4572V104.907L88.2763 105.156L88.3572 105.215ZM87.6569 106.18L87.6122 106.27L87.688 106.307L87.7378 106.239L87.6569 106.18ZM86.2989 104.651L86.391 104.612L86.29 104.373L86.2045 104.618L86.2989 104.651ZM84.941 106.377L84.8607 106.436L84.9133 106.507L84.9901 106.464L84.941 106.377ZM84.1723 105.343L84.1222 105.257L84.0252 105.313L84.0921 105.403L84.1723 105.343ZM85.6328 102.166H85.7328V102.066H85.6328V102.166ZM84.5225 102.166H84.4225V102.266H84.5225V102.166ZM84.5225 101.064V100.964H84.4225V101.064H84.5225ZM85.6328 101.064V101.164H85.7328V101.064H85.6328ZM85.6328 100.048V99.948H85.5328V100.048H85.6328ZM86.9395 100.048H87.0395V99.948H86.9395V100.048ZM86.9395 101.064H86.8395V101.164H86.9395V101.064ZM88.0412 101.064H88.1412V100.964H88.0412V101.064ZM88.0412 102.166V102.266H88.1412V102.166H88.0412ZM86.9395 102.166V102.066H86.8395V102.166H86.9395ZM88.3572 105.147L88.3091 105.234L88.4572 105.316V105.147H88.3572ZM88.3572 103.866H88.4572V103.766H88.3572V103.866ZM87.6227 103.866H87.5227V103.966H87.6227V103.866ZM87.6227 102.764V102.664H87.5227V102.764H87.6227ZM89.9799 99.7918V99.6918H89.8799V99.7918H89.9799ZM91.2866 99.7918H91.3866V99.6918H91.2866V99.7918ZM91.2866 107.803V107.903H91.3866V107.803H91.2866ZM89.9799 107.803H89.8799V107.903H89.9799V107.803ZM88.3572 102.764H88.4572V99.9028H88.3572H88.2572V102.764H88.3572ZM88.3572 99.9028V100.003H89.6383V99.9028V99.8028H88.3572V99.9028ZM89.6383 99.9028H89.5383V107.47H89.6383H89.7383V99.9028H89.6383ZM89.6383 107.47V107.37H88.3572V107.47V107.57H89.6383V107.47ZM88.3572 107.47H88.4572V105.215H88.3572H88.2572V107.47H88.3572ZM88.3572 105.215L88.2763 105.156L87.5759 106.121L87.6569 106.18L87.7378 106.239L88.4381 105.274L88.3572 105.215ZM87.6569 106.18L87.7016 106.091C87.0788 105.779 86.666 105.262 86.391 104.612L86.2989 104.651L86.2068 104.69C86.4955 105.373 86.9368 105.932 87.6122 106.27L87.6569 106.18ZM86.2989 104.651L86.2045 104.618C85.9542 105.336 85.5319 105.928 84.8919 106.289L84.941 106.377L84.9901 106.464C85.6824 106.073 86.1312 105.436 86.3934 104.684L86.2989 104.651ZM84.941 106.377L85.0212 106.317L84.2526 105.283L84.1723 105.343L84.0921 105.403L84.8607 106.436L84.941 106.377ZM84.1723 105.343L84.2225 105.43C85.4488 104.719 85.7328 103.406 85.7328 102.209H85.6328H85.5328C85.5328 103.385 85.2531 104.601 84.1222 105.257L84.1723 105.343ZM85.6328 102.209H85.7328V102.166H85.6328H85.5328V102.209H85.6328ZM85.6328 102.166V102.066H84.5225V102.166V102.266H85.6328V102.166ZM84.5225 102.166H84.6225V101.064H84.5225H84.4225V102.166H84.5225ZM84.5225 101.064V101.164H85.6328V101.064V100.964H84.5225V101.064ZM85.6328 101.064H85.7328V100.048H85.6328H85.5328V101.064H85.6328ZM85.6328 100.048V100.148H86.9395V100.048V99.948H85.6328V100.048ZM86.9395 100.048H86.8395V101.064H86.9395H87.0395V100.048H86.9395ZM86.9395 101.064V101.164H88.0412V101.064V100.964H86.9395V101.064ZM88.0412 101.064H87.9412V102.166H88.0412H88.1412V101.064H88.0412ZM88.0412 102.166V102.066H86.9395V102.166V102.266H88.0412V102.166ZM86.9395 102.166H86.8395V102.209H86.9395H87.0395V102.166H86.9395ZM86.9395 102.209H86.8395C86.8395 103.382 87.1244 104.584 88.3091 105.234L88.3572 105.147L88.4053 105.059C87.3182 104.462 87.0395 103.358 87.0395 102.209H86.9395ZM88.3572 105.147H88.4572V103.866H88.3572H88.2572V105.147H88.3572ZM88.3572 103.866V103.766H87.6227V103.866V103.966H88.3572V103.866ZM87.6227 103.866H87.7227V102.764H87.6227H87.5227V103.866H87.6227ZM87.6227 102.764V102.864H88.3572V102.764V102.664H87.6227V102.764ZM89.9799 99.7918V99.8918H91.2866V99.7918V99.6918H89.9799V99.7918ZM91.2866 99.7918H91.1866V107.803H91.2866H91.3866V99.7918H91.2866ZM91.2866 107.803V107.703H89.9799V107.803V107.903H91.2866V107.803ZM89.9799 107.803H90.0799V99.7918H89.9799H89.8799V107.803H89.9799Z" fill="white" fill-opacity="0.8" mask="url(#path-9-inside-2_1313_16219)"/>
<defs>
<linearGradient id="paint0_linear_1313_16219" x1="10.5617" y1="98.0671" x2="107.489" y2="159.437" gradientUnits="userSpaceOnUse">
<stop stop-color="white"/>
<stop offset="0.5" stop-color="white" stop-opacity="0"/>
<stop offset="1" stop-color="white"/>
</linearGradient>
<linearGradient id="paint1_linear_1313_16219" x1="58.2222" y1="87.7378" x2="78.3502" y2="161.515" gradientUnits="userSpaceOnUse">
<stop stop-color="white"/>
<stop offset="1" stop-color="#EDEDED"/>
</linearGradient>
<linearGradient id="paint2_linear_1313_16219" x1="18.831" y1="87.7852" x2="95.5053" y2="129.514" gradientUnits="userSpaceOnUse">
<stop stop-color="white"/>
<stop offset="0.5" stop-color="white" stop-opacity="0"/>
<stop offset="1" stop-color="white"/>
</linearGradient>
<linearGradient id="paint3_linear_1313_16219" x1="22.5818" y1="38.8161" x2="39.6543" y2="50.5075" gradientUnits="userSpaceOnUse">
<stop stop-color="#5F5F5F"/>
<stop offset="1" stop-color="#606060" stop-opacity="0.7"/>
</linearGradient>
<linearGradient id="paint4_linear_1313_16219" x1="54.0882" y1="101.816" x2="71.6531" y2="125.3" gradientUnits="userSpaceOnUse">
<stop stop-color="#5F5F5F"/>
<stop offset="1" stop-color="#606060" stop-opacity="0.7"/>
</linearGradient>
</defs>
</svg>
