<svg width="32" height="32" viewBox="0 0 32 32" fill="none" xmlns="http://www.w3.org/2000/svg">
<g clip-path="url(#clip0_1940_19986)">
<path d="M4 14.6667H14.6667V4H4V14.6667ZM6.66667 6.66667H12V12H6.66667V6.66667Z" fill="#0C0C0C"/>
<path d="M4 28.0007H14.6667V17.334H4V28.0007ZM6.66667 20.0007H12V25.334H6.66667V20.0007Z" fill="#0C0C0C"/>
<path d="M17.332 4V14.6667H27.9987V4H17.332ZM25.332 12H19.9987V6.66667H25.332V12Z" fill="#0C0C0C"/>
<path d="M27.9987 25.334H25.332V28.0007H27.9987V25.334Z" fill="#0C0C0C"/>
<path d="M19.9987 17.334H17.332V20.0007H19.9987V17.334Z" fill="#0C0C0C"/>
<path d="M22.6667 20H20V22.6667H22.6667V20Z" fill="#0C0C0C"/>
<path d="M19.9987 22.666H17.332V25.3327H19.9987V22.666Z" fill="#0C0C0C"/>
<path d="M22.6667 25.334H20V28.0007H22.6667V25.334Z" fill="#0C0C0C"/>
<path d="M25.3346 22.666H22.668V25.3327H25.3346V22.666Z" fill="#0C0C0C"/>
<path d="M25.3346 17.334H22.668V20.0007H25.3346V17.334Z" fill="#0C0C0C"/>
<path d="M27.9987 20H25.332V22.6667H27.9987V20Z" fill="#0C0C0C"/>
</g>
<defs>
<clipPath id="clip0_1940_19986">
<rect width="32" height="32" fill="white"/>
</clipPath>
</defs>
</svg>
